<?xml version="1.0" encoding="utf-8"?>
<!-- Generator: Adobe Illustrator 27.0.0, SVG Export Plug-In . SVG Version: 6.00 Build 0)  -->
<svg version="1.1" id="Layer_1" xmlns="http://www.w3.org/2000/svg" xmlns:xlink="http://www.w3.org/1999/xlink" x="0px" y="0px"
	 viewBox="0 0 40 40" style="enable-background:new 0 0 40 40;" xml:space="preserve">
<style type="text/css">
	.st0{fill:none;stroke:#94A5D5;stroke-width:1.5;stroke-miterlimit:10;}
	.st1{fill:#94A5D5;}
</style>
<path id="XMLID_2007_" class="st0" d="M20,39L20,39C9.5,39,1,30.5,1,20v0C1,9.5,9.5,1,20,1h0c10.5,0,19,8.5,19,19v0
	C39,30.5,30.5,39,20,39z"/>
<g id="XMLID_1997_">
	<path id="XMLID_2003_" class="st1" d="M17.2,26.3c0.6-0.1,1.1-0.3,1.5-0.7c0.4-0.3,0.7-0.6,0.9-1c0.4-0.6,0.6-1.3,0.6-2.1
		c0-0.8-0.2-1.4-0.5-2c-0.3-0.5-0.9-0.9-1.5-1.2c0.4-0.2,0.8-0.5,1-0.8c0.4-0.5,0.6-1.1,0.6-2c0-0.8-0.2-1.5-0.6-2
		c-0.7-0.9-1.8-1.4-3.5-1.4H9.3v13.3h6C15.9,26.5,16.6,26.5,17.2,26.3z M11.9,15.5h2.9c0.6,0,1.2,0.1,1.6,0.2
		c0.5,0.2,0.7,0.6,0.7,1.2c0,0.6-0.2,1-0.5,1.2c-0.4,0.2-0.8,0.3-1.4,0.3h-3.2V15.5z M11.9,24.2v-3.6h3.3c0.6,0,1,0.1,1.3,0.2
		c0.6,0.3,0.8,0.7,0.8,1.4c0,0.8-0.3,1.4-0.9,1.7c-0.3,0.2-0.8,0.2-1.3,0.2H11.9z"/>
	<g id="XMLID_1998_">
		<path id="XMLID_2000_" class="st1" d="M22.5,25.6c1,0.8,2.2,1.2,3.5,1.2c1.6,0,2.8-0.5,3.7-1.4c0.6-0.6,0.9-1.2,1-1.8H28
			c-0.2,0.3-0.3,0.5-0.5,0.7c-0.4,0.3-0.8,0.5-1.4,0.5c-0.6,0-1-0.1-1.4-0.4c-0.6-0.4-1-1.1-1-2.1h7.2c0-0.9,0-1.5-0.1-2
			c-0.1-0.8-0.4-1.5-0.8-2c-0.4-0.7-1-1.2-1.7-1.5c-0.7-0.3-1.5-0.5-2.3-0.5c-1.4,0-2.6,0.5-3.5,1.4c-0.9,0.9-1.4,2.2-1.4,3.9
			C20.9,23.5,21.5,24.8,22.5,25.6z M24.3,19.1c0.4-0.4,0.9-0.6,1.5-0.6c0.6,0,1.1,0.2,1.5,0.5c0.4,0.4,0.6,0.9,0.7,1.6h-4.4
			C23.7,20,23.9,19.5,24.3,19.1z"/>
		<rect id="XMLID_1999_" x="22.8" y="14" class="st1" width="5.8" height="1.3"/>
	</g>
</g>
</svg>
