<?xml version="1.0" encoding="utf-8"?>
<!-- Generator: Adobe Illustrator 21.1.0, SVG Export Plug-In . SVG Version: 6.00 Build 0)  -->
<svg version="1.1" id="Layer_1" xmlns="http://www.w3.org/2000/svg" xmlns:xlink="http://www.w3.org/1999/xlink" x="0px" y="0px"
	 viewBox="0 0 292 78.5" style="enable-background:new 0 0 292 78.5;" xml:space="preserve">
<style type="text/css">
	.st0{fill:#41566B;}
	.st1{fill:#29ACE2;}
</style>
<g>
	<path class="st0" d="M99.9,39c-0.2,0.2-0.4,0.2-0.6,0.2h-7.2V65c0,0.2-0.1,0.4-0.3,0.6c-0.2,0.2-0.4,0.3-0.6,0.3h-5.8
		c-0.2,0-0.4-0.1-0.6-0.3s-0.3-0.4-0.3-0.6V39.2h-7.2c-0.2,0-0.4-0.1-0.6-0.2s-0.3-0.4-0.3-0.6v-4.6c0-0.2,0.1-0.4,0.3-0.6
		c0.2-0.2,0.4-0.2,0.6-0.2h21.9c0.2,0,0.4,0.1,0.6,0.2c0.2,0.2,0.3,0.4,0.3,0.6v4.6C100.2,38.6,100.1,38.8,99.9,39z"/>
	<path class="st0" d="M122.4,54.4c0,0.7-0.3,1.1-0.9,1.1h-14.1v0.1c0,0.6,0.1,1.2,0.2,1.8c0.1,0.6,0.4,1.1,0.8,1.5
		c0.4,0.4,0.8,0.8,1.4,1.1c0.6,0.3,1.3,0.4,2.2,0.4c0.7,0,1.5,0,2.3,0c0.8,0,1.6-0.1,2.4-0.1c0.8,0,1.5-0.1,2.2-0.1
		c0.7,0,1.2-0.1,1.7-0.2h0.1c0.6,0,0.8,0.2,0.8,0.7V64c0,0.4-0.1,0.6-0.2,0.8c-0.1,0.2-0.4,0.3-0.8,0.4c-1.4,0.4-2.8,0.6-4.2,0.8
		c-1.4,0.2-3,0.3-4.9,0.3c-1.3,0-2.7-0.2-4-0.6c-1.3-0.4-2.5-1-3.6-1.9c-1.1-0.9-1.9-2.1-2.6-3.5c-0.6-1.5-1-3.2-1-5.4v-3.1
		c0-1.8,0.2-3.4,0.8-4.8c0.5-1.4,1.2-2.7,2.2-3.7c1-1,2.1-1.8,3.5-2.3c1.4-0.5,3-0.8,4.7-0.8c1.8,0,3.4,0.3,4.8,0.9s2.5,1.4,3.4,2.4
		c0.9,1,1.6,2.3,2.1,3.7c0.5,1.4,0.7,3,0.7,4.6V54.4z M115.5,50.8c0-1.7-0.4-2.9-1.1-3.7s-1.7-1.2-2.9-1.2s-2.2,0.4-3,1.2
		c-0.7,0.8-1.1,2-1.1,3.7V51h8V50.8z"/>
	<path class="st0" d="M160.2,65.6c-0.2,0.2-0.4,0.3-0.6,0.3h-5.4c-0.2,0-0.4-0.1-0.6-0.3s-0.3-0.4-0.3-0.6V49.8
		c0-1.4-0.2-2.4-0.6-2.9c-0.4-0.5-1.1-0.8-2.1-0.8c-0.4,0-0.9,0.1-1.5,0.2c-0.6,0.1-1.2,0.3-1.9,0.6c0.1,0.9,0.1,1.8,0.1,2.9v15.1
		c0,0.2-0.1,0.5-0.3,0.6c-0.2,0.2-0.4,0.3-0.6,0.3h-5.4c-0.2,0-0.5-0.1-0.6-0.3c-0.2-0.2-0.3-0.4-0.3-0.6V49.8
		c0-1.4-0.2-2.4-0.5-2.9c-0.3-0.5-1-0.8-2.1-0.8c-0.4,0-0.9,0.1-1.5,0.3c-0.6,0.2-1.2,0.5-1.9,0.8v17.6c0,0.2-0.1,0.5-0.3,0.6
		s-0.4,0.3-0.6,0.3H128c-0.2,0-0.5-0.1-0.6-0.3c-0.2-0.2-0.3-0.4-0.3-0.6V41.4c0-0.2,0.1-0.4,0.3-0.6c0.2-0.2,0.4-0.3,0.6-0.3h5
		c0.2,0,0.4,0.1,0.6,0.3c0.2,0.2,0.3,0.4,0.3,0.6v1c0.9-0.6,1.9-1.1,3-1.6c1.1-0.4,2.2-0.6,3.5-0.6c1.2,0,2.2,0.2,3,0.5
		c0.8,0.3,1.6,0.9,2.2,1.7c0.6-0.4,1.3-0.7,1.8-1c0.6-0.3,1.1-0.5,1.7-0.7c0.6-0.2,1.1-0.3,1.7-0.4c0.6-0.1,1.3-0.1,2-0.1
		c1.4,0,2.7,0.2,3.6,0.7c1,0.5,1.8,1.1,2.3,2c0.6,0.8,1,1.9,1.2,3.1c0.2,1.2,0.4,2.5,0.4,4v15.1C160.5,65.2,160.4,65.4,160.2,65.6z"
		/>
	<path class="st0" d="M187.7,54.9c0,3.5-0.9,6.2-2.7,8.3c-1.8,2-4.6,3.1-8.4,3.1c-0.4,0-1,0-1.7-0.1c-0.7-0.1-1.3-0.1-2-0.2v7.7
		c0,0.2-0.1,0.4-0.3,0.6s-0.4,0.3-0.6,0.3h-5.4c-0.2,0-0.5-0.1-0.6-0.3c-0.2-0.2-0.3-0.4-0.3-0.6v-31c0-0.4,0.1-0.6,0.2-0.8
		c0.2-0.2,0.5-0.3,1.1-0.5c1.3-0.3,2.7-0.6,4.4-0.8c1.7-0.2,3.3-0.3,5-0.3c3.6,0,6.3,1,8.2,3c1.9,2,2.9,4.8,2.9,8.4V54.9z
		 M180.5,51.5c0-0.8-0.1-1.5-0.2-2.2c-0.1-0.6-0.3-1.2-0.6-1.7c-0.3-0.5-0.7-0.9-1.2-1.1c-0.5-0.3-1.1-0.4-1.9-0.4
		c-0.7,0-1.4,0-2.1,0.1c-0.6,0-1.2,0.1-1.6,0.2v13.8c0.5,0.1,1.1,0.1,1.8,0.2c0.7,0.1,1.3,0.1,1.8,0.1c0.8,0,1.4-0.1,1.9-0.4
		c0.5-0.3,0.9-0.7,1.2-1.1c0.3-0.5,0.5-1.1,0.6-1.7c0.1-0.7,0.2-1.4,0.2-2.1V51.5z"/>
	<path class="st0" d="M199.1,65.6c-0.2,0.2-0.4,0.3-0.6,0.3h-5.4c-0.2,0-0.4-0.1-0.6-0.3c-0.2-0.2-0.3-0.4-0.3-0.6V32.8
		c0-0.2,0.1-0.4,0.3-0.6c0.2-0.2,0.4-0.3,0.6-0.3h5.4c0.2,0,0.4,0.1,0.6,0.3c0.2,0.2,0.2,0.4,0.2,0.6v32.1
		C199.4,65.2,199.3,65.4,199.1,65.6z"/>
	<path class="st0" d="M224.2,65c0,0.2-0.1,0.4-0.3,0.6c-0.2,0.2-0.4,0.3-0.6,0.3h-5c-0.2,0-0.4-0.1-0.6-0.3s-0.3-0.4-0.3-0.6v-0.7
		c-0.9,0.6-1.8,1.1-2.7,1.5s-2.1,0.5-3.4,0.5c-1,0-1.9-0.1-2.8-0.4c-0.9-0.3-1.7-0.7-2.4-1.3c-0.7-0.6-1.3-1.4-1.7-2.3
		c-0.4-1-0.6-2.2-0.6-3.6v-0.4c0-2.6,0.9-4.5,2.6-5.7s4.5-1.8,8.3-1.8h2.4v-1.6c0-1.3-0.3-2.1-0.9-2.5c-0.6-0.4-1.4-0.6-2.4-0.6
		c-0.7,0-1.4,0-2.1,0c-0.7,0-1.4,0-2.1,0.1c-0.7,0-1.3,0.1-1.8,0.1c-0.5,0-1,0.1-1.3,0.1h-0.2c-0.2,0-0.4-0.1-0.6-0.2
		s-0.2-0.3-0.2-0.6v-3.6c0-0.5,0.3-0.8,0.8-1c0.8-0.2,1.9-0.4,3.3-0.6c1.4-0.2,2.8-0.3,4.3-0.3c1.6,0,3,0.2,4.3,0.5
		c1.3,0.3,2.4,0.9,3.2,1.6c0.9,0.7,1.6,1.7,2.1,2.8c0.5,1.1,0.7,2.5,0.7,4.1V65z M217.2,55h-2.5c-0.8,0-1.4,0.1-1.9,0.2
		c-0.5,0.1-0.9,0.3-1.2,0.6c-0.3,0.3-0.5,0.6-0.6,1c-0.1,0.4-0.2,0.9-0.2,1.4v0.4c0,0.9,0.2,1.5,0.7,1.8c0.5,0.3,1.2,0.4,2.1,0.4
		c0.7,0,1.3-0.1,1.9-0.3c0.6-0.2,1.2-0.4,1.7-0.7V55z"/>
	<path class="st0" d="M242.2,65.9c-0.7,0.1-1.3,0.2-1.8,0.3c-0.5,0.1-1.1,0.1-1.7,0.1c-1.2,0-2.3-0.1-3.2-0.3
		c-0.9-0.2-1.7-0.6-2.3-1.1c-0.6-0.6-1.1-1.3-1.4-2.3c-0.3-1-0.5-2.3-0.5-3.8V45.9l-3.5-0.6c-0.2-0.1-0.5-0.2-0.6-0.3
		c-0.2-0.2-0.3-0.4-0.3-0.6v-2.9c0-0.2,0.1-0.4,0.3-0.6c0.2-0.2,0.4-0.3,0.6-0.3h3.5v-3.6c0-0.2,0.1-0.4,0.3-0.6
		c0.2-0.1,0.4-0.2,0.6-0.3l5.4-0.9h0.1c0.2,0,0.4,0.1,0.6,0.2s0.2,0.3,0.2,0.6v4.7h3.6c0.2,0,0.4,0.1,0.6,0.3
		c0.2,0.2,0.3,0.4,0.3,0.6V45c0,0.2-0.1,0.4-0.3,0.6c-0.2,0.2-0.4,0.3-0.6,0.3h-3.6v12.9c0,0.9,0.1,1.5,0.2,1.7
		c0.1,0.2,0.6,0.4,1.2,0.4h2.2c0.6,0,0.9,0.2,0.9,0.7V65C243,65.5,242.8,65.8,242.2,65.9z"/>
	<path class="st0" d="M268.6,54.4c0,0.7-0.3,1.1-0.9,1.1h-14.1v0.1c0,0.6,0.1,1.2,0.2,1.8c0.1,0.6,0.4,1.1,0.8,1.5
		c0.4,0.4,0.8,0.8,1.4,1.1c0.6,0.3,1.3,0.4,2.2,0.4c0.7,0,1.5,0,2.3,0c0.8,0,1.6-0.1,2.4-0.1s1.5-0.1,2.2-0.1c0.7,0,1.2-0.1,1.7-0.2
		h0.1c0.6,0,0.8,0.2,0.8,0.7V64c0,0.4-0.1,0.6-0.2,0.8c-0.1,0.2-0.4,0.3-0.8,0.4c-1.4,0.4-2.8,0.6-4.2,0.8c-1.4,0.2-3,0.3-4.9,0.3
		c-1.3,0-2.7-0.2-4-0.6c-1.3-0.4-2.5-1-3.6-1.9c-1.1-0.9-1.9-2.1-2.6-3.5c-0.6-1.5-1-3.2-1-5.4v-3.1c0-1.8,0.2-3.4,0.8-4.8
		c0.5-1.4,1.2-2.7,2.2-3.7c1-1,2.1-1.8,3.5-2.3c1.4-0.5,3-0.8,4.7-0.8c1.8,0,3.4,0.3,4.8,0.9s2.5,1.4,3.4,2.4c0.9,1,1.6,2.3,2.1,3.7
		c0.5,1.4,0.7,3,0.7,4.6V54.4z M261.6,50.8c0-1.7-0.4-2.9-1.1-3.7c-0.7-0.8-1.7-1.2-2.9-1.2s-2.2,0.4-3,1.2c-0.7,0.8-1.1,2-1.1,3.7
		V51h8V50.8z"/>
	<path class="st0" d="M290.9,58.8c0,1-0.2,2-0.6,2.9c-0.4,0.9-1,1.7-1.7,2.4c-0.8,0.7-1.8,1.2-2.9,1.6c-1.2,0.4-2.6,0.6-4.2,0.6
		c-0.6,0-1.3,0-2-0.1c-0.7,0-1.4-0.1-2.1-0.2c-0.7-0.1-1.4-0.2-2.1-0.3c-0.7-0.1-1.3-0.2-1.9-0.4c-0.6-0.1-0.8-0.5-0.8-1v-3.6
		c0-0.2,0.1-0.4,0.2-0.6c0.1-0.2,0.4-0.2,0.6-0.2h0.2c0.6,0.1,1.2,0.2,2,0.2c0.7,0.1,1.4,0.1,2.1,0.2c0.7,0.1,1.4,0.1,2,0.1
		c0.6,0,1.1,0,1.4,0c1.1,0,1.8-0.1,2.1-0.4c0.3-0.3,0.5-0.7,0.5-1.3c0-0.3-0.1-0.6-0.4-0.9c-0.2-0.3-0.7-0.6-1.3-1l-5.7-3.3
		c-1.2-0.7-2.2-1.6-2.9-2.7s-1-2.4-1-3.8c0-2.2,0.7-3.9,2.2-5.1c1.5-1.2,3.7-1.7,6.8-1.7c1.7,0,3.2,0.1,4.4,0.3
		c1.2,0.2,2.4,0.4,3.5,0.7c0.6,0.1,0.8,0.5,0.8,1v3.6c0,0.6-0.3,0.8-0.8,0.8h-0.1c-0.3,0-0.8-0.1-1.4-0.2c-0.6-0.1-1.2-0.1-1.9-0.2
		c-0.7-0.1-1.4-0.1-2.1-0.2c-0.7,0-1.4-0.1-1.9-0.1c-0.9,0-1.5,0.1-1.8,0.3s-0.5,0.5-0.5,1c0,0.3,0.1,0.6,0.4,0.8
		c0.2,0.2,0.6,0.5,1,0.7l5.5,3.1c0.9,0.5,1.7,1.1,2.2,1.6c0.6,0.5,1,1.1,1.4,1.7s0.6,1.2,0.7,1.7C290.8,57.7,290.9,58.3,290.9,58.8z
		"/>
</g>
<g>
	<path class="st0" d="M39.4,20.1c-9.9,0-19.2-0.8-26.3-2.3C4.9,16.1,1,13.7,1,10.6s4-5.5,12.1-7.2C20.1,1.8,29.5,1,39.4,1
		s19.2,0.8,26.3,2.3c8.2,1.7,12.1,4.1,12.1,7.2s-4,5.5-12.1,7.2C58.6,19.3,49.3,20.1,39.4,20.1z M39.4,4.5c-22,0-34.6,4-34.9,6.1
		c0.3,2.1,12.9,6.1,34.9,6.1c22,0,34.6-4,34.9-6.1C73.9,8.5,61.3,4.5,39.4,4.5z"/>
</g>
<g>
	<path class="st1" d="M95.7,23.6c-1.4,1.4-3.3,2-5.2,2c-5.1,0-7.3-3.5-7.3-7.1c0-3.6,2.3-7.3,7.3-7.3c1.9,0,3.6,0.7,5.1,2.1
		l-1.7,1.7c-0.9-0.9-2.1-1.3-3.3-1.3c-3.3,0-4.8,2.5-4.7,4.8c0,2.3,1.3,4.7,4.7,4.7c1.2,0,2.6-0.5,3.5-1.4L95.7,23.6z"/>
	<path class="st1" d="M96.5,25.3V11.6h9.9v2.5h-7.3v3.8h6.9v2.4h-6.9v5.1H96.5z"/>
	<path class="st1" d="M112.2,25.3V11.6h9.9v2.5h-7.3v3.8h6.9v2.4h-6.9v5.1H112.2z"/>
	<path class="st1" d="M126.2,15.6v5.1c0,1.5,0.8,2.6,2.3,2.6c1.5,0,2.5-1.2,2.5-2.7v-5h2.4v9.7h-2.1l-0.2-1.3c-1,1-1.9,1.5-3.3,1.5
		c-2.3,0-4-1.8-4-4.8v-5.1H126.2z"/>
	<path class="st1" d="M142.7,25.3v-5.1c0-1.5-0.8-2.6-2.3-2.6c-1.5,0-2.5,1.2-2.5,2.7v5h-2.4v-9.7h2.1l0.2,1.3c1-1,2-1.5,3.2-1.5
		c2.3,0,4.1,1.7,4.1,4.8v5.1H142.7z"/>
	<path class="st1" d="M154.3,25.3v-5.1c0-1.5-0.8-2.6-2.3-2.6c-1.5,0-2.5,1.2-2.5,2.7v5h-2.4v-9.7h2.1l0.2,1.3c1-1,2-1.5,3.2-1.5
		c2.3,0,4.1,1.7,4.1,4.8v5.1H154.3z"/>
	<path class="st1" d="M160.9,21.3c0.2,1.2,1.2,2.1,2.9,2.1c0.9,0,2-0.3,2.6-0.9l1.5,1.5c-1,1.1-2.7,1.6-4.2,1.6
		c-3.3,0-5.3-2.1-5.3-5.2c0-3,2-5.1,5.2-5.1c3.3,0,5.3,2,4.9,6H160.9z M166.1,19.4c-0.2-1.3-1.1-1.9-2.5-1.9c-1.3,0-2.4,0.6-2.7,1.9
		H166.1z"/>
	<path class="st1" d="M172.7,11.6v13.8h-2.4V11.6H172.7z"/>
	<path class="st1" d="M181.1,18.2c-0.7-0.7-1.5-0.9-2.4-0.9c-1.1,0-1.8,0.4-1.8,1c0,0.6,0.6,1,1.8,1.1c1.8,0.1,4.2,0.5,4.2,3.1
		c0,1.7-1.4,3.2-4.2,3.2c-1.5,0-3.1-0.3-4.5-1.7l1.2-1.7c0.7,0.8,2.3,1.3,3.3,1.4c0.9,0,1.8-0.5,1.8-1.2c0-0.7-0.6-0.9-1.9-1
		c-1.8-0.1-4-0.8-4-3c0-2.2,2.3-3,4.1-3c1.5,0,2.7,0.3,3.8,1.3L181.1,18.2z"/>
</g>
<g>
	<path class="st0" d="M68.6,18.3L47,49.1v16.4l-15.8,6.3V49.1L8.7,16.3c0.2,0.1,0.3,0.1,0.5,0.2l-6.2-6l-1.7,1.4l26.4,38.4v26.8
		l23.1-9.1V50.3l26.6-38.1c0.2-0.2,0.2-0.4,0.3-0.4l-0.8-0.5L68.6,18.3z"/>
</g>
</svg>
