<?xml version="1.0" encoding="UTF-8"?>
<!-- Generator: Adobe Illustrator 21.1.0, SVG Export Plug-In . SVG Version: 6.00 Build 0)  -->
<svg version="1.1" id="Layer_1" xmlns="http://www.w3.org/2000/svg" xmlns:xlink="http://www.w3.org/1999/xlink" x="0px" y="0px" viewBox="0 0 226.7 106.7" style="enable-background:new 0 0 226.7 106.7;" xml:space="preserve">
<style type="text/css">
	.st0{fill:#394C60;}
	.st1{fill:#3C9BD6;}
	.st2{fill:#E74F38;}
</style>
<g>
	<path class="st0" d="M142.7,56.5H82.6v-41h60.1V56.5L142.7,56.5z M121.7,6.9c0.2,0,0.3,0,0.5,0c0.2,0,0.3,0.1,0.5,0.1   c0.2,0.1,0.3,0.1,0.4,0.2c0.1,0.1,0.3,0.2,0.4,0.3c0.1,0.1,0.2,0.2,0.3,0.4c0.1,0.1,0.2,0.3,0.2,0.4c0.1,0.2,0.1,0.3,0.1,0.5   c0,0.2,0,0.3,0,0.5c0,0.2,0,0.3,0,0.5c0,0.2-0.1,0.3-0.1,0.5c-0.1,0.2-0.1,0.3-0.2,0.4c-0.1,0.1-0.2,0.3-0.3,0.4   c-0.1,0.1-0.2,0.2-0.4,0.3c-0.1,0.1-0.3,0.2-0.4,0.2c-0.2,0.1-0.3,0.1-0.5,0.1c-0.2,0-0.3,0-0.5,0c-0.2,0-0.3,0-0.5,0   c-0.2,0-0.3-0.1-0.5-0.1c-0.2-0.1-0.3-0.1-0.4-0.2c-0.1-0.1-0.3-0.2-0.4-0.3c-0.1-0.1-0.2-0.2-0.3-0.4c-0.1-0.1-0.2-0.3-0.2-0.4   c-0.1-0.2-0.1-0.3-0.1-0.5c0-0.2,0-0.3,0-0.5c0-0.2,0-0.3,0-0.5c0-0.2,0.1-0.3,0.1-0.5c0.1-0.2,0.1-0.3,0.2-0.4   c0.1-0.1,0.2-0.3,0.3-0.4c0.1-0.1,0.2-0.2,0.4-0.3c0.1-0.1,0.3-0.2,0.4-0.2c0.2-0.1,0.3-0.1,0.5-0.1C121.4,6.9,121.6,6.9,121.7,6.9   L121.7,6.9z M130.9,6.9c0.2,0,0.3,0,0.5,0c0.2,0,0.3,0.1,0.5,0.1c0.2,0.1,0.3,0.1,0.4,0.2c0.1,0.1,0.3,0.2,0.4,0.3   c0.1,0.1,0.2,0.2,0.3,0.4c0.1,0.1,0.2,0.3,0.2,0.4c0.1,0.2,0.1,0.3,0.1,0.5c0,0.2,0,0.3,0,0.5c0,0.2,0,0.3,0,0.5   c0,0.2-0.1,0.3-0.1,0.5c-0.1,0.2-0.1,0.3-0.2,0.4c-0.1,0.1-0.2,0.3-0.3,0.4c-0.1,0.1-0.2,0.2-0.4,0.3c-0.1,0.1-0.3,0.2-0.4,0.2   c-0.2,0.1-0.3,0.1-0.5,0.1c-0.2,0-0.3,0-0.5,0c-0.2,0-0.3,0-0.5,0c-0.2,0-0.3-0.1-0.5-0.1c-0.2-0.1-0.3-0.1-0.4-0.2   c-0.1-0.1-0.3-0.2-0.4-0.3c-0.1-0.1-0.2-0.2-0.3-0.4c-0.1-0.1-0.2-0.3-0.2-0.4c-0.1-0.2-0.1-0.3-0.1-0.5c0-0.2,0-0.3,0-0.5   c0-0.2,0-0.3,0-0.5c0-0.2,0.1-0.3,0.1-0.5c0.1-0.2,0.1-0.3,0.2-0.4c0.1-0.1,0.2-0.3,0.3-0.4c0.1-0.1,0.2-0.2,0.4-0.3   c0.1-0.1,0.3-0.2,0.4-0.2c0.2-0.1,0.3-0.1,0.5-0.1C130.6,6.9,130.7,6.9,130.9,6.9z M140.1,6.9c0.2,0,0.3,0,0.5,0   c0.2,0,0.3,0.1,0.5,0.1c0.2,0.1,0.3,0.1,0.4,0.2c0.1,0.1,0.3,0.2,0.4,0.3c0.1,0.1,0.2,0.2,0.3,0.4c0.1,0.1,0.2,0.3,0.2,0.4   c0.1,0.2,0.1,0.3,0.1,0.5c0,0.2,0,0.3,0,0.5c0,0.2,0,0.3,0,0.5c0,0.2-0.1,0.3-0.1,0.5c-0.1,0.2-0.1,0.3-0.2,0.4   c-0.1,0.1-0.2,0.3-0.3,0.4c-0.1,0.1-0.2,0.2-0.4,0.3c-0.1,0.1-0.3,0.2-0.4,0.2c-0.2,0.1-0.3,0.1-0.5,0.1c-0.2,0-0.3,0-0.5,0   s-0.3,0-0.5,0c-0.2,0-0.3-0.1-0.5-0.1c-0.2-0.1-0.3-0.1-0.4-0.2c-0.1-0.1-0.3-0.2-0.4-0.3s-0.2-0.2-0.3-0.4   c-0.1-0.1-0.2-0.3-0.2-0.4c-0.1-0.2-0.1-0.3-0.1-0.5c0-0.2,0-0.3,0-0.5c0-0.2,0-0.3,0-0.5c0-0.2,0.1-0.3,0.1-0.5   c0.1-0.2,0.1-0.3,0.2-0.4c0.1-0.1,0.2-0.3,0.3-0.4c0.1-0.1,0.2-0.2,0.4-0.3c0.1-0.1,0.3-0.2,0.4-0.2c0.2-0.1,0.3-0.1,0.5-0.1   C139.7,6.9,139.9,6.9,140.1,6.9z M143.9,3H81.5c-0.3,0-0.5,0-0.8,0.1c-0.3,0.1-0.5,0.1-0.8,0.2c-0.2,0.1-0.5,0.2-0.7,0.4   c-0.2,0.1-0.4,0.3-0.6,0.5c-0.2,0.2-0.4,0.4-0.5,0.6C78,5,77.9,5.3,77.8,5.5c-0.1,0.2-0.2,0.5-0.2,0.8c-0.1,0.3-0.1,0.5-0.1,0.8   v50.7c0,0.3,0,0.5,0.1,0.8c0.1,0.3,0.1,0.5,0.2,0.8c0.1,0.2,0.2,0.5,0.4,0.7c0.1,0.2,0.3,0.4,0.5,0.6c0.2,0.2,0.4,0.4,0.6,0.5   c0.2,0.1,0.5,0.3,0.7,0.4c0.2,0.1,0.5,0.2,0.8,0.2c0.3,0.1,0.5,0.1,0.8,0.1h62.3c0.3,0,0.5,0,0.8-0.1c0.3-0.1,0.5-0.1,0.8-0.2   c0.2-0.1,0.5-0.2,0.7-0.4c0.2-0.1,0.4-0.3,0.6-0.5c0.2-0.2,0.4-0.4,0.5-0.6c0.1-0.2,0.3-0.5,0.4-0.7c0.1-0.2,0.2-0.5,0.2-0.8   c0.1-0.3,0.1-0.5,0.1-0.8V7c0-0.3,0-0.5-0.1-0.8c-0.1-0.3-0.1-0.5-0.2-0.8c-0.1-0.2-0.2-0.5-0.4-0.7c-0.1-0.2-0.3-0.4-0.5-0.6   c-0.2-0.2-0.4-0.4-0.6-0.5c-0.2-0.1-0.5-0.3-0.7-0.4c-0.2-0.1-0.5-0.2-0.8-0.2C144.4,3,144.1,3,143.9,3z"/>
	<path class="st1" d="M101.4,52.2c0.2-0.3,0.5-0.6,0.8-0.9c0.3-0.3,0.6-0.5,1-0.6c0.4-0.1,0.8-0.2,1.2-0.3c0.4,0,0.8,0,1.2,0.1   c0.2,0.1,0.4,0.1,0.5,0.1c0.2,0,0.4,0,0.6,0c0.2,0,0.4,0,0.6-0.1c0.2-0.1,0.4-0.1,0.5-0.2c0.2-0.1,0.3-0.2,0.5-0.3   c0.1-0.1,0.3-0.2,0.4-0.4c0.1-0.1,0.2-0.3,0.3-0.5c0.1-0.2,0.2-0.3,0.2-0.5c0.1-0.2,0.1-0.4,0.1-0.5c0-0.2,0-0.4,0-0.6   c0-0.2,0-0.4-0.1-0.6c0-0.2-0.1-0.4-0.2-0.5c-0.1-0.2-0.2-0.3-0.3-0.5c-0.1-0.2-0.2-0.3-0.4-0.4c-0.1-0.1-0.3-0.3-0.4-0.4   c-0.2-0.1-0.3-0.2-0.5-0.3c-0.3-0.2-0.7-0.4-0.9-0.6c-0.3-0.3-0.5-0.6-0.7-0.9c-0.2-0.3-0.3-0.7-0.4-1.1c-0.1-0.4-0.1-0.8,0-1.1   c0.1-0.4,0.2-0.8,0.4-1.1c0.2-0.4,0.4-0.7,0.7-0.9c0.3-0.3,0.6-0.5,1-0.6c0.4-0.1,0.8-0.2,1.2-0.2c0.2,0,0.4,0,0.6-0.1   c0.2,0,0.4-0.1,0.6-0.2c0.2-0.1,0.4-0.2,0.5-0.3c0.2-0.1,0.3-0.2,0.4-0.4c0.1-0.1,0.3-0.3,0.4-0.5c0.1-0.2,0.2-0.3,0.3-0.5   c0.1-0.2,0.1-0.4,0.2-0.6c0-0.2,0.1-0.4,0-0.6c0-0.2,0-0.4-0.1-0.6c0-0.2-0.1-0.4-0.2-0.6c-0.1-0.2-0.2-0.3-0.3-0.5   c-0.1-0.2-0.2-0.3-0.4-0.4c-0.1-0.1-0.3-0.3-0.5-0.4c-0.2-0.1-0.3-0.2-0.5-0.3c-0.2-0.1-0.4-0.1-0.6-0.2c-0.2,0-0.4-0.1-0.6,0   c-0.4,0-0.8-0.1-1.2-0.2c-0.4-0.1-0.7-0.3-1-0.6c-0.3-0.3-0.6-0.6-0.8-0.9c-0.2-0.3-0.3-0.7-0.4-1.1c-0.1-0.5-0.1-1,0-1.4   c0.1-0.5,0.3-1,0.6-1.5c0.3-0.4,0.7-0.8,1.2-1c0.2-0.1,0.3-0.2,0.5-0.3c0.1-0.1,0.3-0.3,0.4-0.4c0.1-0.1,0.2-0.3,0.3-0.5   c0.1-0.2,0.2-0.3,0.2-0.5c0.1-0.2,0.1-0.4,0.1-0.6c0-0.2,0-0.4,0-0.6c0-0.2,0-0.4-0.1-0.6c0-0.2-0.1-0.4-0.2-0.5   c-0.1-0.2-0.1-0.4-0.2-0.5c-0.1-0.2-0.2-0.3-0.3-0.5s-0.3-0.3-0.4-0.4c-0.2-0.1-0.3-0.2-0.5-0.3c-0.2-0.1-0.4-0.2-0.5-0.2   c-0.2,0-0.4-0.1-0.6-0.1c-0.2,0-0.4,0-0.6,0c-0.2,0-0.4,0.1-0.6,0.1c-0.8,0.3-1.5,0.3-2.3,0.1c-0.7-0.3-1.2-0.7-1.6-1.3   c-0.3-0.4-0.5-0.9-0.7-1.4c-0.1-0.5-0.1-1.1,0-1.6H86.2c6.4,3.4,12.4,10.3,12.6,19.4c0.2,9.9-5.1,17.9-12.7,21.6h15.5   c-0.3-0.3-0.5-0.6-0.6-1c-0.1-0.4-0.2-0.8-0.2-1.1c0-0.4,0-0.8,0.1-1.2C101,52.8,101.1,52.5,101.4,52.2L101.4,52.2z"/>
	<path class="st2" d="M120.7,19.4c0.3,0.3,0.6,0.6,0.8,0.9c0.2,0.3,0.3,0.7,0.4,1.1c0.1,0.4,0.1,0.8,0,1.2c-0.1,0.4-0.2,0.8-0.4,1.1   c-0.2,0.4-0.4,0.7-0.6,1c-0.3,0.3-0.6,0.6-0.9,0.8c-0.3,0.2-0.7,0.3-1.1,0.4c-0.4,0.1-0.8,0.1-1.2,0.1c-0.2,0-0.4-0.1-0.6-0.1   c-0.2,0-0.4,0-0.6,0.1c-0.2,0-0.4,0.1-0.5,0.2c-0.2,0.1-0.3,0.2-0.5,0.3c-0.2,0.1-0.3,0.2-0.4,0.4c-0.1,0.1-0.2,0.3-0.3,0.4   c-0.1,0.2-0.2,0.3-0.2,0.5c-0.1,0.2-0.1,0.4-0.1,0.5c0,0.2-0.1,0.4-0.1,0.6c0,0.2,0,0.4,0,0.6c0,0.2,0.1,0.4,0.1,0.5   c0.1,0.2,0.2,0.3,0.3,0.5c0.1,0.2,0.2,0.3,0.3,0.5c0.1,0.1,0.3,0.3,0.4,0.4s0.3,0.2,0.5,0.3c0.2,0.1,0.3,0.1,0.5,0.2   c0.4,0.1,0.7,0.3,1,0.5c0.3,0.2,0.6,0.5,0.8,0.8c0.2,0.3,0.4,0.6,0.5,1c0.1,0.4,0.2,0.7,0.2,1.1c0,0.4-0.1,0.8-0.2,1.1   c-0.1,0.4-0.3,0.7-0.6,1c-0.2,0.3-0.5,0.5-0.9,0.7c-0.3,0.2-0.7,0.3-1.1,0.4c-0.2,0-0.4,0.1-0.6,0.2c-0.2,0.1-0.4,0.2-0.5,0.3   c-0.2,0.1-0.3,0.2-0.5,0.4c-0.1,0.1-0.3,0.3-0.4,0.4c-0.1,0.2-0.2,0.3-0.3,0.5c-0.1,0.2-0.1,0.4-0.2,0.6c0,0.2-0.1,0.4-0.1,0.6   c0,0.2,0,0.4,0,0.6c0,0.2,0.1,0.4,0.2,0.6c0.1,0.2,0.2,0.4,0.3,0.5c0.1,0.2,0.2,0.3,0.4,0.5c0.1,0.1,0.3,0.3,0.4,0.4   c0.2,0.1,0.3,0.2,0.5,0.3c0.2,0.1,0.4,0.1,0.6,0.2c0.2,0,0.4,0.1,0.6,0.1c0.2,0,0.4,0,0.6,0c0.4,0,0.8,0,1.2,0.1   c0.4,0.1,0.8,0.2,1.1,0.4c0.3,0.2,0.6,0.5,0.9,0.8c0.3,0.3,0.4,0.7,0.6,1c0.2,0.5,0.2,0.9,0.2,1.4c0,0.5-0.1,1.1-0.4,1.5   c-0.2,0.5-0.6,0.9-1,1.2c-0.2,0.1-0.3,0.2-0.4,0.4c-0.1,0.1-0.2,0.3-0.3,0.5c-0.1,0.2-0.2,0.3-0.2,0.5c-0.1,0.2-0.1,0.4-0.1,0.6   c0,0.2,0,0.4,0,0.6c0,0.2,0,0.4,0.1,0.6c0,0.2,0.1,0.4,0.2,0.5c0.1,0.2,0.2,0.3,0.3,0.5c0.4,0.6,1,1.1,1.6,1.5h18.3   c-5.8-2.9-11.2-8.3-12.6-16c-1.9-11,3.3-20.5,12-25h-18.7c-0.1,0.2-0.2,0.3-0.3,0.5c-0.1,0.2-0.1,0.3-0.2,0.5   c0,0.2-0.1,0.4-0.1,0.5c0,0.2,0,0.4,0,0.6c0,0.2,0.1,0.4,0.1,0.5c0.1,0.2,0.1,0.3,0.2,0.5c0.1,0.2,0.2,0.3,0.3,0.4   C120.5,19.2,120.6,19.3,120.7,19.4L120.7,19.4z"/>
	<path class="st1" d="M126,57.1h-0.5C125.7,57.1,125.8,57.1,126,57.1L126,57.1z"/>
</g>
<g>
	<path class="st0" d="M3.2,90c0-1.1,0.2-2.2,0.5-3.3c0.3-1,0.8-1.9,1.5-2.7c0.7-0.8,1.6-1.4,2.7-1.9c1.3-0.5,2.6-0.7,4-0.7   c1.2,0,2.3,0.1,3.4,0.5c0.9,0.3,1.7,0.8,2.4,1.4c0.4,0.4,0.5,0.8,0.6,1.3c0,0.5-0.1,0.9-0.3,1.3c-0.3,0.4-0.7,0.7-1.1,0.8   c-0.7,0.1-1.3,0-1.9-0.3c-0.4-0.2-0.8-0.4-1.3-0.6c-0.6-0.2-1.1-0.3-1.7-0.3c-0.6,0-1.1,0-1.7,0.3c-0.5,0.2-1,0.5-1.4,1   c-0.4,0.5-0.6,1-0.8,1.6c-0.2,0.6-0.2,1.1-0.2,1.7v2.8c0,0.6,0,1.2,0.2,1.7c0.2,0.6,0.4,1.1,0.8,1.6c0.4,0.4,0.9,0.7,1.4,1   c0.5,0.2,1.1,0.3,1.7,0.3c0.6,0,1.2-0.1,1.8-0.2c0.5-0.1,0.9-0.3,1.3-0.5c0.5-0.3,1-0.4,1.5-0.3c0.5,0.1,0.8,0.3,1.2,0.6   c0.3,0.3,0.5,0.7,0.5,1.2c0,0.5-0.1,1-0.4,1.4c-0.6,0.8-1.4,1.3-2.4,1.5c-1.2,0.4-2.3,0.5-3.5,0.5c-1.4,0-2.7-0.2-4-0.7   c-1-0.4-1.9-1-2.7-1.8c-0.7-0.8-1.2-1.7-1.5-2.7c-0.3-1.1-0.5-2.2-0.5-3.3L3.2,90L3.2,90z"/>
	<path class="st0" d="M22.6,76.7c0-0.3,0.1-0.5,0.2-0.7c0.1-0.2,0.3-0.4,0.5-0.6c0.5-0.4,1.1-0.6,1.7-0.6c0.6,0,1.2,0.2,1.6,0.6   c0.4,0.3,0.6,0.8,0.6,1.3V100c0,0.5-0.2,0.9-0.6,1.3c-0.5,0.4-1,0.6-1.6,0.6c-0.6,0-1.2-0.2-1.7-0.6c-0.2-0.2-0.4-0.3-0.5-0.6   c-0.1-0.2-0.2-0.5-0.2-0.7V76.7z"/>
	<path class="st0" d="M33.4,83.3c0-0.3,0.1-0.5,0.2-0.7c0.1-0.2,0.3-0.4,0.5-0.6c0.5-0.4,1.1-0.6,1.7-0.6c0.6,0,1.2,0.2,1.6,0.6   c0.4,0.3,0.6,0.8,0.6,1.3V100c0,0.5-0.2,0.9-0.6,1.3c-0.5,0.4-1,0.6-1.6,0.6c-0.6,0-1.2-0.2-1.7-0.6c-0.2-0.2-0.4-0.3-0.5-0.6   c-0.1-0.2-0.2-0.5-0.2-0.7V83.3z M33.4,76.3c0-0.2,0.1-0.5,0.2-0.7c0.1-0.2,0.3-0.4,0.5-0.6c0.5-0.4,1.1-0.6,1.7-0.6   c0.6,0,1.2,0.2,1.6,0.6c0.4,0.3,0.6,0.8,0.6,1.3v0.9c0,0.5-0.2,0.9-0.6,1.3c-0.5,0.4-1,0.6-1.6,0.6c-0.6,0-1.2-0.2-1.7-0.6   c-0.2-0.2-0.4-0.3-0.5-0.6c-0.1-0.2-0.2-0.5-0.2-0.7V76.3z"/>
	<path class="st0" d="M43.3,90c0-1.1,0.2-2.2,0.5-3.3c0.3-1,0.8-1.9,1.5-2.7c0.8-0.8,1.7-1.4,2.7-1.8c1.3-0.5,2.6-0.7,4-0.7   c1.2,0,2.3,0.1,3.4,0.5c0.9,0.3,1.7,0.8,2.4,1.4c0.4,0.4,0.5,0.8,0.6,1.3c0,0.5-0.1,0.9-0.3,1.3c-0.3,0.4-0.7,0.7-1.1,0.8   c-0.7,0.1-1.3,0-1.9-0.3c-0.4-0.2-0.8-0.4-1.3-0.6c-0.6-0.2-1.1-0.3-1.7-0.3c-0.6,0-1.1,0-1.7,0.3c-0.5,0.2-1,0.5-1.4,1   c-0.4,0.5-0.6,1-0.8,1.6c-0.2,0.6-0.2,1.1-0.2,1.7v2.8c0,0.6,0,1.2,0.2,1.7c0.2,0.6,0.4,1.1,0.8,1.6c0.4,0.4,0.9,0.7,1.4,1   c0.5,0.2,1.1,0.3,1.7,0.3c0.6,0,1.2-0.1,1.8-0.2c0.5-0.1,0.9-0.3,1.3-0.5c0.5-0.3,1-0.4,1.5-0.3c0.5,0.1,0.8,0.3,1.2,0.6   c0.3,0.3,0.5,0.7,0.5,1.2c0,0.5-0.1,1-0.4,1.4c-0.6,0.8-1.4,1.3-2.3,1.5c-1.2,0.4-2.3,0.5-3.5,0.5c-1.4,0-2.7-0.2-4-0.7   c-1-0.4-1.9-1-2.7-1.8c-0.7-0.8-1.2-1.7-1.5-2.7c-0.3-1.1-0.5-2.2-0.5-3.3L43.3,90L43.3,90z"/>
	<path class="st0" d="M63,76.7c0-0.3,0.1-0.5,0.2-0.7c0.1-0.2,0.3-0.4,0.5-0.6c0.5-0.4,1.1-0.6,1.7-0.6c0.6,0,1.2,0.2,1.6,0.6   c0.4,0.3,0.6,0.8,0.6,1.3v12.3h1.8l5.7-6.9c0.4-0.4,0.9-0.5,1.5-0.5c0.6,0,1.2,0.2,1.6,0.7c0.2,0.2,0.4,0.5,0.5,0.8   c0.1,0.3,0.1,0.6,0.1,0.9c-0.1,0.5-0.3,1-0.7,1.4L73,90.8l6.2,7.8c0.2,0.2,0.3,0.4,0.3,0.6c0.1,0.2,0.1,0.5,0,0.7   c-0.2,0.6-0.5,1.1-1.1,1.4c-0.5,0.4-1,0.5-1.6,0.4c-0.5,0-0.9-0.3-1.3-0.7l-6.2-8.2h-1.7v7.1c0,0.5-0.2,0.9-0.6,1.3   c-0.5,0.4-1,0.6-1.6,0.6c-0.6,0-1.2-0.2-1.7-0.6c-0.2-0.2-0.4-0.3-0.5-0.6c-0.1-0.2-0.2-0.5-0.2-0.7V76.7z"/>
	<path class="st0" d="M94.7,81.9v-1.2c0-2.5,0.6-4.2,1.8-5.2c1.2-1,2.9-1.5,5.2-1.5c0.6,0,1.1,0.1,1.6,0.2c0.5,0.1,1,0.3,1.4,0.5   c0.4,0.2,0.7,0.5,1,0.8c0.2,0.3,0.4,0.7,0.4,1.1c0,0.5-0.1,1-0.5,1.4c-0.4,0.4-0.8,0.5-1.3,0.5c-0.4,0-0.8,0-1.2-0.2   c-0.4-0.1-0.9-0.2-1.3-0.2c-0.7-0.1-1.4,0.1-1.9,0.6c-0.4,0.6-0.6,1.2-0.6,1.9v1.3h3c0.5,0,0.9,0.2,1.2,0.5   c0.4,0.3,0.5,0.8,0.5,1.3c0,0.5-0.1,1-0.5,1.3c-0.3,0.3-0.7,0.5-1.2,0.5h-3V100c0,0.5-0.2,0.9-0.6,1.3c-0.5,0.4-1,0.6-1.6,0.6   c-0.7,0-1.2-0.2-1.7-0.6c-0.4-0.3-0.6-0.8-0.6-1.3V85.5h-1.4c-0.5,0-0.9-0.2-1.2-0.5c-0.4-0.4-0.5-0.8-0.5-1.3   c0-0.5,0.2-0.9,0.5-1.3c0.3-0.3,0.7-0.5,1.2-0.5H94.7z"/>
	<path class="st0" d="M116.6,101.9c-1.3,0-2.6-0.2-3.8-0.7c-0.5-0.2-1-0.4-1.4-0.7c-0.5-0.3-0.9-0.6-1.3-1c-0.4-0.4-0.7-0.8-1-1.3   c-0.3-0.5-0.5-1-0.7-1.5c-0.4-1.1-0.6-2.3-0.6-3.4v-9.9c0-0.3,0.1-0.5,0.2-0.7c0.1-0.2,0.3-0.4,0.5-0.6c0.5-0.4,1.1-0.6,1.7-0.6   c0.6,0,1.2,0.2,1.6,0.6c0.4,0.3,0.6,0.8,0.6,1.3v10c-0.1,0.6,0,1.2,0.2,1.7c0.2,0.6,0.5,1,0.9,1.5c0.4,0.3,0.9,0.6,1.4,0.8   c0.5,0.2,1,0.3,1.6,0.2c0.5,0,1.1-0.1,1.6-0.2c0.5-0.2,1-0.4,1.4-0.8c0.4-0.4,0.7-0.9,0.9-1.5c0.2-0.6,0.3-1.1,0.2-1.7v-10   c0-0.5,0.2-0.9,0.6-1.3c0.5-0.4,1-0.6,1.6-0.6c0.6,0,1.2,0.2,1.6,0.6c0.2,0.2,0.4,0.3,0.5,0.6c0.1,0.2,0.2,0.5,0.2,0.7v9.9   c0,1.2-0.2,2.3-0.6,3.4c-0.2,0.5-0.4,1-0.7,1.5c-0.3,0.5-0.6,0.9-1,1.3c-0.4,0.4-0.8,0.7-1.2,1c-0.5,0.3-0.9,0.5-1.4,0.7   C119.1,101.6,117.9,101.9,116.6,101.9L116.6,101.9z"/>
	<path class="st0" d="M139.5,81.4c1.3,0,2.6,0.2,3.8,0.6c1,0.3,1.9,0.9,2.7,1.6c0.7,0.7,1.3,1.6,1.6,2.6c0.4,1.1,0.6,2.2,0.6,3.4   V100c0,0.3-0.1,0.5-0.2,0.7c-0.1,0.2-0.3,0.4-0.5,0.6c-0.5,0.4-1,0.6-1.6,0.6c-0.6,0-1.2-0.2-1.6-0.6c-0.4-0.3-0.6-0.8-0.6-1.3   V89.9c0-0.6,0-1.2-0.2-1.7c-0.2-0.6-0.5-1-0.9-1.5c-0.4-0.3-0.9-0.6-1.4-0.8c-0.5-0.2-1-0.3-1.6-0.2c-0.5,0-1.1,0.1-1.6,0.2   c-0.5,0.2-1,0.4-1.4,0.8c-0.4,0.4-0.7,0.9-0.9,1.5c-0.2,0.6-0.3,1.1-0.2,1.7V100c0,0.5-0.2,0.9-0.6,1.3c-0.5,0.4-1,0.6-1.6,0.6   c-0.6,0-1.2-0.2-1.7-0.6c-0.2-0.2-0.4-0.3-0.5-0.6c-0.1-0.2-0.2-0.5-0.2-0.7v-9.9c0-1.2,0.2-2.3,0.6-3.4c0.2-0.5,0.4-1,0.7-1.5   c0.3-0.5,0.6-0.9,1-1.3c0.4-0.4,0.8-0.7,1.2-1c0.5-0.3,0.9-0.5,1.5-0.7C136.9,81.6,138.2,81.4,139.5,81.4L139.5,81.4z"/>
	<path class="st0" d="M162.4,81.4c1.3,0,2.6,0.2,3.8,0.6c1,0.3,1.9,0.9,2.7,1.6c0.7,0.7,1.3,1.6,1.6,2.6c0.4,1.1,0.6,2.2,0.6,3.4   V100c0,0.3-0.1,0.5-0.2,0.7c-0.1,0.2-0.3,0.4-0.5,0.6c-0.5,0.4-1,0.6-1.6,0.6c-0.6,0-1.2-0.2-1.6-0.6c-0.4-0.3-0.6-0.8-0.6-1.3   V89.9c0-0.6,0-1.2-0.2-1.7c-0.2-0.6-0.5-1-0.9-1.5c-0.4-0.3-0.9-0.6-1.4-0.8c-0.5-0.2-1-0.3-1.6-0.2c-0.5,0-1.1,0.1-1.6,0.2   c-0.5,0.2-1,0.4-1.4,0.8c-0.4,0.4-0.7,0.9-0.9,1.5c-0.2,0.6-0.3,1.1-0.2,1.7V100c0,0.5-0.2,0.9-0.6,1.3c-0.5,0.4-1,0.6-1.6,0.6   c-0.6,0-1.2-0.2-1.7-0.6c-0.2-0.2-0.4-0.3-0.5-0.6c-0.1-0.2-0.2-0.5-0.2-0.7v-9.9c0-1.2,0.2-2.3,0.6-3.4c0.2-0.5,0.4-1,0.7-1.5   c0.3-0.5,0.6-0.9,1-1.3c0.4-0.4,0.8-0.7,1.2-1c0.5-0.3,0.9-0.5,1.4-0.7C159.8,81.6,161.1,81.4,162.4,81.4L162.4,81.4z"/>
	<path class="st0" d="M184.4,85.3c-0.5,0-1,0.1-1.5,0.2c-0.5,0.2-0.9,0.5-1.3,0.8c-0.7,0.8-1.1,1.8-1.2,3h8v-0.6   c0-0.5-0.1-1-0.3-1.4c-0.2-0.4-0.5-0.8-0.9-1.1c-0.4-0.3-0.9-0.6-1.4-0.7C185.5,85.3,185,85.3,184.4,85.3L184.4,85.3z M192.8,89.4   c0,0.5,0,0.9-0.1,1.4c-0.1,0.4-0.3,0.9-0.6,1.2c-0.3,0.3-0.7,0.5-1.1,0.6c-0.4,0.1-0.8,0.2-1.3,0.1h-9.3v1c0,0.6,0.1,1.1,0.3,1.6   c0.2,0.5,0.5,1,0.9,1.4c0.4,0.4,1,0.7,1.5,0.9c0.6,0.2,1.2,0.3,1.8,0.2c0.7,0,1.3,0,1.9-0.1c0.5-0.1,0.9-0.2,1.4-0.4l1.1-0.6   c0.3-0.2,0.6-0.3,0.9-0.3c0.5,0,0.9,0.1,1.2,0.5c0.3,0.3,0.5,0.8,0.5,1.2c0,0.5-0.2,0.9-0.5,1.3c-0.4,0.5-0.9,0.8-1.5,1.1   c-0.7,0.4-1.4,0.6-2.2,0.8c-0.9,0.2-1.8,0.3-2.7,0.3c-1.3,0-2.5-0.2-3.6-0.6c-1-0.4-2-0.9-2.8-1.6c-0.8-0.7-1.4-1.5-1.9-2.5   c-0.4-1-0.7-2-0.7-3v-4.2c0-1.1,0.2-2.2,0.6-3.2c0.4-1,1-1.9,1.8-2.7c0.8-0.8,1.7-1.4,2.7-1.8c1.1-0.5,2.3-0.7,3.4-0.7   c1.3,0,2.6,0.2,3.8,0.7c1,0.4,1.8,1,2.5,1.8c0.7,0.8,1.2,1.7,1.5,2.7C192.6,87.5,192.8,88.5,192.8,89.4L192.8,89.4z"/>
	<path class="st0" d="M198,76.7c0-0.3,0.1-0.5,0.2-0.7c0.1-0.2,0.3-0.4,0.5-0.6c0.5-0.4,1.1-0.6,1.7-0.6c0.6,0,1.2,0.2,1.6,0.6   c0.4,0.3,0.6,0.8,0.6,1.3V100c0,0.5-0.2,0.9-0.6,1.3c-0.5,0.4-1,0.6-1.6,0.6c-0.6,0-1.2-0.2-1.7-0.6c-0.2-0.2-0.4-0.3-0.5-0.6   c-0.1-0.2-0.2-0.5-0.2-0.7V76.7z"/>
	<path class="st0" d="M207.9,99c-0.1-0.2-0.1-0.4-0.2-0.6c0-0.2,0-0.5,0.1-0.7c0.1-0.2,0.2-0.5,0.3-0.7c0.2-0.2,0.4-0.4,0.6-0.5   c0.3-0.1,0.6-0.2,1-0.2c0.3,0,0.5,0,0.7,0.1c0.2,0.1,0.4,0.2,0.6,0.4l0.6,0.4c1.1,0.7,2.3,0.9,3.6,0.8c0.7,0,1.4-0.1,2-0.6   c0.1-0.1,0.2-0.2,0.3-0.3c0.1-0.1,0.2-0.2,0.2-0.3c0.1-0.1,0.1-0.3,0.2-0.4c0-0.1,0.1-0.3,0.1-0.4c0-0.1,0-0.3,0-0.4   c0-0.1-0.1-0.3-0.1-0.4c-0.1-0.1-0.1-0.2-0.2-0.4c-0.1-0.1-0.2-0.2-0.3-0.3c-0.5-0.4-1.1-0.7-1.8-0.9c-0.7-0.2-1.5-0.5-2.3-0.7   c-0.8-0.2-1.6-0.6-2.3-1c-0.7-0.4-1.3-1-1.8-1.6c-0.5-0.8-0.8-1.8-0.7-2.7c0-0.8,0.1-1.7,0.5-2.4c0.3-0.8,0.8-1.4,1.5-2   c0.7-0.6,1.6-1.1,2.5-1.4c0.9-0.3,1.9-0.4,2.8-0.4c0.9,0,1.7,0.1,2.6,0.3c0.6,0.1,1.2,0.3,1.8,0.6c0.4,0.2,0.8,0.4,1.1,0.8   c0.2,0.2,0.4,0.5,0.6,0.8c0.2,0.4,0.3,0.9,0.2,1.3c0,0.2-0.1,0.4-0.2,0.6c-0.1,0.2-0.3,0.4-0.4,0.5c-0.4,0.3-0.9,0.4-1.4,0.3   c-0.4-0.1-0.8-0.3-1.2-0.5c-0.2-0.1-0.5-0.3-1-0.5c-0.7-0.2-1.4-0.3-2.1-0.3c-0.7-0.1-1.3,0.2-1.9,0.6c-0.2,0.2-0.4,0.4-0.5,0.7   c-0.1,0.3-0.2,0.5-0.2,0.8c0,0.2,0.1,0.5,0.2,0.7c0.1,0.2,0.3,0.4,0.5,0.5c0.5,0.3,1.1,0.6,1.7,0.7l2.3,0.7   c0.8,0.2,1.6,0.6,2.3,1.1c0.4,0.3,0.7,0.6,1.1,0.9c0.3,0.3,0.6,0.7,0.8,1.1c0.2,0.4,0.4,0.9,0.5,1.3c0.1,0.5,0.1,0.9,0.1,1.4   c0,0.8-0.1,1.6-0.5,2.4c-0.3,0.8-0.8,1.4-1.5,2c-0.7,0.6-1.6,1-2.5,1.3c-0.9,0.3-1.8,0.4-2.8,0.4c-0.8,0-1.6-0.1-2.4-0.2   c-0.7-0.1-1.4-0.3-2.1-0.6c-0.6-0.2-1.1-0.5-1.6-0.9C208.5,99.9,208.2,99.5,207.9,99L207.9,99z"/>
</g>
</svg>