<?xml version="1.0" encoding="utf-8"?>
<!-- Generator: Adobe Illustrator 27.0.0, SVG Export Plug-In . SVG Version: 6.00 Build 0)  -->
<svg version="1.1" id="Layer_1" xmlns="http://www.w3.org/2000/svg" xmlns:xlink="http://www.w3.org/1999/xlink" x="0px" y="0px"
	 viewBox="0 0 40 40" style="enable-background:new 0 0 40 40;" xml:space="preserve">
<style type="text/css">
	.st0{fill:none;stroke:#94A5D5;stroke-width:1.5;stroke-miterlimit:10;}
	.st1{fill:#94A5D5;}
</style>
<path id="XMLID_2101_" class="st0" d="M20,39L20,39C9.5,39,1,30.5,1,20v0C1,9.5,9.5,1,20,1h0c10.5,0,19,8.5,19,19v0
	C39,30.5,30.5,39,20,39z"/>
<g id="XMLID_2095_">
	<g id="XMLID_2097_">
		<rect id="XMLID_2100_" x="11.4" y="15.8" class="st1" width="3.9" height="12.7"/>
		<path id="XMLID_2098_" class="st1" d="M13.3,14.1c1.3,0,2.3-1.1,2.3-2.3s-1-2.3-2.3-2.3c-1.3,0-2.3,1.1-2.3,2.3S12,14.1,13.3,14.1
			z"/>
	</g>
	<path id="XMLID_2096_" class="st1" d="M21.6,21.8c0-1.8,0.8-2.9,2.4-2.9c1.4,0,2.1,1,2.1,2.9c0,1.8,0,6.7,0,6.7h3.9
		c0,0,0-4.6,0-8.1c0-3.4-1.9-5.1-4.6-5.1c-2.7,0-3.8,2.1-3.8,2.1v-1.7h-3.8v12.7h3.8C21.6,28.5,21.6,23.8,21.6,21.8z"/>
</g>
</svg>
