<?xml version="1.0" encoding="utf-8"?>
<!-- Generator: Adobe Illustrator 27.0.0, SVG Export Plug-In . SVG Version: 6.00 Build 0)  -->
<svg version="1.1" id="Layer_1" xmlns="http://www.w3.org/2000/svg" xmlns:xlink="http://www.w3.org/1999/xlink" x="0px" y="0px"
	 viewBox="0 0 49.3 47.3" style="enable-background:new 0 0 49.3 47.3;" xml:space="preserve">
<style type="text/css">
	.st0{opacity:0.24;enable-background:new    ;}
	.st1{fill:#FFFFFF;}
	.st2{fill:#FF9C6A;}
	.st3{fill:#FFC19D;}
	.st4{fill:#FF735D;}
	.st5{opacity:0.3;}
	.st6{fill:#1A2E35;}
	.st7{fill:#375A64;}
	.st8{fill:#41566B;}
</style>
<ellipse class="st0" cx="25.2" cy="43.9" rx="22.5" ry="0.9"/>
<g>
	<path class="st1" d="M39.9,43.6H9.6c-3.7,0-6.7-3-6.7-6.7V9.7C2.9,6,5.9,3,9.6,3h30.3c3.7,0,6.7,3,6.7,6.7v27.2
		C46.6,40.5,43.6,43.6,39.9,43.6z"/>
	<g>
		<g>
			<g>
				<path class="st2" d="M12.2,27c-0.2-0.1-0.7-0.4-0.9-0.5s-0.5-0.1-0.8-0.1c-0.2,0.1-0.3,0.2-0.3,0.3l1,0.7l1-0.3V27z"/>
			</g>
			<g>
				<path class="st3" d="M11.1,27c0,0-1.8-0.4-2.1-0.5c-0.3-0.2-1.9-0.9-2.1-0.9c-0.3,0-0.5,0.1-0.5,0.3l0.3,0.3l0,0.1l0.6,0.3
					l0.1,0.2l1.5,0.8c0,0,1.6,0.8,1.8,0.8c0.3,0,1.6,0.2,2.1,0.6l2.3-0.9c0,0-0.7-0.9-1.2-1.2c-0.4-0.2-1.2-0.2-1.7,0L11.1,27z"/>
			</g>
			<g>
				<path class="st3" d="M12.6,28.5c0,0,2.9,6.2,3.3,7.5c0,0,3.2-0.5,3.3-2.3l-4.1-5.6L12.6,28.5z"/>
			</g>
			<g>
				<g>
					<path class="st2" d="M9.9,27.1C9.9,27.1,9.9,27.1,9.9,27.1c-0.1,0-0.1,0-0.1,0c-0.1,0-0.2-0.1-0.3-0.1
						c-0.1-0.1-0.3-0.1-0.4-0.2c-0.1,0-0.2-0.1-0.2-0.1c-0.1,0-0.2-0.1-0.3-0.1c-0.2-0.1-0.4-0.2-0.5-0.2c-0.2,0-0.3-0.1-0.5,0
						c-0.1,0-0.2,0.1-0.2,0.2c0,0.1,0,0.1,0,0.1c0,0,0,0,0,0c0,0,0,0,0-0.1c0,0,0-0.1,0.1-0.1c0,0,0.1-0.1,0.1-0.1
						c0.1,0,0.1,0,0.2,0c0.1,0,0.2,0,0.3,0c0.2,0,0.4,0.1,0.6,0.2c0.1,0,0.2,0.1,0.3,0.1c0.1,0,0.2,0.1,0.2,0.1
						c0.2,0.1,0.3,0.2,0.4,0.2c0.1,0.1,0.2,0.1,0.3,0.1C9.9,27.1,9.9,27.1,9.9,27.1z"/>
				</g>
			</g>
			<g>
				<g>
					<path class="st2" d="M8.2,26.2c0,0-0.1,0-0.3-0.1c-0.2-0.1-0.4-0.2-0.6-0.2c-0.1,0-0.2,0-0.3,0c-0.1,0-0.2,0.1-0.2,0.1
						c0,0.1-0.1,0.1-0.1,0.2c0,0,0,0.1,0,0.1c0,0,0,0,0-0.1c0,0,0-0.1,0.1-0.2c0,0,0.1-0.1,0.1-0.1c0,0,0.1,0,0.2,0
						c0.1,0,0.2,0,0.4,0c0.2,0.1,0.5,0.2,0.6,0.3C8.1,26.2,8.2,26.2,8.2,26.2z"/>
				</g>
			</g>
			<g>
				<g>
					<path class="st2" d="M12.7,26.8C12.7,26.8,12.7,26.8,12.7,26.8c-0.1,0.1-0.2,0.1-0.3,0.1c-0.2,0-0.4,0.1-0.7,0.1
						c-0.3,0-0.5,0-0.7,0c-0.1,0-0.2,0-0.2,0c0,0-0.1,0-0.1,0c0,0,0.1,0,0.3,0c0.2,0,0.4,0,0.7,0c0.3,0,0.5-0.1,0.7-0.1
						C12.6,26.8,12.7,26.8,12.7,26.8z"/>
				</g>
			</g>
		</g>
		<g>
			<g>
				<path class="st4" d="M39.4,23.1l-4.2-0.9l-1-0.8l-5.5,1.1c-0.1,0.2-1,1.4-1,1.4l-2.2,0.7c-0.9,0.2-1.8,0.8-2.4,1.5
					c-0.5,0.6-1,1.3-1.4,2.4c-1,2.3-2.4,4.9-2.4,4.9L18.5,32l-3.7,1.8c0,0,2.2,4.4,2.9,5c0.8,0.7,2.6,0.8,3.9-0.5
					c0.8-0.8,3-3.9,3.5-4.7l0.7,3.2l0.6,3.7l-1,2.5h14.9l-0.6-2.4c0,0,0.6-6.3,0.8-7.4C40.8,30.5,39.4,23.1,39.4,23.1z"/>
			</g>
			<g>
				<path class="st4" d="M39.4,23.1c0,0,3,0.8,3.6,3.8c0.4,1.8,1.7,6.9,2.2,11.1c0.3,2.5-0.1,3.1-0.1,3.3l-4.2,2.3L39,23.9
					L39.4,23.1z"/>
			</g>
			<g>
				<g>
					<path d="M31.7,25.6C31.7,25.6,31.7,25.6,31.7,25.6c0,0.1,0,0.1-0.1,0.1c0,0.1-0.1,0.2-0.2,0.3c-0.1,0.3-0.3,0.7-0.5,1.2l0,0
						l0,0c-0.3-0.3-0.6-0.6-1-0.9c-0.6-0.6-1.2-1.2-1.6-1.6c-0.2-0.2-0.4-0.4-0.5-0.5c-0.1-0.1-0.1-0.1-0.1-0.1c0,0,0,0,0,0
						c0,0,0,0,0,0c0,0,0.1,0.1,0.1,0.1c0.1,0.1,0.3,0.3,0.5,0.5c0.4,0.4,0.9,1,1.6,1.6c0.3,0.3,0.7,0.7,1,0.9l0,0
						c0.3-0.5,0.4-0.9,0.6-1.2c0.1-0.1,0.1-0.3,0.2-0.3C31.7,25.7,31.7,25.7,31.7,25.6C31.7,25.6,31.7,25.6,31.7,25.6z"/>
				</g>
			</g>
			<g>
				<g>
					<path d="M35.3,22.3C35.3,22.3,35.3,22.4,35.3,22.3c0,0.1,0,0.2,0,0.3c0,0.2-0.1,0.4-0.2,0.7c-0.2,0.6-0.4,1.3-0.7,2.2
						c-0.2,0.4-0.3,0.9-0.5,1.2l0,0l0,0c-0.4-0.4-0.8-0.7-1.1-0.9c-0.1-0.1-0.2-0.2-0.3-0.3c0,0-0.1-0.1-0.1-0.1c0,0,0,0,0,0
						c0,0,0,0,0,0c0,0,0,0,0.1,0.1c0.1,0.1,0.2,0.1,0.3,0.2c0.3,0.2,0.6,0.5,1.1,0.9l0,0c0.2-0.4,0.3-0.8,0.5-1.2
						c0.3-0.8,0.6-1.6,0.8-2.2c0.1-0.3,0.1-0.5,0.2-0.7C35.2,22.5,35.2,22.4,35.3,22.3C35.3,22.4,35.3,22.3,35.3,22.3z"/>
				</g>
			</g>
			<g>
				<g>
					<path d="M25.6,36.4C25.6,36.4,25.6,36.4,25.6,36.4C25.6,36.4,25.6,36.4,25.6,36.4c0-0.1-0.1-0.2-0.1-0.3c0-0.1-0.1-0.2-0.1-0.4
						c0-0.2-0.1-0.3-0.1-0.5c-0.2-0.8-0.3-1.9-0.4-3.1c-0.1-1.2-0.1-2.3-0.1-3.1c0-0.4,0-0.7,0-0.9c0-0.1,0-0.2,0-0.3c0,0,0,0,0-0.1
						c0,0,0,0,0,0c0,0,0,0,0,0c0,0,0,0,0,0.1c0,0.1,0,0.1,0,0.3c0,0.2,0,0.5,0,0.9c0,0.8,0,1.9,0.1,3.1c0.1,1.2,0.3,2.3,0.4,3.1
						c0,0.2,0.1,0.4,0.1,0.5c0,0.2,0.1,0.3,0.1,0.4C25.6,36.2,25.6,36.3,25.6,36.4C25.6,36.4,25.6,36.4,25.6,36.4
						C25.6,36.4,25.6,36.4,25.6,36.4z"/>
				</g>
			</g>
			<g>
				<g>
					<path d="M39.6,26.4C39.6,26.4,39.6,26.4,39.6,26.4c0,0,0,0.1,0,0.1c0,0.1,0.1,0.2,0.1,0.3c0,0.1,0.1,0.1,0.1,0.2
						c0,0.1,0.1,0.2,0.1,0.3c0,0.1,0.1,0.2,0.1,0.3c0,0.1,0.1,0.2,0.1,0.3c0.3,1,0.4,2.4,0.3,3.9c-0.1,1.5-0.3,2.9-0.4,3.9
						c-0.1,0.5-0.1,0.9-0.1,1.2c0,0.1,0,0.2,0,0.3c0,0,0,0.1,0,0.1c0,0,0,0,0,0c0,0,0,0,0,0c0,0,0,0,0-0.1c0-0.1,0-0.2,0-0.3
						c0-0.3,0.1-0.7,0.1-1.2c0.1-1,0.3-2.4,0.4-3.9c0.1-1.5-0.1-2.9-0.3-3.9c0-0.1-0.1-0.2-0.1-0.3c0-0.1-0.1-0.2-0.1-0.3
						c0-0.1-0.1-0.2-0.1-0.3c0-0.1-0.1-0.2-0.1-0.2c0-0.1-0.1-0.2-0.1-0.3C39.6,26.5,39.6,26.4,39.6,26.4
						C39.6,26.4,39.6,26.4,39.6,26.4z"/>
				</g>
			</g>
			<g>
				<g>
					<path d="M19.4,36.6c0,0,0-0.7,0-1.6c0-0.9,0-1.6,0-1.6c0,0,0,0.7,0,1.6C19.4,35.9,19.4,36.6,19.4,36.6z"/>
				</g>
			</g>
			<g>
				<g>
					<path d="M32.9,41C32.9,41,32.9,41,32.9,41c0-0.1,0-0.1,0-0.2c0-0.1,0-0.3,0.1-0.4c0-0.1,0-0.2,0-0.3c0-0.1,0-0.2,0-0.4
						c0-0.3,0.1-0.6,0.1-0.9c0-0.2,0-0.4,0-0.5c0-0.2,0-0.4,0-0.6c0-0.4,0-0.8,0.1-1.3c0-0.9,0-1.9,0-3c-0.1-1-0.1-2-0.2-2.9
						c-0.1-0.5-0.1-0.9-0.2-1.3c0-0.2-0.1-0.4-0.1-0.6c0-0.2-0.1-0.4-0.1-0.5c-0.1-0.3-0.1-0.6-0.2-0.9c0-0.1-0.1-0.3-0.1-0.4
						c0-0.1,0-0.2-0.1-0.3c0-0.2-0.1-0.3-0.1-0.4c0,0,0-0.1,0-0.1c0,0,0,0,0,0c0,0,0,0,0,0c0,0,0,0.1,0,0.1c0,0.1,0.1,0.2,0.1,0.4
						c0,0.1,0,0.2,0.1,0.3c0,0.1,0.1,0.2,0.1,0.4c0.1,0.3,0.1,0.6,0.2,0.9c0,0.2,0.1,0.3,0.1,0.5c0,0.2,0.1,0.4,0.1,0.6
						c0.1,0.4,0.1,0.8,0.2,1.3c0.1,0.9,0.2,1.9,0.3,3c0,1,0,2.1,0,3c0,0.5,0,0.9-0.1,1.3c0,0.2,0,0.4,0,0.6c0,0.2,0,0.4,0,0.5
						c0,0.3-0.1,0.7-0.1,0.9c0,0.1,0,0.3,0,0.4c0,0.1,0,0.2,0,0.3c0,0.2,0,0.3-0.1,0.4C33,40.9,32.9,40.9,32.9,41
						C32.9,41,32.9,41,32.9,41z"/>
				</g>
			</g>
			<g>
				<g>
					<path d="M34.9,30.8C34.9,30.8,34.9,30.8,34.9,30.8C35,30.8,35,30.8,34.9,30.8c0.1,0,0.2,0,0.3,0c0.2,0,0.5-0.1,0.9-0.1
						c0.8-0.1,1.8-0.2,3.1-0.3l0,0l0,0c0,0.9,0.1,2,0.1,3.2l0,0l0,0c-0.1,0.1-0.2,0.3-0.4,0.4c-0.5,0.5-0.9,1-1.4,1.5l0,0l0,0
						c-0.8-0.4-1.6-0.8-2.3-1.1l0,0l0,0c-0.1-1-0.2-1.9-0.2-2.5c0-0.3,0-0.5-0.1-0.7C34.9,31,34.9,31,34.9,30.8
						C34.9,30.9,34.9,30.8,34.9,30.8S34.9,30.9,34.9,30.8c0,0.1,0,0.2,0,0.2c0,0.2,0,0.4,0.1,0.7c0.1,0.6,0.2,1.5,0.3,2.5l0,0
						c0.7,0.3,1.5,0.7,2.3,1.1l0,0c0.4-0.5,0.9-1,1.4-1.5c0.1-0.1,0.3-0.3,0.4-0.4l0,0c0-1.1-0.1-2.2-0.1-3.2l0,0
						c-1.3,0.1-2.4,0.2-3.1,0.3c-0.4,0-0.7,0.1-0.9,0.1C35.1,30.8,35.1,30.8,34.9,30.8C35,30.8,35,30.8,34.9,30.8
						C34.9,30.8,34.9,30.8,34.9,30.8z"/>
				</g>
			</g>
			<g>
				<g>
					<path d="M39.3,31.5c0,0-0.1,0-0.2,0c-0.1,0-0.3,0-0.4,0.1c-0.4,0-0.9,0.1-1.5,0.2c-0.6,0.1-1.1,0.1-1.5,0.1c-0.2,0-0.3,0-0.4,0
						c-0.1,0-0.2,0-0.2,0c0,0,0.1,0,0.2,0c0.1,0,0.3,0,0.4-0.1c0.4,0,0.9-0.1,1.5-0.2c0.6-0.1,1.1-0.1,1.5-0.1c0.2,0,0.3,0,0.4,0
						C39.2,31.5,39.3,31.5,39.3,31.5z"/>
				</g>
			</g>
			<g class="st5">
				<g>
					<path d="M40.2,35.2c0.1,0.6,0.1,1.3,0.2,1.9c0.3-1.6,0.9-3.4,0.8-5.1c-0.1-1.7-0.2-3.3-1.2-4.8c0,0,0.6,1.6,0.6,3.6
						C40.4,32.8,40.2,35.2,40.2,35.2z"/>
				</g>
			</g>
			<g>
				<path class="st4" d="M18.8,31.6c-0.1-0.1-0.1-0.2-0.3-0.3c-0.1,0-0.3,0-0.4,0.1c-1.1,0.6-2.3,1.1-3.4,1.7
					c-0.2,0.1-0.5,0.2-0.6,0.5c-0.1,0.3,0.1,0.6,0.3,0.9c0.3,0.4,0.7,0.9,1.2,1l2.9-2c0.4-0.1,0.6-0.5,0.6-0.8S19,31.9,18.8,31.6z"
					/>
			</g>
			<g>
				<g>
					<path d="M19.1,32.9C19.2,32.9,19.1,32.9,19.1,32.9c-0.1,0.1-0.1,0.1-0.1,0.1c-0.1,0.1-0.2,0.2-0.3,0.3
						c-0.3,0.3-0.7,0.6-1.2,0.9c-0.5,0.3-1,0.6-1.3,0.8c-0.2,0.1-0.3,0.2-0.4,0.2c0,0-0.1,0-0.1,0.1c0,0,0,0,0,0c0,0,0,0,0,0
						c0,0,0.1,0,0.1-0.1c0.1-0.1,0.2-0.1,0.4-0.2c0.3-0.2,0.8-0.5,1.3-0.8c0.5-0.3,0.9-0.7,1.2-0.9c0.1-0.1,0.3-0.2,0.4-0.3
						C19.1,32.9,19.1,32.9,19.1,32.9C19.1,32.9,19.1,32.9,19.1,32.9z"/>
				</g>
			</g>
			<g class="st5">
				<g>
					<path d="M35.2,22.5c-0.4,1.3-1,2.8-1.4,4.1c-0.4-0.3-1-0.8-1.4-1.1c0.3,0.7,0.8,1.3,1.2,1.9c0.1,0.1,0.1,0.1,0.2,0.1
						c0.1,0,0.1-0.1,0.2-0.2c0.2-0.7,0.5-1.3,0.7-2C35.1,24.6,35.5,23.5,35.2,22.5z"/>
				</g>
			</g>
		</g>
		<g>
			<g>
				<g>
					<g>
						<g>
							<path class="st6" d="M28.9,8.1c1.2-0.4,2.4,0,3.5,0.6c1.1,0.6,2,1.5,2.6,2.7c0.6,1.2,0.9,2.6,0.7,3.9c-0.2,1.3-1,2.6-2.1,3.3
								c-1.5,1-3.6,0.9-5.2,0c-1.6-0.9-2.6-2.6-2.9-4.4c-0.2-1.2,0-2.5,0.5-3.7C26.7,9.3,27.7,8.4,28.9,8.1"/>
						</g>
					</g>
				</g>
				<g>
					<g>
						<g>
							<g>
								<g>
									<path class="st6" d="M32.9,11.9c-0.2-0.5-0.2-1-0.4-1.5c-0.3-1.1-1.3-1.9-2.4-2.2c-1-0.3-2.2-0.1-3.3,0.4
										C26.1,9,25.4,9.5,25,10.2c-0.6,0.9-0.7,2.2-0.3,3.2l5.6-1.5c0.6,0.4,1.2,0.8,1.8,0.9c0.2,0.1,0.4,0.1,0.6,0
										c0.2-0.1,0.4-0.2,0.4-0.4C33.1,12.3,33,12.1,32.9,11.9z"/>
								</g>
							</g>
						</g>
					</g>
					<g>
						<g>
							<g>
								<g>
									<path class="st3" d="M34.2,21.8l-1.4-10.1c-0.1-0.5-0.3-1-0.8-0.9L27,10.2c-1.6,0.1-2.3,2.2-2.2,3.7
										c0.2,1.8,0.4,3.9,0.8,5.2c0.8,2.5,2.9,2.6,2.9,2.6c0,0,0.1,0.5,0.3,1.5l3.3,2.2L34.2,21.8z"/>
								</g>
							</g>
						</g>
					</g>
					<g>
						<g>
							<g>
								<g>
									<g>
										<g>
											<g>
												<g>
													<g>
														<g>
															<g>
																<g>
																	<g>
																		<g>
																			<g>
																				<g>
																					<g>
																						<g>
																							<g>
																								<g>
																									<path class="st6" d="M26,15.9c0,0.2,0.2,0.3,0.4,0.3c0.2,0,0.3-0.2,0.3-0.4c0-0.2-0.2-0.3-0.4-0.3
																										C26.1,15.6,26,15.7,26,15.9z"/>
																								</g>
																							</g>
																						</g>
																					</g>
																				</g>
																			</g>
																		</g>
																	</g>
																</g>
															</g>
														</g>
													</g>
												</g>
											</g>
										</g>
									</g>
								</g>
								<g>
									<g>
										<g>
											<g>
												<g>
													<g>
														<g>
															<g>
																<g>
																	<g>
																		<g>
																			<g>
																				<g>
																					<g>
																						<g>
																							<g>
																								<g>
																									<g>
																										<path class="st6" d="M25.4,15c0,0,0.3-0.2,0.6-0.2c0.4-0.1,0.7,0.1,0.7,0c0,0,0-0.1-0.2-0.2
																											c-0.1-0.1-0.3-0.1-0.6-0.1c-0.2,0-0.4,0.1-0.5,0.2C25.4,14.9,25.4,15,25.4,15z"/>
																									</g>
																								</g>
																							</g>
																						</g>
																					</g>
																				</g>
																			</g>
																		</g>
																	</g>
																</g>
															</g>
														</g>
													</g>
												</g>
											</g>
										</g>
									</g>
								</g>
							</g>
							<g>
								<g>
									<g>
										<g>
											<g>
												<g>
													<g>
														<g>
															<g>
																<g>
																	<g>
																		<g>
																			<g>
																				<g>
																					<g>
																						<g>
																							<g>
																								<g>
																									<path class="st6" d="M29.3,15.3c0,0.2,0.2,0.3,0.4,0.3c0.2,0,0.3-0.2,0.3-0.4c0-0.2-0.2-0.3-0.4-0.3
																										C29.4,15,29.3,15.2,29.3,15.3z"/>
																								</g>
																							</g>
																						</g>
																					</g>
																				</g>
																			</g>
																		</g>
																	</g>
																</g>
															</g>
														</g>
													</g>
												</g>
											</g>
										</g>
									</g>
								</g>
								<g>
									<g>
										<g>
											<g>
												<g>
													<g>
														<g>
															<g>
																<g>
																	<g>
																		<g>
																			<g>
																				<g>
																					<g>
																						<g>
																							<g>
																								<g>
																									<g>
																										<path class="st6" d="M28.8,14.5c0,0,0.3-0.2,0.6-0.2c0.4-0.1,0.7,0.1,0.7,0c0,0,0-0.1-0.2-0.2
																											c-0.1-0.1-0.3-0.1-0.6-0.1c-0.2,0-0.4,0.1-0.5,0.2C28.8,14.4,28.8,14.5,28.8,14.5z"/>
																									</g>
																								</g>
																							</g>
																						</g>
																					</g>
																				</g>
																			</g>
																		</g>
																	</g>
																</g>
															</g>
														</g>
													</g>
												</g>
											</g>
										</g>
									</g>
								</g>
							</g>
							<g>
								<g>
									<g>
										<g>
											<g>
												<g>
													<g>
														<g>
															<g>
																<g>
																	<g>
																		<g>
																			<g>
																				<g>
																					<g>
																						<g>
																							<g>
																								<g>
																									<path class="st6" d="M28.1,17.4c0,0-0.2,0-0.6,0c-0.1,0-0.2,0-0.2-0.1c0-0.1,0-0.2,0-0.3
																										c0.1-0.2,0.1-0.5,0.2-0.7c0.2-1.1,0.4-1.9,0.3-1.9c0,0-0.3,0.8-0.5,1.9c-0.1,0.3-0.1,0.5-0.2,0.7
																										c0,0.1-0.1,0.2,0,0.4c0,0.1,0.1,0.1,0.2,0.1c0.1,0,0.1,0,0.2,0C27.8,17.5,28.1,17.4,28.1,17.4z"/>
																								</g>
																							</g>
																						</g>
																					</g>
																				</g>
																			</g>
																		</g>
																	</g>
																</g>
															</g>
														</g>
													</g>
												</g>
											</g>
										</g>
									</g>
								</g>
							</g>
							<g>
								<g>
									<g>
										<g>
											<g>
												<g>
													<g>
														<g>
															<g>
																<g>
																	<g>
																		<g>
																			<g>
																				<g>
																					<g>
																						<g>
																							<g>
																								<path class="st2" d="M28.5,21.7c0,0,1.8-0.2,3.4-1.5c0,0-0.8,2-3.2,2.3L28.5,21.7z"/>
																							</g>
																						</g>
																					</g>
																				</g>
																			</g>
																		</g>
																	</g>
																</g>
															</g>
														</g>
													</g>
												</g>
											</g>
										</g>
									</g>
								</g>
							</g>
							<g>
								<g>
									<g>
										<g>
											<g>
												<g>
													<g>
														<g>
															<g>
																<g>
																	<g>
																		<g>
																			<g>
																				<g>
																					<g>
																						<g>
																							<g>
																								<path class="st2" d="M28.3,18.2c0.1-0.2,0.3-0.3,0.5-0.3c0.2,0,0.3,0,0.4,0.2c0.1,0.1,0.2,0.3,0.1,0.4
																									c-0.1,0.2-0.3,0.2-0.5,0.2c-0.2,0-0.3-0.1-0.5-0.2c0,0-0.1-0.1-0.1-0.1C28.3,18.4,28.3,18.3,28.3,18.2"/>
																							</g>
																						</g>
																					</g>
																				</g>
																			</g>
																		</g>
																	</g>
																</g>
															</g>
														</g>
													</g>
												</g>
											</g>
										</g>
									</g>
								</g>
							</g>
							<g>
								<g>
									<g>
										<g>
											<g>
												<g>
													<g>
														<g>
															<g>
																<g>
																	<g>
																		<g>
																			<g>
																				<g>
																					<g>
																						<g>
																							<g>
																								<g>
																									<path class="st6" d="M29.1,17.5c-0.1,0,0,0.4-0.3,0.7c-0.3,0.3-0.7,0.3-0.7,0.4c0,0,0.1,0.1,0.3,0
																										c0.2,0,0.4-0.1,0.6-0.3c0.2-0.2,0.2-0.4,0.2-0.6C29.2,17.6,29.2,17.5,29.1,17.5z"/>
																								</g>
																							</g>
																						</g>
																					</g>
																				</g>
																			</g>
																		</g>
																	</g>
																</g>
															</g>
														</g>
													</g>
												</g>
											</g>
										</g>
									</g>
								</g>
							</g>
						</g>
					</g>
					<g>
						<g>
							<g>
								<g>
									<g>
										<g>
											<g>
												<g>
													<g>
														<g>
															<g>
																<g>
																	<g>
																		<g>
																			<g>
																				<g>
																					<path class="st6" d="M28.7,13.4c0.1,0.1,0.4,0,0.8,0c0.4,0,0.8,0,0.8,0c0,0-0.1-0.1-0.2-0.2
																						c-0.2-0.1-0.4-0.1-0.6-0.1c-0.3,0-0.5,0.1-0.6,0.2C28.8,13.3,28.7,13.4,28.7,13.4z"/>
																				</g>
																			</g>
																		</g>
																	</g>
																</g>
															</g>
														</g>
													</g>
												</g>
											</g>
										</g>
									</g>
								</g>
							</g>
						</g>
					</g>
					<g>
						<g>
							<g>
								<g>
									<g>
										<g>
											<g>
												<g>
													<g>
														<g>
															<g>
																<g>
																	<g>
																		<g>
																			<g>
																				<g>
																					<path class="st6" d="M25.3,13.4c0.1,0.1,0.3-0.1,0.6-0.1c0.3-0.1,0.6,0,0.6-0.1c0,0,0-0.1-0.2-0.2
																						c-0.1-0.1-0.3-0.1-0.5-0.1c-0.2,0-0.4,0.1-0.5,0.2C25.2,13.3,25.2,13.4,25.3,13.4z"/>
																				</g>
																			</g>
																		</g>
																	</g>
																</g>
															</g>
														</g>
													</g>
												</g>
											</g>
										</g>
									</g>
								</g>
							</g>
						</g>
					</g>
					<g>
						<g>
							<g>
								<g>
									<path class="st6" d="M33.7,11C33,9.6,30.6,7.8,29,8.1L26.7,10c0.3,0.8,1,1.5,1.9,1.6c0.5,0.1,1,0,1.3,0.4
										c0.3,0.4,0.2,0.9,0.5,1.3c0.4,0.5,1.4,0.4,1.7,0.9c0.2,0.2,0.1,0.6,0.3,0.8c0.2,0.3,1.2,0.7,1.5,0.5
										c0.4-0.2,0.3-0.8,0.3-1.1c0.1-0.6,0-0.9-0.1-1.2C33.9,12.5,34,11.7,33.7,11z"/>
								</g>
							</g>
						</g>
					</g>
					<g>
						<g>
							<g>
								<g>
									<g>
										<g>
											<g>
												<path class="st3" d="M32.9,16c0-0.2,0.1-0.7,0.3-0.7c0.5-0.2,1.4-0.3,1.6,1c0.3,1.8-1.6,1.7-1.6,1.6
													C33.3,17.9,33,16.7,32.9,16z"/>
											</g>
										</g>
									</g>
								</g>
							</g>
						</g>
					</g>
					<g>
						<g>
							<g>
								<g>
									<g>
										<g>
											<g>
												<g>
													<path class="st2" d="M33.7,17.2C33.7,17.2,33.8,17.2,33.7,17.2c0.1,0,0.2,0,0.3,0c0.2-0.1,0.3-0.4,0.2-0.7
														c0-0.2-0.1-0.3-0.2-0.4c-0.1-0.1-0.2-0.2-0.3-0.2c-0.1,0-0.2,0.1-0.2,0.1c0,0.1,0,0.1,0,0.1c0,0,0,0,0-0.1
														c0,0,0-0.1,0.1-0.1c0,0,0.1-0.1,0.2-0.1c0.1,0,0.3,0.1,0.4,0.2c0.1,0.1,0.2,0.3,0.2,0.5c0,0.4-0.1,0.7-0.3,0.8
														C34,17.3,33.9,17.3,33.7,17.2C33.7,17.2,33.7,17.2,33.7,17.2z"/>
												</g>
											</g>
										</g>
									</g>
								</g>
							</g>
						</g>
					</g>
				</g>
				<g>
					<g>
						<g>
							<path class="st6" d="M27.1,9.4c-0.1,0.7-1.1,1.8-1.5,2.4c-0.8,1.2-0.9,1.6-0.7,4c-0.5-0.8-1-1.6-1-2.5
								c-0.1-0.9,0.2-1.9,0.7-2.7C25.2,9.8,26.2,9.3,27.1,9.4"/>
						</g>
					</g>
				</g>
			</g>
			<g>
				<path class="st6" d="M31.4,6.8c0.4-0.4,0.9-0.7,1.5-0.8c0.8-0.2,1.7-0.1,2.4,0.2c0.7,0.3,1.3,1,1.4,1.8c0.2,0.8-0.1,1.6-0.8,2.1
					c0.4,0.4,0.9,0.7,1.5,0.9c-0.2,0.2-0.4,0.4-0.7,0.4c-0.3,0-0.6,0-0.9,0c0.2,0.3,0.5,0.5,0.8,0.6c-0.5,0.1-0.9,0.1-1.4,0
					c-0.5-0.1-0.9-0.3-1.3-0.6c-1.4-0.8-2.1-1.5-3.1-2.7C30.8,8,31,7.2,31.4,6.8z"/>
			</g>
			<g>
				<g>
					<path class="st6" d="M34.3,10.6c-1-1.5-2.3-2.3-3.4-2.5"/>
				</g>
				<g>
					<g>
						<path class="st7" d="M30.9,8.1c0,0,0.1,0,0.2,0c0.1,0,0.3,0.1,0.4,0.1c0.4,0.1,0.9,0.4,1.3,0.7c0.5,0.4,0.9,0.8,1.1,1.1
							c0.1,0.2,0.2,0.3,0.3,0.4c0.1,0.1,0.1,0.1,0.1,0.1c0,0,0-0.1-0.1-0.1c-0.1-0.1-0.2-0.2-0.3-0.4c-0.2-0.3-0.6-0.7-1.1-1.1
							c-0.5-0.4-1-0.6-1.4-0.7c-0.2-0.1-0.3-0.1-0.5-0.1C30.9,8.1,30.9,8.1,30.9,8.1z"/>
					</g>
				</g>
			</g>
			<g>
				<g>
					<path class="st7" d="M35.5,11.8C35.5,11.8,35.5,11.8,35.5,11.8C35.5,11.8,35.5,11.9,35.5,11.8c-0.1,0.1-0.2,0.1-0.3,0.1
						c-0.2,0.1-0.5,0.2-1,0.2c-0.4,0-0.9,0-1.5-0.1c-0.5-0.1-1.1-0.3-1.7-0.5c-0.6-0.2-1.1-0.5-1.6-0.7c-0.5-0.2-0.9-0.5-1.3-0.7
						c-0.3-0.2-0.6-0.5-0.8-0.6c-0.1-0.1-0.1-0.1-0.2-0.2c0,0,0,0,0,0c0,0,0,0,0,0c0,0,0,0,0,0c0,0,0,0,0,0.1c0,0,0.1,0.1,0.2,0.2
						c0.2,0.2,0.4,0.4,0.8,0.6c0.3,0.2,0.8,0.5,1.3,0.7c0.5,0.2,1.1,0.5,1.6,0.7c0.6,0.2,1.2,0.4,1.7,0.5c0.5,0.1,1.1,0.1,1.5,0.1
						c0.4,0,0.7-0.1,1-0.2C35.3,11.9,35.4,11.9,35.5,11.8C35.5,11.9,35.5,11.9,35.5,11.8C35.5,11.8,35.5,11.8,35.5,11.8z"/>
				</g>
			</g>
			<g>
				<g>
					<path class="st7" d="M30.2,20.7L30,20.3c0,0,1.2-0.6,1.6-1c1.1-0.9,2-2.3,2.1-2.3l0.3,0.2c0,0.1-1,1.5-2.1,2.4
						C31.4,20,30.3,20.6,30.2,20.7z"/>
				</g>
				<g>
					<path class="st6" d="M31.1,19.6c0,0-1.6,0.7-1.6,0.9c0,0.2,0.3,0.5,0.4,0.5c0.2,0,0.7-0.3,0.8-0.5c0.1-0.1,0.3-0.5,0.5-0.6
						L31.1,19.6z"/>
				</g>
				<g>
					<g>
						<path class="st7" d="M34,14.8l-0.4,0c0,0,0.1-1.6-0.6-3.2c-0.8-2.1-2.4-3.2-4.7-3.3c-0.2,0-0.4,0-0.6,0L28,8.1
							C28.1,8.1,28.2,8,28.3,8l0,0c0.1-0.1,0.3-0.1,0.4-0.1c2.9,0.2,4.2,2.1,4.7,3.6C34.1,13.1,34,14.7,34,14.8z"/>
					</g>
				</g>
				<g>
					<g>
						<ellipse class="st7" cx="33.9" cy="16.5" rx="1.2" ry="1.7"/>
					</g>
					<g>
						<g>
							<path class="st6" d="M35,16.5C35,16.5,35,16.5,35,16.5C35,16.5,35,16.4,35,16.5c0-0.2,0-0.2,0-0.4c0-0.2-0.1-0.6-0.4-0.9
								c-0.1-0.1-0.1-0.2-0.2-0.2c-0.1-0.1-0.2-0.1-0.3-0.2c-0.1,0-0.2-0.1-0.4,0c-0.1,0-0.2,0.1-0.4,0.1c-0.2,0.1-0.4,0.4-0.5,0.7
								c-0.1,0.3-0.2,0.6-0.2,0.9c0,0.3,0.1,0.6,0.2,0.9c0.1,0.3,0.3,0.5,0.5,0.7c0.1,0.1,0.2,0.1,0.4,0.1c0.1,0,0.3,0,0.4,0
								c0.1,0,0.2-0.1,0.3-0.2c0.1-0.1,0.2-0.1,0.2-0.2c0.2-0.3,0.3-0.7,0.4-0.9C35,16.7,35,16.7,35,16.5C35,16.6,35,16.5,35,16.5
								C35,16.5,35,16.5,35,16.5C35,16.5,35,16.5,35,16.5C35,16.5,35,16.6,35,16.5c0,0.2,0,0.2,0,0.4c0,0.2-0.1,0.6-0.4,0.9
								c-0.1,0.1-0.1,0.2-0.2,0.2c-0.1,0.1-0.2,0.1-0.3,0.2c-0.1,0-0.2,0.1-0.4,0c-0.1,0-0.3-0.1-0.4-0.1c-0.2-0.2-0.4-0.4-0.5-0.7
								c-0.1-0.3-0.2-0.6-0.2-0.9c0-0.3,0.1-0.6,0.2-0.9c0.1-0.3,0.3-0.5,0.5-0.7c0.1-0.1,0.2-0.1,0.4-0.1c0.1,0,0.3,0,0.4,0
								c0.1,0,0.2,0.1,0.3,0.2c0.1,0.1,0.2,0.2,0.2,0.2c0.3,0.3,0.3,0.7,0.4,0.9C35,16.3,35,16.3,35,16.5C35,16.4,35,16.5,35,16.5
								C35,16.5,35,16.5,35,16.5z"/>
						</g>
					</g>
				</g>
				<g>
					<g>
						<ellipse class="st7" cx="34" cy="16.4" rx="0.8" ry="1.1"/>
					</g>
					<g>
						<g>
							<path class="st6" d="M34.8,16.4c0,0,0-0.1,0-0.2c0-0.1-0.1-0.4-0.2-0.6c-0.1-0.1-0.2-0.2-0.3-0.2c-0.1,0-0.1,0-0.2,0
								c-0.1,0-0.2,0-0.2,0.1c-0.1,0.1-0.3,0.2-0.3,0.4c-0.1,0.2-0.1,0.4-0.1,0.6c0,0.2,0,0.4,0.1,0.6c0.1,0.2,0.2,0.3,0.3,0.4
								c0.1,0,0.1,0.1,0.2,0.1c0.1,0,0.2,0,0.2,0c0.1,0,0.3-0.1,0.3-0.2c0.2-0.2,0.2-0.4,0.2-0.6C34.8,16.5,34.8,16.4,34.8,16.4
								C34.8,16.4,34.8,16.4,34.8,16.4c0,0.1,0,0.2,0,0.2c0,0.1-0.1,0.4-0.2,0.6c-0.1,0.1-0.2,0.2-0.3,0.3c-0.1,0-0.2,0-0.2,0
								c-0.1,0-0.2,0-0.2-0.1c-0.2-0.1-0.3-0.3-0.3-0.4c-0.1-0.2-0.1-0.4-0.1-0.6c0-0.2,0-0.4,0.1-0.6c0.1-0.2,0.2-0.3,0.3-0.4
								c0.1,0,0.2-0.1,0.2-0.1c0.1,0,0.2,0,0.2,0c0.2,0.1,0.3,0.2,0.3,0.3c0.2,0.2,0.2,0.4,0.2,0.6C34.8,16.2,34.8,16.3,34.8,16.4
								C34.8,16.4,34.8,16.4,34.8,16.4z"/>
						</g>
					</g>
				</g>
				<g>
					<g>
						<ellipse class="st7" cx="34.1" cy="16.4" rx="0.5" ry="0.8"/>
					</g>
					<g>
						<g>
							<path class="st6" d="M34.6,16.4c0,0,0-0.1,0-0.2c0-0.1-0.1-0.3-0.2-0.4c-0.1-0.1-0.1-0.1-0.2-0.2c-0.1,0-0.2,0-0.3,0
								c-0.2,0.1-0.3,0.4-0.3,0.7c0,0.3,0.1,0.6,0.3,0.7c0.1,0.1,0.2,0.1,0.3,0c0.1,0,0.2-0.1,0.2-0.2c0.1-0.1,0.2-0.3,0.2-0.4
								C34.6,16.5,34.6,16.4,34.6,16.4C34.6,16.4,34.6,16.4,34.6,16.4c0,0.1,0,0.1,0,0.2c0,0.1,0,0.3-0.2,0.4
								c-0.1,0.1-0.1,0.2-0.3,0.2c-0.1,0-0.1,0-0.2,0c-0.1,0-0.1,0-0.2-0.1c-0.1-0.1-0.2-0.2-0.3-0.3c-0.1-0.1-0.1-0.3-0.1-0.4
								c0-0.1,0-0.3,0.1-0.4c0.1-0.1,0.1-0.2,0.3-0.3c0.1,0,0.1-0.1,0.2-0.1c0.1,0,0.1,0,0.2,0c0.1,0,0.2,0.1,0.3,0.2
								c0.1,0.2,0.1,0.3,0.2,0.4C34.6,16.3,34.6,16.3,34.6,16.4C34.6,16.4,34.6,16.4,34.6,16.4z"/>
						</g>
					</g>
				</g>
			</g>
		</g>
	</g>
	<path class="st8" d="M39.9,44.1H9.6c-4,0-7.2-3.2-7.2-7.2V9.7c0-4,3.2-7.2,7.2-7.2h30.3c4,0,7.2,3.2,7.2,7.2v27.2
		C47.1,40.8,43.9,44.1,39.9,44.1z M9.6,3.5c-3.4,0-6.2,2.8-6.2,6.2v27.2c0,3.4,2.8,6.2,6.2,6.2h30.3c3.4,0,6.2-2.8,6.2-6.2V9.7
		c0-3.4-2.8-6.2-6.2-6.2H9.6z"/>
</g>
<g>
	<g>
		<g>
			<path class="st4" d="M7.9,16.2H6.4c0-2,0.8-4.1,2.3-5.7c1.5-1.7,3.5-2.6,5.5-2.6c4.2,0,7.1,3,7.1,7.4h-1.5c0-3.6-2.3-5.9-5.6-5.9
				C10.9,9.4,7.9,12.6,7.9,16.2z"/>
		</g>
	</g>
	<g>
		<g>
			<g>
				<g>
					<path class="st6" d="M8.7,15.8c0.2,0,0.4,0,0.4,0C9.1,15.8,8.9,15.9,8.7,15.8c-0.2,0.1-0.4,0.1-0.4,0
						C8.3,15.8,8.4,15.8,8.7,15.8z"/>
				</g>
			</g>
		</g>
		<g>
			<g>
				<g>
					<path class="st6" d="M9.7,12.6c0.2,0.1,0.3,0.3,0.3,0.3c0,0-0.2,0-0.4-0.2c-0.2-0.1-0.3-0.3-0.3-0.3
						C9.3,12.4,9.5,12.5,9.7,12.6z"/>
				</g>
			</g>
		</g>
		<g>
			<g>
				<g>
					<path class="st6" d="M12.2,10.4c0.1,0.2,0.1,0.4,0.1,0.4c0,0-0.1-0.1-0.3-0.3C12,10.2,11.9,10.1,12,10
						C12,10,12.1,10.2,12.2,10.4z"/>
				</g>
			</g>
		</g>
		<g>
			<g>
				<g>
					<path class="st6" d="M15.5,10.1c-0.1,0.2-0.1,0.4-0.2,0.4c0,0,0-0.2,0-0.4c0-0.2,0.1-0.4,0.2-0.4C15.6,9.7,15.6,9.9,15.5,10.1z
						"/>
				</g>
			</g>
		</g>
		<g>
			<g>
				<g>
					<path class="st6" d="M18.2,12c-0.2,0.1-0.4,0.2-0.4,0.2c0,0,0.1-0.2,0.3-0.3c0.2-0.1,0.4-0.2,0.4-0.2
						C18.6,11.8,18.4,11.9,18.2,12z"/>
				</g>
			</g>
		</g>
		<g>
			<g>
				<g>
					<path class="st6" d="M19.1,15.2c-0.2,0-0.4,0-0.4,0C18.7,15.1,18.9,15.1,19.1,15.2c0.2-0.1,0.4-0.1,0.4,0
						C19.6,15.1,19.4,15.2,19.1,15.2z"/>
				</g>
			</g>
		</g>
	</g>
	<g>
		<g>
			<path class="st4" d="M13.8,15.6c-0.1,0-0.1,0-0.2-0.1l-2.4-1.9c-0.1-0.1-0.2-0.3-0.1-0.5c0.1-0.1,0.3-0.2,0.5-0.1l2.2,1.7
				l3.1-2.8c0.1-0.1,0.3-0.1,0.5,0c0.1,0.1,0.1,0.3,0,0.5l-3.3,3C13.9,15.6,13.9,15.6,13.8,15.6z"/>
		</g>
	</g>
	<g>
		<g>
			<path class="st4" d="M14.9,6.9h-1.8c-0.3,0-0.6-0.3-0.6-0.6v0c0-0.3,0.3-0.6,0.6-0.6h1.8c0.3,0,0.6,0.3,0.6,0.6v0
				C15.5,6.7,15.3,6.9,14.9,6.9z"/>
		</g>
	</g>
	<g>
		<g>
			<rect x="13.3" y="6.3" class="st4" width="1.5" height="1.4"/>
		</g>
	</g>
	<g>
		<g>
			<path class="st4" d="M8.4,10.5l-0.5,0.6c-0.2,0.3-0.6,0.3-0.9,0.1l0,0c-0.3-0.2-0.3-0.6-0.1-0.9l0.5-0.6C7.6,9.5,8,9.4,8.3,9.6
				l0,0C8.6,9.9,8.6,10.3,8.4,10.5z"/>
		</g>
	</g>
	<g>
		<g>
			<g>
				<path class="st6" d="M15.4,6.9c0,0-0.6,0-1.4,0c-0.8,0-1.4,0-1.4,0c0,0,0.6,0,1.4,0C14.8,6.9,15.4,6.9,15.4,6.9z"/>
			</g>
		</g>
	</g>
	<g>
		<g>
			<g>
				<path class="st6" d="M7.7,11.3c0,0-0.2-0.1-0.5-0.3c-0.3-0.2-0.5-0.4-0.5-0.4c0,0,0.2,0.1,0.5,0.3C7.5,11.1,7.7,11.3,7.7,11.3z"
					/>
			</g>
		</g>
	</g>
	<g>
		<g>
			<g>
				<path class="st6" d="M7.9,11c0,0-0.2-0.1-0.5-0.3C7.2,10.4,7,10.3,7,10.3c0,0,0.2,0.1,0.5,0.3C7.8,10.8,7.9,11,7.9,11z"/>
			</g>
		</g>
	</g>
	<g>
		<g>
			<g>
				<path class="st6" d="M8.2,10.7c0,0-0.2-0.1-0.5-0.3C7.5,10.1,7.3,10,7.3,10c0,0,0.2,0.1,0.5,0.3C8.1,10.5,8.2,10.7,8.2,10.7z"/>
			</g>
		</g>
	</g>
	<g>
		<g>
			<g>
				<path class="st6" d="M8.5,10.3c0,0-0.2-0.1-0.5-0.3C7.8,9.8,7.5,9.6,7.6,9.6c0,0,0.2,0.1,0.5,0.3C8.3,10.1,8.5,10.3,8.5,10.3z"
					/>
			</g>
		</g>
	</g>
	<g>
		<g>
			<path class="st4" d="M19.8,10.3l-0.6-0.6C19,9.4,19,9,19.3,8.8l0,0c0.3-0.2,0.7-0.2,0.9,0l0.6,0.6c0.2,0.3,0.2,0.7,0,0.9l0,0
				C20.4,10.6,20,10.5,19.8,10.3z"/>
		</g>
	</g>
	<g>
		<g>
			<g>
				<path class="st6" d="M19.1,9.5c0,0,0.2-0.2,0.4-0.4C19.8,8.8,20,8.6,20,8.6c0,0-0.1,0.2-0.4,0.5C19.4,9.3,19.1,9.5,19.1,9.5z"/>
			</g>
		</g>
	</g>
	<g>
		<g>
			<g>
				<path class="st6" d="M19.5,9.8c0,0,0.2-0.2,0.4-0.4c0.2-0.2,0.4-0.4,0.4-0.4c0,0-0.1,0.2-0.4,0.5C19.7,9.6,19.5,9.8,19.5,9.8z"
					/>
			</g>
		</g>
	</g>
	<g>
		<g>
			<g>
				<path class="st6" d="M19.7,10.1c0,0,0.2-0.2,0.4-0.4c0.2-0.2,0.4-0.4,0.4-0.4c0,0-0.1,0.2-0.4,0.5C19.9,10,19.7,10.1,19.7,10.1z
					"/>
			</g>
		</g>
	</g>
	<g>
		<g>
			<g>
				<path class="st6" d="M20,10.5c0,0,0.2-0.2,0.4-0.4c0.2-0.2,0.4-0.4,0.4-0.4c0,0-0.1,0.2-0.4,0.5C20.3,10.3,20,10.5,20,10.5z"/>
			</g>
		</g>
	</g>
	<g>
		<g>
			<g>
				<path class="st6" d="M12.9,6.9c0,0,0-0.3,0-0.6c0-0.3,0-0.6,0-0.6c0,0,0,0.3,0,0.6C13,6.7,13,6.9,12.9,6.9z"/>
			</g>
		</g>
	</g>
	<g>
		<g>
			<g>
				<path class="st6" d="M13.5,6.9c0,0,0-0.3,0-0.6c0-0.3,0-0.6,0-0.6c0,0,0,0.3,0,0.6C13.5,6.7,13.5,6.9,13.5,6.9z"/>
			</g>
		</g>
	</g>
	<g>
		<g>
			<g>
				<path class="st6" d="M14,6.9c0,0,0-0.3,0-0.6c0-0.3,0-0.6,0-0.6c0,0,0,0.3,0,0.6C14.1,6.7,14.1,6.9,14,6.9z"/>
			</g>
		</g>
	</g>
	<g>
		<g>
			<g>
				<path class="st6" d="M14.6,6.9c0,0,0-0.3,0-0.6c0-0.3,0-0.6,0-0.6c0,0,0,0.3,0,0.6C14.6,6.7,14.6,6.9,14.6,6.9z"/>
			</g>
		</g>
	</g>
	<g>
		<g>
			<g>
				<path class="st6" d="M15.1,6.9c0,0,0-0.3,0-0.6c0-0.3,0-0.6,0-0.6c0,0,0,0.3,0,0.6C15.2,6.7,15.2,6.9,15.1,6.9z"/>
			</g>
		</g>
	</g>
	<g>
		<g>
			<g>
				<circle class="st4" cx="13.9" cy="15.2" r="0.7"/>
			</g>
		</g>
		<g>
			<g>
				<g>
					<path class="st6" d="M14.6,15.2c0,0,0-0.1,0-0.2c0-0.1-0.1-0.3-0.3-0.4c-0.2-0.1-0.4-0.2-0.7-0.1c-0.2,0.1-0.5,0.3-0.5,0.7
						c0,0.3,0.2,0.6,0.5,0.7c0.2,0.1,0.5,0,0.7-0.1c0.2-0.1,0.2-0.3,0.3-0.4C14.6,15.2,14.6,15.2,14.6,15.2
						C14.6,15.2,14.6,15.2,14.6,15.2c0,0.1,0,0.1,0,0.2c0,0.1-0.1,0.3-0.3,0.4c-0.2,0.1-0.4,0.2-0.7,0.1c-0.3-0.1-0.5-0.4-0.5-0.7
						c0-0.3,0.2-0.6,0.5-0.7c0.3-0.1,0.6,0,0.7,0.1c0.2,0.1,0.2,0.3,0.3,0.4C14.6,15,14.6,15.1,14.6,15.2
						C14.6,15.1,14.6,15.2,14.6,15.2z"/>
				</g>
			</g>
		</g>
	</g>
</g>
<g>
	<path class="st6" d="M6.6,19.1v-0.5l1-1.5H8v0.7H7.7l-0.5,0.8v0h1.4v0.5H6.6z M7.7,19.5v-0.5l0-0.2V17h0.6v2.4H7.7z"/>
	<path class="st6" d="M9.6,19.5V17h0.7V18h0.9V17h0.7v2.4h-0.7v-0.9h-0.9v0.9H9.6z"/>
	<path class="st6" d="M14.4,18.3c0,0.3-0.1,0.5-0.2,0.7s-0.2,0.3-0.4,0.4s-0.4,0.1-0.6,0.1c-0.2,0-0.4,0-0.6-0.1
		c-0.2-0.1-0.3-0.2-0.4-0.4s-0.2-0.4-0.2-0.7c0-0.3,0.1-0.5,0.2-0.7s0.2-0.3,0.4-0.4c0.2-0.1,0.4-0.1,0.6-0.1c0.2,0,0.4,0,0.6,0.1
		s0.3,0.2,0.4,0.4S14.4,18,14.4,18.3z M13.8,18.3c0-0.1,0-0.3-0.1-0.4c0-0.1-0.1-0.2-0.2-0.2s-0.2-0.1-0.3-0.1s-0.2,0-0.3,0.1
		c-0.1,0.1-0.1,0.1-0.2,0.2c0,0.1-0.1,0.2-0.1,0.4c0,0.1,0,0.3,0.1,0.4c0,0.1,0.1,0.2,0.2,0.2c0.1,0.1,0.2,0.1,0.3,0.1
		s0.2,0,0.3-0.1s0.1-0.1,0.2-0.2C13.7,18.5,13.8,18.4,13.8,18.3z"/>
	<path class="st6" d="M16.2,17h0.7v1.6c0,0.2,0,0.3-0.1,0.5c-0.1,0.1-0.2,0.2-0.4,0.3c-0.2,0.1-0.3,0.1-0.5,0.1
		c-0.2,0-0.4,0-0.5-0.1c-0.2-0.1-0.3-0.2-0.4-0.3c-0.1-0.1-0.1-0.3-0.1-0.5V17h0.7v1.5c0,0.1,0,0.1,0,0.2c0,0.1,0.1,0.1,0.1,0.1
		c0.1,0,0.1,0,0.2,0c0.1,0,0.1,0,0.2,0c0.1,0,0.1-0.1,0.1-0.1c0-0.1,0-0.1,0-0.2V17z"/>
	<path class="st6" d="M17.1,19.5V17h1c0.2,0,0.3,0,0.5,0.1c0.1,0.1,0.2,0.2,0.3,0.3c0.1,0.1,0.1,0.3,0.1,0.4c0,0.2,0,0.3-0.1,0.4
		c-0.1,0.1-0.2,0.2-0.3,0.3c-0.1,0.1-0.3,0.1-0.5,0.1h-0.6v-0.5H18c0.1,0,0.1,0,0.2,0c0.1,0,0.1-0.1,0.1-0.1c0,0,0-0.1,0-0.2
		c0-0.1,0-0.1,0-0.2c0,0-0.1-0.1-0.1-0.1c-0.1,0-0.1,0-0.2,0h-0.2v1.9H17.1z M18.6,18.4l0.6,1.1h-0.7l-0.6-1.1H18.6z"/>
	<path class="st6" d="M20.7,17.8c0-0.1,0-0.1-0.1-0.2c-0.1,0-0.1-0.1-0.2-0.1c-0.1,0-0.1,0-0.2,0s-0.1,0-0.1,0.1c0,0,0,0.1,0,0.1
		c0,0,0,0.1,0,0.1s0,0,0.1,0.1s0.1,0,0.1,0.1c0,0,0.1,0,0.1,0l0.2,0c0.1,0,0.2,0.1,0.3,0.1c0.1,0,0.2,0.1,0.2,0.2
		c0.1,0.1,0.1,0.1,0.1,0.2s0,0.2,0,0.3c0,0.2,0,0.3-0.1,0.4c-0.1,0.1-0.2,0.2-0.3,0.3s-0.3,0.1-0.5,0.1c-0.2,0-0.4,0-0.6-0.1
		c-0.2-0.1-0.3-0.2-0.4-0.3s-0.1-0.3-0.1-0.5h0.6c0,0.1,0,0.1,0.1,0.2c0,0.1,0.1,0.1,0.1,0.1c0.1,0,0.1,0,0.2,0c0.1,0,0.1,0,0.2,0
		c0,0,0.1,0,0.1-0.1c0,0,0-0.1,0-0.1c0,0,0-0.1,0-0.1c0,0-0.1-0.1-0.1-0.1c-0.1,0-0.1,0-0.2-0.1l-0.2-0.1c-0.2,0-0.4-0.1-0.5-0.2
		s-0.2-0.3-0.2-0.4c0-0.2,0-0.3,0.1-0.4c0.1-0.1,0.2-0.2,0.3-0.3C20,17,20.2,17,20.3,17c0.2,0,0.4,0,0.5,0.1
		c0.1,0.1,0.3,0.2,0.3,0.3c0.1,0.1,0.1,0.3,0.1,0.4H20.7z"/>
</g>
<g>
	<path class="st6" d="M6.8,22.1v-1.8h0.7c0.1,0,0.3,0,0.4,0.1C8,20.4,8,20.5,8.1,20.6c0.1,0.1,0.1,0.2,0.1,0.3s0,0.2-0.1,0.3
		C8,21.3,8,21.4,7.9,21.4c-0.1,0.1-0.2,0.1-0.4,0.1H7.1v-0.3h0.4c0.1,0,0.1,0,0.2,0c0,0,0.1-0.1,0.1-0.1s0-0.1,0-0.2s0-0.1,0-0.2
		c0,0-0.1-0.1-0.1-0.1c0,0-0.1,0-0.2,0H7.2v1.5H6.8z"/>
	<path class="st6" d="M8.9,22.1v-1.8h0.7c0.1,0,0.3,0,0.4,0.1c0.1,0,0.2,0.1,0.2,0.2s0.1,0.2,0.1,0.3c0,0.1,0,0.2-0.1,0.3
		c-0.1,0.1-0.1,0.2-0.2,0.2c-0.1,0-0.2,0.1-0.4,0.1H9.1v-0.3h0.4c0.1,0,0.1,0,0.2,0c0,0,0.1-0.1,0.1-0.1s0-0.1,0-0.1
		c0-0.1,0-0.1,0-0.2s-0.1-0.1-0.1-0.1c0,0-0.1,0-0.2,0H9.3v1.5H8.9z M9.9,21.3l0.5,0.8H9.9l-0.4-0.8H9.9z"/>
	<path class="st6" d="M11.1,22.1v-1.8h1.2v0.3h-0.8V21h0.8v0.3h-0.8v0.4h0.8v0.3H11.1z"/>
	<path class="st6" d="M13.1,20.3h0.5l0.5,1.2h0l0.5-1.2h0.5v1.8h-0.4v-1.2h0l-0.5,1.2H14l-0.5-1.2h0v1.2h-0.4V20.3z"/>
	<path class="st6" d="M16.3,20.3v1.8h-0.4v-1.8H16.3z"/>
	<path class="st6" d="M18.2,20.3h0.4v1.2c0,0.1,0,0.2-0.1,0.3c-0.1,0.1-0.2,0.2-0.3,0.2c-0.1,0.1-0.2,0.1-0.4,0.1
		c-0.2,0-0.3,0-0.4-0.1c-0.1-0.1-0.2-0.1-0.3-0.2c-0.1-0.1-0.1-0.2-0.1-0.3v-1.2h0.4v1.1c0,0.1,0,0.1,0,0.2c0,0.1,0.1,0.1,0.1,0.1
		s0.1,0,0.2,0c0.1,0,0.1,0,0.2,0c0.1,0,0.1-0.1,0.1-0.1c0-0.1,0-0.1,0-0.2V20.3z"/>
	<path class="st6" d="M19.4,20.3h0.5l0.5,1.2h0l0.5-1.2h0.5v1.8H21v-1.2h0l-0.5,1.2h-0.3l-0.5-1.2h0v1.2h-0.4V20.3z"/>
	<path class="st6" d="M7.8,23.3c0-0.1,0-0.1-0.1-0.2c-0.1,0-0.1-0.1-0.2-0.1c-0.1,0-0.1,0-0.2,0c0,0-0.1,0-0.1,0.1s0,0.1,0,0.1
		c0,0,0,0.1,0,0.1c0,0,0,0,0.1,0.1c0,0,0.1,0,0.1,0c0,0,0.1,0,0.1,0l0.2,0c0.1,0,0.2,0,0.2,0.1c0.1,0,0.1,0.1,0.2,0.1
		c0,0,0.1,0.1,0.1,0.2c0,0.1,0,0.1,0,0.2c0,0.1,0,0.2-0.1,0.3c-0.1,0.1-0.1,0.1-0.2,0.2c-0.1,0-0.2,0.1-0.4,0.1
		c-0.1,0-0.3,0-0.4-0.1c-0.1,0-0.2-0.1-0.3-0.2c-0.1-0.1-0.1-0.2-0.1-0.3h0.4c0,0.1,0,0.1,0.1,0.2c0,0,0.1,0.1,0.1,0.1s0.1,0,0.2,0
		c0.1,0,0.1,0,0.2,0c0,0,0.1,0,0.1-0.1c0,0,0-0.1,0-0.1c0,0,0-0.1,0-0.1s-0.1-0.1-0.1-0.1s-0.1,0-0.2-0.1l-0.2,0
		c-0.2,0-0.3-0.1-0.4-0.2c-0.1-0.1-0.1-0.2-0.1-0.3c0-0.1,0-0.2,0.1-0.3c0.1-0.1,0.1-0.1,0.2-0.2c0.1,0,0.2-0.1,0.4-0.1
		c0.1,0,0.3,0,0.4,0.1C7.9,22.9,8,22.9,8,23c0.1,0.1,0.1,0.2,0.1,0.3H7.8z"/>
	<path class="st6" d="M10,22.8h0.4V24c0,0.1,0,0.2-0.1,0.3c-0.1,0.1-0.2,0.2-0.3,0.2c-0.1,0.1-0.2,0.1-0.4,0.1c-0.2,0-0.3,0-0.4-0.1
		c-0.1-0.1-0.2-0.1-0.3-0.2c-0.1-0.1-0.1-0.2-0.1-0.3v-1.2h0.4v1.1c0,0.1,0,0.1,0,0.2c0,0.1,0.1,0.1,0.1,0.1s0.1,0,0.2,0
		c0.1,0,0.1,0,0.2,0c0.1,0,0.1-0.1,0.1-0.1c0-0.1,0-0.1,0-0.2V22.8z"/>
	<path class="st6" d="M11.2,24.6v-1.8h0.7c0.1,0,0.3,0,0.4,0.1c0.1,0.1,0.2,0.1,0.2,0.2c0.1,0.1,0.1,0.2,0.1,0.3s0,0.2-0.1,0.3
		c-0.1,0.1-0.1,0.2-0.2,0.2C12.2,24,12.1,24,11.9,24h-0.5v-0.3h0.4c0.1,0,0.1,0,0.2,0c0,0,0.1-0.1,0.1-0.1s0-0.1,0-0.2s0-0.1,0-0.2
		c0,0-0.1-0.1-0.1-0.1c0,0-0.1,0-0.2,0h-0.3v1.5H11.2z"/>
	<path class="st6" d="M13.3,24.6v-1.8h0.7c0.1,0,0.3,0,0.4,0.1c0.1,0.1,0.2,0.1,0.2,0.2c0.1,0.1,0.1,0.2,0.1,0.3s0,0.2-0.1,0.3
		c-0.1,0.1-0.1,0.2-0.2,0.2C14.3,24,14.2,24,14.1,24h-0.5v-0.3H14c0.1,0,0.1,0,0.2,0c0,0,0.1-0.1,0.1-0.1s0-0.1,0-0.2s0-0.1,0-0.2
		c0,0-0.1-0.1-0.1-0.1c0,0-0.1,0-0.2,0h-0.3v1.5H13.3z"/>
	<path class="st6" d="M17.1,23.7c0,0.2,0,0.4-0.1,0.5c-0.1,0.1-0.2,0.2-0.3,0.3c-0.1,0.1-0.3,0.1-0.4,0.1c-0.2,0-0.3,0-0.4-0.1
		c-0.1-0.1-0.2-0.2-0.3-0.3c-0.1-0.1-0.1-0.3-0.1-0.5c0-0.2,0-0.4,0.1-0.5c0.1-0.1,0.2-0.2,0.3-0.3s0.3-0.1,0.4-0.1
		c0.2,0,0.3,0,0.4,0.1s0.2,0.2,0.3,0.3C17.1,23.3,17.1,23.5,17.1,23.7z M16.7,23.7c0-0.1,0-0.2-0.1-0.3c0-0.1-0.1-0.2-0.2-0.2
		c-0.1,0-0.2-0.1-0.2-0.1s-0.2,0-0.2,0.1c-0.1,0-0.1,0.1-0.2,0.2c0,0.1-0.1,0.2-0.1,0.3s0,0.2,0.1,0.3c0,0.1,0.1,0.2,0.2,0.2
		c0.1,0,0.2,0.1,0.2,0.1s0.2,0,0.2-0.1c0.1,0,0.1-0.1,0.2-0.2C16.7,23.9,16.7,23.8,16.7,23.7z"/>
	<path class="st6" d="M17.9,24.6v-1.8h0.7c0.1,0,0.3,0,0.4,0.1c0.1,0,0.2,0.1,0.2,0.2s0.1,0.2,0.1,0.3c0,0.1,0,0.2-0.1,0.3
		c-0.1,0.1-0.1,0.2-0.2,0.2c-0.1,0-0.2,0.1-0.4,0.1h-0.5v-0.3h0.4c0.1,0,0.1,0,0.2,0c0,0,0.1-0.1,0.1-0.1s0-0.1,0-0.1
		c0-0.1,0-0.1,0-0.2s-0.1-0.1-0.1-0.1c0,0-0.1,0-0.2,0h-0.3v1.5H17.9z M18.9,23.8l0.5,0.8h-0.4l-0.4-0.8H18.9z"/>
	<path class="st6" d="M20,23.1v-0.3h1.5v0.3h-0.6v1.5h-0.4v-1.5H20z"/>
</g>
</svg>
