<?xml version="1.0" encoding="utf-8"?>
<!-- Generator: Adobe Illustrator 21.1.0, SVG Export Plug-In . SVG Version: 6.00 Build 0)  -->
<svg version="1.1" id="Layer_1" xmlns="http://www.w3.org/2000/svg" xmlns:xlink="http://www.w3.org/1999/xlink" x="0px" y="0px"
	 viewBox="0 0 27.4 22.4" style="enable-background:new 0 0 27.4 22.4;" xml:space="preserve">
<style type="text/css">
	.st0{fill:#BDBDBD;}
</style>
<path class="st0" d="M1.3,11.6c0.2,0.9,1,1.5,1.9,1.5h17.6l-0.5,0.2c-0.3,0.2-0.6,0.4-0.9,0.6l-4.9,4.9c-0.7,0.6-0.8,1.6-0.3,2.3
	c0,0.1,0.1,0.1,0.2,0.2c0.7,0.7,1.8,0.7,2.5,0l8.9-8.8c0,0,0,0,0,0c0.7-0.7,0.7-1.8,0-2.5l-8.9-8.8c-0.1-0.1-0.1-0.1-0.2-0.2
	c-0.8-0.6-1.9-0.4-2.5,0.4c-0.5,0.7-0.4,1.7,0.3,2.3l4.9,4.8c0.3,0.3,0.6,0.5,1,0.7l0.4,0.2H3.1c-0.1,0-0.2,0-0.3,0
	C1.8,9.7,1.2,10.6,1.3,11.6z"/>
</svg>
