<?xml version="1.0" encoding="utf-8"?>
<!-- Generator: Adobe Illustrator 21.1.0, SVG Export Plug-In . SVG Version: 6.00 Build 0)  -->
<svg version="1.1" id="Layer_1" xmlns="http://www.w3.org/2000/svg" xmlns:xlink="http://www.w3.org/1999/xlink" x="0px" y="0px"
	 viewBox="0 0 1625.7 1600" style="enable-background:new 0 0 1625.7 1600;" xml:space="preserve">
<style type="text/css">
	.st0{fill:#29427B;}
	.st1{fill:#FFFFFF;}
	.st2{fill:#6C74D1;}
	.st3{fill:#FFD22E;}
	.st4{fill:#D9E2EB;}
	.st5{fill:#1ED4DF;}
	.st6{fill:#FF409E;}
	.st7{fill:#D2CCFF;}
	.st8{fill:#A8AEFF;}
	.st9{fill:#F4E2A8;}
	.st10{fill:#69B5FF;}
	.st11{fill:#F38CA0;}
	.st12{fill:#C04C85;}
	.st13{fill:#686DDF;}
	.st14{fill:#6A3A14;}
	.st15{fill:#49341F;}
	.st16{fill:#D96C81;}
	.st17{fill:none;stroke:#6B84FB;stroke-linecap:round;stroke-linejoin:round;stroke-miterlimit:10;}
	.st18{fill:#0ABCE2;}
	.st19{fill:#A1A7FF;}
	.st20{fill:#B4B9FF;}
	.st21{fill:#6B84FB;}
	.st22{fill:#18105D;}
	.st23{fill:#737ADE;}
	.st24{fill:#19325C;}
	.st25{fill:#FF467B;}
	.st26{fill:url(#SVGID_1_);}
	.st27{fill:#E6E6F2;}
	.st28{fill:#000C74;}
	.st29{fill:#FFC63C;}
	.st30{fill:#CACAE3;}
	.st31{fill:url(#SVGID_2_);}
	.st32{fill:url(#SVGID_3_);}
	.st33{fill:url(#SVGID_4_);}
	.st34{fill:#BCBCDC;}
	.st35{fill:url(#SVGID_5_);}
	.st36{fill:url(#SVGID_6_);}
	.st37{fill:url(#SVGID_7_);}
	.st38{fill:#FF8441;}
	.st39{fill:#FFCC50;}
	.st40{fill:#FFB83F;}
	.st41{fill:#FFA538;}
	.st42{fill:url(#SVGID_8_);}
	.st43{fill:#348BFF;}
	.st44{fill:#336DD6;}
	.st45{fill:#7CBBFF;}
	.st46{fill:#3977DE;}
	.st47{fill:#5CAAFF;}
	.st48{fill:#3079EE;}
	.st49{fill:#9E9E9E;}
	.st50{fill:#29ACE2;}
</style>
<g>
	<g>
		<g>
			<g>
				<g>
					<path class="st0" d="M1595.8,1474.8h-1475c-5.7,0-10.3-4.6-10.3-10.3v-978c0-5.7,4.6-10.3,10.3-10.3h1475
						c5.7,0,10.3,4.6,10.3,10.3v978C1606,1470.2,1601.4,1474.8,1595.8,1474.8z"/>
					<path class="st1" d="M132.2,1443V604.4c0-2.2,1.8-4,4-4h1444.2c2.2,0,4,1.8,4,4V1443c0,2.2-1.8,4-4,4H136.2
						C134,1447,132.2,1445.2,132.2,1443z"/>
				</g>
				<g>
					<path class="st2" d="M1407.7,521.9c-10.8,0-19.6,8.8-19.6,19.5c0,10.8,8.8,19.5,19.6,19.5c10.8,0,19.5-8.8,19.5-19.5
						C1427.2,530.6,1418.5,521.9,1407.7,521.9z M1467,521.9c-10.8,0-19.6,8.8-19.6,19.5c0,10.8,8.8,19.5,19.6,19.5
						s19.5-8.8,19.5-19.5C1486.6,530.6,1477.8,521.9,1467,521.9z M1526.3,521.9c-10.8,0-19.5,8.8-19.5,19.5
						c0,10.8,8.8,19.5,19.5,19.5c10.8,0,19.6-8.8,19.6-19.5C1545.9,530.6,1537.1,521.9,1526.3,521.9z"/>
					<path class="st3" d="M174.5,583.7L174.5,583.7c-23.3,0-42.3-18.9-42.3-42.3v0c0-23.3,18.9-42.3,42.3-42.3l0,0
						c23.3,0,42.3,18.9,42.3,42.3v0C216.7,564.8,197.8,583.7,174.5,583.7z"/>
					<path class="st2" d="M734.6,564.5H254.5c-1.1,0-2-0.9-2-2v-42.1c0-1.1,0.9-2,2-2h480.1c1.1,0,2,0.9,2,2v42.1
						C736.6,563.6,735.7,564.5,734.6,564.5z"/>
				</g>
				<g>
					<path class="st4" d="M316,778H186.2c-2.9,0-5.2-2.3-5.2-5.2V643c0-2.9,2.3-5.2,5.2-5.2H316c2.9,0,5.2,2.3,5.2,5.2v129.8
						C321.3,775.7,318.9,778,316,778z"/>
					<path class="st5" d="M1226.5,821.6H397.2c-1.9,0-3.4-1.5-3.4-3.4v-177c0-1.9,1.5-3.4,3.4-3.4h829.3c1.9,0,3.4,1.5,3.4,3.4v177
						C1229.9,820.1,1228.4,821.6,1226.5,821.6z"/>
					<path class="st6" d="M1304.3,1038.9h233.2c1.9,0,3.4-1.5,3.4-3.4V641.2c0-1.9-1.5-3.4-3.4-3.4h-233.2c-1.9,0-3.4,1.5-3.4,3.4
						v394.4C1300.9,1037.4,1302.4,1038.9,1304.3,1038.9z"/>
					<path class="st7" d="M1304.3,1389h233.2c1.9,0,3.4-1.5,3.4-3.4v-309.7c0-1.9-1.5-3.4-3.4-3.4h-233.2c-1.9,0-3.4,1.5-3.4,3.4
						v309.7C1300.9,1387.5,1302.4,1389,1304.3,1389z"/>
					<path class="st8" d="M1326,1216.6v-117.7c0-2.6,2.1-4.8,4.8-4.8h180.4c2.6,0,4.8,2.1,4.8,4.8v117.7c0,2.6-2.1,4.8-4.8,4.8
						h-180.4C1328.1,1221.3,1326,1219.2,1326,1216.6z"/>
					<path class="st9" d="M1226.5,1038.9H397.2c-1.9,0-3.4-1.5-3.4-3.4v-177c0-1.9,1.5-3.4,3.4-3.4h829.3c1.9,0,3.4,1.5,3.4,3.4v177
						C1229.9,1037.4,1228.4,1038.9,1226.5,1038.9z"/>
					<path class="st10" d="M1226.5,1389H397.2c-1.9,0-3.4-1.5-3.4-3.4v-309.7c0-1.9,1.5-3.4,3.4-3.4h829.3c1.9,0,3.4,1.5,3.4,3.4
						v309.7C1229.9,1387.5,1228.4,1389,1226.5,1389z"/>
					<g>
						<path class="st2" d="M222.8,886.9H184c-1.6,0-2.9-1.3-2.9-2.9v-38.9c0-1.6,1.3-2.9,2.9-2.9h38.9c1.6,0,2.9,1.3,2.9,2.9v38.9
							C225.8,885.5,224.5,886.9,222.8,886.9z"/>
						<path class="st8" d="M345.3,869.9h-98c-3,0-5.4-2.4-5.4-5.4s2.4-5.4,5.4-5.4h98c3,0,5.4,2.4,5.4,5.4S348.3,869.9,345.3,869.9z
							"/>
						<path class="st2" d="M222.8,949.9H184c-1.6,0-2.9-1.3-2.9-2.9v-38.9c0-1.6,1.3-2.9,2.9-2.9h38.9c1.6,0,2.9,1.3,2.9,2.9V947
							C225.8,948.6,224.5,949.9,222.8,949.9z"/>
						<path class="st8" d="M345.3,933h-98c-3,0-5.4-2.4-5.4-5.4s2.4-5.4,5.4-5.4h98c3,0,5.4,2.4,5.4,5.4S348.3,933,345.3,933z"/>
						<path class="st2" d="M222.8,1013H184c-1.6,0-2.9-1.3-2.9-2.9v-38.9c0-1.6,1.3-2.9,2.9-2.9h38.9c1.6,0,2.9,1.3,2.9,2.9v38.9
							C225.8,1011.7,224.5,1013,222.8,1013z"/>
						<path class="st8" d="M345.3,996.1h-98c-3,0-5.4-2.4-5.4-5.4s2.4-5.4,5.4-5.4h98c3,0,5.4,2.4,5.4,5.4S348.3,996.1,345.3,996.1z
							"/>
						<path class="st2" d="M222.8,1139.8H184c-1.6,0-2.9-1.3-2.9-2.9V1098c0-1.6,1.3-2.9,2.9-2.9h38.9c1.6,0,2.9,1.3,2.9,2.9v38.9
							C225.8,1138.5,224.5,1139.8,222.8,1139.8z"/>
						<path class="st8" d="M345.3,1122.8h-98c-3,0-5.4-2.4-5.4-5.4s2.4-5.4,5.4-5.4h98c3,0,5.4,2.4,5.4,5.4
							S348.3,1122.8,345.3,1122.8z"/>
						<path class="st2" d="M222.8,1202.9H184c-1.6,0-2.9-1.3-2.9-2.9v-38.9c0-1.6,1.3-2.9,2.9-2.9h38.9c1.6,0,2.9,1.3,2.9,2.9v38.9
							C225.8,1201.5,224.5,1202.9,222.8,1202.9z"/>
						<path class="st8" d="M345.3,1185.9h-98c-3,0-5.4-2.4-5.4-5.4s2.4-5.4,5.4-5.4h98c3,0,5.4,2.4,5.4,5.4
							S348.3,1185.9,345.3,1185.9z"/>
						<path class="st2" d="M222.8,1265.9H184c-1.6,0-2.9-1.3-2.9-2.9v-38.9c0-1.6,1.3-2.9,2.9-2.9h38.9c1.6,0,2.9,1.3,2.9,2.9v38.9
							C225.8,1264.6,224.5,1265.9,222.8,1265.9z"/>
						<path class="st8" d="M345.3,1249h-98c-3,0-5.4-2.4-5.4-5.4c0-3,2.4-5.4,5.4-5.4h98c3,0,5.4,2.4,5.4,5.4
							C350.7,1246.6,348.3,1249,345.3,1249z"/>
					</g>
					<path class="st1" d="M1385.3,777.1h-58.7c-2.6,0-4.8-2.1-4.8-4.8v-58.7c0-2.6,2.1-4.8,4.8-4.8h58.7c2.6,0,4.8,2.1,4.8,4.8v58.7
						C1390,774.9,1387.9,777.1,1385.3,777.1z"/>
					<path class="st1" d="M1455.9,685H1326c-3,0-5.4-2.4-5.4-5.4c0-3,2.4-5.4,5.4-5.4h129.9c3,0,5.4,2.4,5.4,5.4
						C1461.3,682.6,1458.9,685,1455.9,685z"/>
					<path class="st1" d="M1514.3,1303.3h-186.9c-1.5,0-2.7-1.2-2.7-2.7s1.2-2.7,2.7-2.7h186.9c1.5,0,2.7,1.2,2.7,2.7
						S1515.8,1303.3,1514.3,1303.3z"/>
					<path class="st1" d="M1514.3,1319.2h-186.9c-1.5,0-2.7-1.2-2.7-2.7s1.2-2.7,2.7-2.7h186.9c1.5,0,2.7,1.2,2.7,2.7
						S1515.8,1319.2,1514.3,1319.2z"/>
					<path class="st1" d="M1461.1,1335.2h-133.6c-1.5,0-2.7-1.2-2.7-2.7c0-1.5,1.2-2.7,2.7-2.7h133.6c1.5,0,2.7,1.2,2.7,2.7
						C1463.8,1333.9,1462.6,1335.2,1461.1,1335.2z"/>
					<path class="st1" d="M1406.9,719.2h108.9c1.5,0,2.7-1.2,2.7-2.7c0-1.5-1.2-2.7-2.7-2.7h-108.9c-1.5,0-2.7,1.2-2.7,2.7
						C1404.2,717.9,1405.4,719.2,1406.9,719.2z M1515.8,732.2h-108.9c-1.5,0-2.7,1.2-2.7,2.7c0,1.5,1.2,2.7,2.7,2.7h108.9
						c1.5,0,2.7-1.2,2.7-2.7C1518.6,733.4,1517.3,732.2,1515.8,732.2z M1461,750.6h-54.1c-1.5,0-2.7,1.2-2.7,2.7s1.2,2.7,2.7,2.7
						h54.1c1.5,0,2.7-1.2,2.7-2.7S1462.5,750.6,1461,750.6z"/>
					<path class="st1" d="M1385.3,867.2h-58.7c-2.6,0-4.8-2.1-4.8-4.8v-58.7c0-2.6,2.1-4.8,4.8-4.8h58.7c2.6,0,4.8,2.1,4.8,4.8v58.7
						C1390,865.1,1387.9,867.2,1385.3,867.2z"/>
					<path class="st1" d="M1338.5,916c-9.2,0-16.7,7.5-16.7,16.7c0,9.2,7.5,16.7,16.7,16.7c9.2,0,16.7-7.5,16.7-16.7
						C1355.2,923.5,1347.7,916,1338.5,916z M1515.8,920.8h-149.4c-1.5,0-2.7,1.2-2.7,2.7c0,1.5,1.2,2.7,2.7,2.7h149.4
						c1.5,0,2.7-1.2,2.7-2.7C1518.6,922,1517.3,920.8,1515.8,920.8z M1432.3,939.2h-65.9c-1.5,0-2.7,1.2-2.7,2.7s1.2,2.7,2.7,2.7
						h65.9c1.5,0,2.7-1.2,2.7-2.7S1433.8,939.2,1432.3,939.2z"/>
					<path class="st1" d="M1338.5,968.6c-9.2,0-16.7,7.5-16.7,16.7c0,9.2,7.5,16.7,16.7,16.7c9.2,0,16.7-7.5,16.7-16.7
						C1355.2,976.1,1347.7,968.6,1338.5,968.6z M1515.8,973.4h-149.4c-1.5,0-2.7,1.2-2.7,2.7s1.2,2.7,2.7,2.7h149.4
						c1.5,0,2.7-1.2,2.7-2.7S1517.3,973.4,1515.8,973.4z M1432.3,991.9h-65.9c-1.5,0-2.7,1.2-2.7,2.7c0,1.5,1.2,2.7,2.7,2.7h65.9
						c1.5,0,2.7-1.2,2.7-2.7C1435,993.1,1433.8,991.9,1432.3,991.9z"/>
					<path class="st1" d="M1406.9,809.3h108.9c1.5,0,2.7-1.2,2.7-2.7c0-1.5-1.2-2.7-2.7-2.7h-108.9c-1.5,0-2.7,1.2-2.7,2.7
						C1404.2,808.1,1405.4,809.3,1406.9,809.3z M1515.8,822.3h-108.9c-1.5,0-2.7,1.2-2.7,2.7s1.2,2.7,2.7,2.7h108.9
						c1.5,0,2.7-1.2,2.7-2.7S1517.3,822.3,1515.8,822.3z M1461,840.8h-54.1c-1.5,0-2.7,1.2-2.7,2.7s1.2,2.7,2.7,2.7h54.1
						c1.5,0,2.7-1.2,2.7-2.7S1462.5,840.8,1461,840.8z"/>
				</g>
			</g>
			<g>
				<g>
					<path class="st11" d="M870.7,1304.1c0.1,11.4,0.4,22.9,0.8,34.3c0.1,5.7,0.4,11.4,0.6,17.1l0.7,17.1l0.1,1.4c0,0.1,0,0.2,0,0.3
						l-2.7,20.4c-0.9,6.8-1.8,13.6-2.7,20.4c-1.7,13.6-3.4,27.3-4.8,40.9c-0.2,2.3-2.3,3.9-4.6,3.7c-2.2-0.2-3.8-2.1-3.7-4.3
						c0.5-13.7,0.7-27.5,0.9-41.2c0.1-6.9,0.1-13.7,0.2-20.6l0.2-20.6l0,1.7l-3.5-16.7c-1.2-5.6-2.3-11.2-3.6-16.7
						c-2.5-11.1-5-22.3-7.7-33.4c-2-8.1,3-16.3,11.1-18.3c8.1-2,16.3,3,18.3,11.1C870.5,1301.8,870.7,1303,870.7,1304.1z"/>
					<path class="st11" d="M846,1306.8c-1.8,12.7-3.3,25.4-4.7,38c-1.2,12.7-3.1,25.4-3.4,38.1c-0.6,12.7-1.3,25.4-1.8,38.2
						c-0.5,12.7-1,25.5-1.3,38.2c-0.1,2.3-2,4.1-4.3,4.1c-2.2-0.1-4-1.8-4.1-4c-0.5-12.7-1.2-25.5-2-38.2
						c-0.7-12.7-1.6-25.5-2.5-38.2l-2.7-38.3c-1-12.8-2.1-25.6-3.4-38.3c-0.9-8.3,5.1-15.8,13.4-16.6c8.3-0.9,15.8,5.1,16.6,13.4
						C846.2,1304.3,846.1,1305.6,846,1306.8z"/>
					<path class="st12" d="M873.3,1359.4H816c-8.8-39.5-6.8-70.3,6.6-94.4h39.9C870.6,1288,875.7,1318.9,873.3,1359.4z"/>
					<path class="st13" d="M854.4,1474.8h3l0.9-13.2l6,13.2h18.6l0.2-3c0.3-5.8-8.5-6.9-14.5-6.9l-14.1-17.2
						C848.8,1454.6,854.4,1462.7,854.4,1474.8z"/>
					<path class="st13" d="M825.7,1474.8h15.2c0,0,1.7-4.1,0.3-9.8c-4.2-0.5-3.8-11.3-6-17.4H826
						C823.9,1456.4,823.9,1465.5,825.7,1474.8z"/>
					<polygon class="st11" points="854.5,1447.6 860,1444.7 868.6,1464.9 					"/>
					<path class="st11" d="M826.3,1447.6c0.1,0,1.3,17.7,1.3,17.7h8.5l-1-17.7C835.1,1446.6,826.3,1446.6,826.3,1447.6z"/>
					<path class="st0" d="M898.8,1181.9c-1.1-4.1-5.2-6.5-9.3-5.5c-7.5,1.9-15.3,3.9-22.3,5.9l-14.7,4.1c-4.8,1.5-9.6,2.8-14.3,4.4
						c-3.6,1.2-6,4.9-5.3,8.6c0.8,4.3,5,6.8,9,6c5-1.1,9.9-2.5,14.8-3.7l14.7-4c7.4-2,14.8-4.2,22.2-6.5
						C897.6,1190,899.9,1185.9,898.8,1181.9L898.8,1181.9z"/>
					<path class="st0" d="M927.3,1124.9c-1.8-0.9-3.9-0.3-5.1,1.2c-3.6,4.9-7.1,9.9-10.6,14.9l-10.3,15.1
						c-4.3,6.4-11.5,17.3-15.9,24.2c-2.2,3.4-1.2,8,2.3,10.2v0c3.5,2.2,8.1,1,10.2-2.6c4-7.1,10.4-18.3,14.2-25.2l8.7-16
						c2.8-5.4,5.7-10.8,8.4-16.2C930.2,1128.3,929.3,1125.8,927.3,1124.9z"/>
					<path class="st11" d="M918.3,1125l4.8-7.3c0.6-0.9,1.5-1.6,2.6-1.8l6.5-1.3c3.1-0.6,5.7,2.3,4.8,5.3l-3.9,12.2
						c-1.7,5.2-7.9,7.4-12.5,4.4l0,0C916.8,1133.9,915.8,1128.8,918.3,1125z"/>
					<path class="st0" d="M862.5,1265l6.5-73.4c0-4.8-4.4-8.7-9.8-8.7h-39.3c-5.4,0-9.8,3.9-9.8,8.7l12.6,73.4H862.5z"/>
					<path class="st1" d="M1115.7,1130.4l-181.3,181.3c-1.7,1.7-4.4,1.7-6.1,0l-85.3-85.3c-1.7-1.7-1.7-4.4,0-6.1l181.3-181.3
						c1.7-1.7,4.4-1.7,6.1,0l85.3,85.3C1117.3,1126,1117.3,1128.8,1115.7,1130.4z"/>
					<path class="st8" d="M962.8,1221l-41.5,41.5c-1.9,1.9-4.9,1.9-6.7,0L873,1221c-1.9-1.9-1.9-4.9,0-6.7l41.5-41.5
						c1.9-1.9,4.9-1.9,6.7,0l41.5,41.5C964.6,1216.1,964.6,1219.2,962.8,1221z"/>
					<path class="st7" d="M940.6,1163.4c-0.7,0-1.4-0.3-1.9-0.8c-1.1-1.1-1.1-2.8,0-3.8l87.2-87.2c1.1-1.1,2.8-1.1,3.8,0
						c1.1,1.1,1.1,2.8,0,3.8l-87.2,87.2C942,1163.1,941.3,1163.4,940.6,1163.4z"/>
					<path class="st7" d="M950.9,1173.8c-0.7,0-1.4-0.3-1.9-0.8c-1.1-1.1-1.1-2.8,0-3.8l87.2-87.2c1.1-1.1,2.8-1.1,3.8,0
						c1.1,1.1,1.1,2.8,0,3.8l-87.2,87.2C952.3,1173.5,951.6,1173.8,950.9,1173.8z"/>
					<path class="st7" d="M961.3,1184.1c-0.7,0-1.4-0.3-1.9-0.8c-1.1-1.1-1.1-2.8,0-3.8l87.2-87.2c1.1-1.1,2.8-1.1,3.8,0
						s1.1,2.8,0,3.8l-87.2,87.2C962.7,1183.9,962,1184.1,961.3,1184.1z"/>
					<path class="st7" d="M971.7,1194.5c-0.7,0-1.4-0.3-1.9-0.8c-1.1-1.1-1.1-2.8,0-3.8l87.2-87.2c1.1-1.1,2.8-1.1,3.8,0
						c1.1,1.1,1.1,2.8,0,3.8l-87.2,87.2C973.1,1194.2,972.4,1194.5,971.7,1194.5z"/>
					<path class="st7" d="M982.1,1204.9c-0.7,0-1.4-0.3-1.9-0.8c-1.1-1.1-1.1-2.8,0-3.8l87.2-87.2c1.1-1.1,2.8-1.1,3.8,0
						c1.1,1.1,1.1,2.8,0,3.8l-87.2,87.2C983.4,1204.6,982.8,1204.9,982.1,1204.9z"/>
					<path class="st7" d="M992.4,1215.3c-0.7,0-1.4-0.3-1.9-0.8c-1.1-1.1-1.1-2.8,0-3.8l87.2-87.2c1.1-1.1,2.8-1.1,3.8,0
						c1.1,1.1,1.1,2.8,0,3.8l-87.2,87.2C993.8,1215,993.1,1215.3,992.4,1215.3z"/>
					<path class="st1" d="M838.6,1195.7H855c2.3,0,4.2-1.4,4.2-3.3l-0.1-8.6c0-0.3,0-0.6-0.1-0.8h-34.1c0.2,0.3,0.3,0.6,0.5,0.8
						l6.5,8.6C833.4,1194.3,836.3,1195.7,838.6,1195.7z"/>
					<path class="st0" d="M823.2,1191.7l16.2,56.6l-7.7-5.4l43.8,0.8c2.2,0,4,1.9,4,4.1c0,2-1.5,3.7-3.5,3.9l-43.4,6.1
						c-3.4,0.5-6.6-1.7-7.5-4.9l-0.2-0.5l-16.2-56.6c-1.1-4,1.2-8.1,5.1-9.3C817.9,1185.5,822,1187.8,823.2,1191.7z"/>
					<path class="st14" d="M845.5,1131.8v46h28.2c-16.2-16.8,2.8-42.1-16.4-57.1L845.5,1131.8z"/>
					<path class="st11" d="M879.4,1251.2l7.2-4.5c0.9-0.6,1.5-1.5,1.8-2.5l1.4-6.3c0.7-3-2.1-5.6-5.1-4.7l-11.9,3.6
						c-5.1,1.5-7.4,7.5-4.5,12l0,0C870.7,1252.4,875.6,1253.5,879.4,1251.2z"/>
					<polygon class="st11" points="836.4,1182.9 847,1182.9 847,1166.7 834.1,1165 					"/>
					<path class="st11" d="M859.1,1135.2c0-7.2-5-11.4-15.7-11.4c-10.7,0-15.7,4.2-15.7,11.4c0,5.7-1.1,16.2-0.8,21.9
						c0.4,6.3,2.5,10.4,7.1,14.3c2.9,2.5,6.3,3.6,9.4,3.7c3.1-0.1,6.4-1.2,9.3-3.7c4.6-3.9,6.7-8,7.1-14.3
						C860.2,1151.4,859.1,1140.8,859.1,1135.2z"/>
					<path class="st14" d="M834.6,1113.4c4.4-1.4,14.3-1.1,18.9,1.9c9.2,5.9,10.6,19.5-17.2,19.5c-3.1,2.9-5.3,11.5-5.3,18.5h-4.1
						c-2.2-7.8-3.5-20-1.7-29.4C826.2,1118.9,829.6,1114.9,834.6,1113.4z"/>
					<path class="st14" d="M817.3,1177.8H841c-22.5-21.1,11.9-62.4-8.2-62.4C815.4,1115.4,807.8,1151.2,817.3,1177.8z"/>
					<path class="st11" d="M823.6,1145.7c-1.5,0-2.2,2.6-1.4,5.8c0.4,1.5,0.9,2.8,1.6,3.8l2.1-8
						C825.2,1146.4,824.4,1145.7,823.6,1145.7z"/>
					<path class="st15" d="M841.1,1146.6h-5.7c-0.5,0-0.9-0.4-0.9-0.9c0-0.5,0.4-0.9,0.9-0.9h5.7c0.5,0,0.9,0.4,0.9,0.9
						C842,1146.2,841.6,1146.6,841.1,1146.6z"/>
					<path class="st15" d="M857.2,1146.6h-5.7c-0.5,0-0.9-0.4-0.9-0.9c0-0.5,0.4-0.9,0.9-0.9h5.7c0.5,0,0.9,0.4,0.9,0.9
						C858.1,1146.2,857.7,1146.6,857.2,1146.6z"/>
					<ellipse class="st15" cx="838.6" cy="1150.8" rx="1.4" ry="2.8"/>
					<ellipse class="st15" cx="854" cy="1150.8" rx="1.4" ry="2.8"/>
					<path class="st16" d="M848.6,1151.2c0.3,2.3,0.7,4.8,1.9,6.4c0.3,0.4,0.2,1-0.2,1.3c-0.1,0.1-0.3,0.1-0.4,0.2l-0.3,0l-2.9,0.4
						c-0.8,0.1-1.6-0.4-1.7-1.3c-0.1-0.8,0.4-1.6,1.3-1.7c0.2,0,0.3,0,0.5,0l2.9,0.4l-0.9,1.5
						C847.8,1155.9,848.2,1153.5,848.6,1151.2z"/>
					<path class="st1" d="M852,1163.3c-2.1,4.4-9.7,4.4-11.8,0H852z"/>
					<path class="st14" d="M838.6,1139.9c8.2-3.1,14.5-7.2,17-13.4l2.8,2.2C855.8,1135.8,848.2,1138.7,838.6,1139.9z"/>
				</g>
				<g>
					<g>
						<g>
							<path class="st1" d="M1166.7,1474.8c-0.8,0-1.4-0.6-1.4-1.4v-297c0-0.8,0.6-1.4,1.4-1.4c0.8,0,1.4,0.6,1.4,1.4v297
								C1168.1,1474.2,1167.5,1474.8,1166.7,1474.8z"/>
							<g>
								<path class="st1" d="M1290.9,1474.8c-0.6,0-1.2-0.4-1.3-1.1l-58-298.5c-0.1-0.7,0.3-1.4,1.1-1.6c0.7-0.1,1.5,0.3,1.6,1.1
									l58,298.5c0.1,0.7-0.3,1.4-1.1,1.6C1291.1,1474.8,1291,1474.8,1290.9,1474.8z"/>
								<path class="st1" d="M1225.3,1474.8c-0.6,0-1.2-0.4-1.3-1.1l-58-298.5c-0.1-0.7,0.3-1.4,1.1-1.6c0.7-0.1,1.4,0.3,1.6,1.1
									l58,298.5c0.1,0.7-0.3,1.4-1.1,1.6C1225.4,1474.8,1225.3,1474.8,1225.3,1474.8z"/>
							</g>
							<path class="st1" d="M1232.9,1176.3h-65.7c-0.8,0-1.4-0.6-1.4-1.4c0-0.8,0.6-1.4,1.4-1.4h65.7c0.8,0,1.4,0.6,1.4,1.4
								C1234.3,1175.7,1233.7,1176.3,1232.9,1176.3z"/>
							<path class="st1" d="M1241.2,1218.9h-65.7c-0.8,0-1.4-0.6-1.4-1.4c0-0.8,0.6-1.4,1.4-1.4h65.7c0.8,0,1.4,0.6,1.4,1.4
								C1242.6,1218.3,1242,1218.9,1241.2,1218.9z"/>
							<path class="st1" d="M1249.5,1261.6h-65.7c-0.8,0-1.4-0.6-1.4-1.4c0-0.8,0.6-1.4,1.4-1.4h65.7c0.8,0,1.4,0.6,1.4,1.4
								C1250.9,1261,1250.2,1261.6,1249.5,1261.6z"/>
							<path class="st1" d="M1257.8,1304.2h-65.7c-0.8,0-1.4-0.6-1.4-1.4c0-0.8,0.6-1.4,1.4-1.4h65.7c0.8,0,1.4,0.6,1.4,1.4
								C1259.1,1303.6,1258.5,1304.2,1257.8,1304.2z"/>
							<path class="st1" d="M1266.1,1346.9h-65.7c-0.8,0-1.4-0.6-1.4-1.4c0-0.8,0.6-1.4,1.4-1.4h65.7c0.8,0,1.4,0.6,1.4,1.4
								C1267.4,1346.3,1266.8,1346.9,1266.1,1346.9z"/>
							<path class="st1" d="M1274.4,1389.5h-65.7c-0.8,0-1.4-0.6-1.4-1.4c0-0.8,0.6-1.4,1.4-1.4h65.7c0.8,0,1.4,0.6,1.4,1.4
								C1275.7,1388.9,1275.1,1389.5,1274.4,1389.5z"/>
							<path class="st1" d="M1282.7,1432.2H1217c-0.8,0-1.4-0.6-1.4-1.4c0-0.8,0.6-1.4,1.4-1.4h65.7c0.8,0,1.4,0.6,1.4,1.4
								C1284,1431.6,1283.4,1432.2,1282.7,1432.2z"/>
						</g>
						<g>
							<path class="st17" d="M1166.7,1474.8c-0.8,0-1.4-0.6-1.4-1.4v-297c0-0.8,0.6-1.4,1.4-1.4c0.8,0,1.4,0.6,1.4,1.4v297
								C1168.1,1474.2,1167.5,1474.8,1166.7,1474.8z"/>
							<g>
								<path class="st17" d="M1290.9,1474.8c-0.6,0-1.2-0.4-1.3-1.1l-58-298.5c-0.1-0.7,0.3-1.4,1.1-1.6c0.7-0.1,1.5,0.3,1.6,1.1
									l58,298.5c0.1,0.7-0.3,1.4-1.1,1.6C1291.1,1474.8,1291,1474.8,1290.9,1474.8z"/>
								<path class="st17" d="M1225.3,1474.8c-0.6,0-1.2-0.4-1.3-1.1l-58-298.5c-0.1-0.7,0.3-1.4,1.1-1.6c0.7-0.1,1.4,0.3,1.6,1.1
									l58,298.5c0.1,0.7-0.3,1.4-1.1,1.6C1225.4,1474.8,1225.3,1474.8,1225.3,1474.8z"/>
							</g>
							<path class="st17" d="M1232.9,1176.3h-65.7c-0.8,0-1.4-0.6-1.4-1.4c0-0.8,0.6-1.4,1.4-1.4h65.7c0.8,0,1.4,0.6,1.4,1.4
								C1234.3,1175.7,1233.7,1176.3,1232.9,1176.3z"/>
							<path class="st17" d="M1241.2,1218.9h-65.7c-0.8,0-1.4-0.6-1.4-1.4c0-0.8,0.6-1.4,1.4-1.4h65.7c0.8,0,1.4,0.6,1.4,1.4
								C1242.6,1218.3,1242,1218.9,1241.2,1218.9z"/>
							<path class="st17" d="M1249.5,1261.6h-65.7c-0.8,0-1.4-0.6-1.4-1.4c0-0.8,0.6-1.4,1.4-1.4h65.7c0.8,0,1.4,0.6,1.4,1.4
								C1250.9,1261,1250.2,1261.6,1249.5,1261.6z"/>
							<path class="st17" d="M1257.8,1304.2h-65.7c-0.8,0-1.4-0.6-1.4-1.4c0-0.8,0.6-1.4,1.4-1.4h65.7c0.8,0,1.4,0.6,1.4,1.4
								C1259.1,1303.6,1258.5,1304.2,1257.8,1304.2z"/>
							<path class="st17" d="M1266.1,1346.9h-65.7c-0.8,0-1.4-0.6-1.4-1.4c0-0.8,0.6-1.4,1.4-1.4h65.7c0.8,0,1.4,0.6,1.4,1.4
								C1267.4,1346.3,1266.8,1346.9,1266.1,1346.9z"/>
							<path class="st17" d="M1274.4,1389.5h-65.7c-0.8,0-1.4-0.6-1.4-1.4c0-0.8,0.6-1.4,1.4-1.4h65.7c0.8,0,1.4,0.6,1.4,1.4
								C1275.7,1388.9,1275.1,1389.5,1274.4,1389.5z"/>
							<path class="st17" d="M1282.7,1432.2H1217c-0.8,0-1.4-0.6-1.4-1.4c0-0.8,0.6-1.4,1.4-1.4h65.7c0.8,0,1.4,0.6,1.4,1.4
								C1284,1431.6,1283.4,1432.2,1282.7,1432.2z"/>
						</g>
					</g>
					<g>
						<g>
							<path class="st18" d="M1196.4,950.2l-39.8-20.5c-1.8-0.9-4-0.4-5.2,1.3c-1.3,1.8-0.8,4.3,1.1,5.6l46,31.4
								C1205.9,972.3,1208.6,956.8,1196.4,950.2z"/>
							<path class="st19" d="M1258.8,922.9c-2.3-3.4-6.9-4.4-10.3-2.1l-42,27.7c-13.5,8.4-12.6,15.9-7.8,18.8c2.2,1.1,4.9,1,7.1-0.4
								l0.4-0.2l50.5-33.4C1260.2,931,1261.1,926.3,1258.8,922.9z"/>
							<polygon class="st20" points="1206.6,951.3 1206.5,951.1 1206.4,951.4 							"/>
							<path class="st11" d="M1161.9,925.8l-7.1-5c-0.9-0.6-2-0.9-3.1-0.7l-6.5,1.1c-3.1,0.5-4.5,4.2-2.5,6.6l8,9.8
								c3.4,4.2,10,4,13.1-0.5l0,0C1166.5,933.5,1165.6,928.4,1161.9,925.8z"/>
						</g>
						<path class="st0" d="M1194.8,1161c-1.1,1.4-2.2,2.7-3.1,3.2c-5.2,2.5-12.3,2.4-13.2,6.6l-0.6,2.9l30.5,0.1l-0.6-10.3
							L1194.8,1161z"/>
						<path class="st11" d="M1207.5,1156.8l-9.8,0c0,0-1.3,2.2-2.9,4.2c5.7,6.3,10,7.1,13,2.5L1207.5,1156.8z"/>
						<path class="st11" d="M1241.2,1199.9h-9.8l-2.9,5.3c-2.1,4.2,12.9,5.5,12.9,0L1241.2,1199.9z"/>
						<path class="st0" d="M1228.8,1204.7l-1.2,1.8c-3.7,1.8-6.9,4-6.9,7l0.1,2.9h21l-0.4-11.7
							C1241.4,1202.7,1231.8,1207.2,1228.8,1204.7z"/>
						<polygon class="st20" points="1178.3,1171.5 1177.9,1173.7 1208.4,1173.8 1208.2,1171.6 						"/>
						<polygon class="st20" points="1220.7,1214.2 1220.8,1216.4 1241.7,1216.4 1241.7,1214.2 						"/>
						<path class="st12" d="M1169.5,1086.1l32.8-56.9c3.1-5.5,10.2-7.3,15.6-3.8l5.4,3.5c5.3,3.4,6.7,10.7,2.9,15.8l-24.2,37.1
							c0,0-8.4,10-14.8,17.7c-3.9,4.7-11,5.3-15.7,1.3v0C1167.4,1097.1,1166.5,1090.6,1169.5,1086.1z"/>
						<path class="st12" d="M1175.8,1081.2c5-1.1,10.1,1.7,11.7,6.6l21.4,71.1h-14.2l-26-64.1
							C1166.4,1089.1,1169.7,1082.6,1175.8,1081.2z"/>
						<path class="st12" d="M1250.6,1032l-1.3,42.3c-0.6,14.1-1.1,28.2-1.9,42.3l-4.4,84.4l-12.9-0.1l-2.7-84.3l-0.4-10.5l-0.8-10.5
							l-1.6-21l-3.3-42L1250.6,1032z"/>
						<path class="st12" d="M1243.2,1044.2h-39.4c-4.3,0-7.7-3.7-7.7-8.2l-0.1-14.5h54.8l0.1,14.5
							C1250.9,1040.5,1247.5,1044.2,1243.2,1044.2z"/>
						<path class="st18" d="M1170,971.1l-32.3-30.9c-1.4-1.4-3.7-1.5-5.3-0.2c-1.7,1.4-2,3.9-0.6,5.7l35.2,43.1
							C1172.8,995.1,1179.7,980.9,1170,971.1z"/>
						<path class="st18" d="M1201.7,922.3c-3.7-1.8-8.2-0.2-9.9,3.5l-21.7,45.4c-7.3,14.1-2.6,20.1,3,20.1c2.4-0.2,4.7-1.6,5.8-4
							l0.2-0.4l26.1-54.7C1207,928.5,1205.4,924.1,1201.7,922.3z"/>
						<polygon class="st20" points="1170.1,971.2 1170,971.1 1170,971.4 						"/>
						<path class="st8" d="M1127.6,838.3H994.3c-12.8,0-23.2,10.4-23.2,23.2v62.2c0,12.8,10.4,23.2,23.2,23.2h17.8v25.9l25.9-25.9
							h89.6c12.8,0,23.2-10.4,23.2-23.2v-62.2C1150.8,848.7,1140.4,838.3,1127.6,838.3z"/>
						<path class="st1" d="M1111.4,872.6h-100.9c-2.2,0-4.1-1.8-4.1-4.1c0-2.2,1.8-4.1,4.1-4.1h100.9c2.2,0,4.1,1.8,4.1,4.1
							C1115.4,870.8,1113.6,872.6,1111.4,872.6z"/>
						<path class="st1" d="M1111.4,894.5h-100.9c-2.2,0-4.1-1.8-4.1-4.1c0-2.2,1.8-4.1,4.1-4.1h100.9c2.2,0,4.1,1.8,4.1,4.1
							C1115.4,892.7,1113.6,894.5,1111.4,894.5z"/>
						<path class="st1" d="M1111.4,916.5h-100.9c-2.2,0-4.1-1.8-4.1-4.1c0-2.2,1.8-4.1,4.1-4.1h100.9c2.2,0,4.1,1.8,4.1,4.1
							C1115.4,914.6,1113.6,916.5,1111.4,916.5z"/>
						<path class="st11" d="M1144.8,939.9l-1.6-8.5c-0.2-1.1-0.8-2-1.7-2.6l-5.4-3.7c-2.6-1.8-6.1-0.1-6.4,3l-1.1,12.7
							c-0.5,5.4,4.4,9.8,9.7,8.8l0,0C1142.7,948.7,1145.6,944.4,1144.8,939.9z"/>
						<path class="st18" d="M1196,1038.9l-3-112.2c0-6.5,5.3-11.7,11.7-11.7h47c6.5,0,11.8,5.3,11.8,11.7l-11.9,112.2H1196z"/>
						<g>
							<path class="st11" d="M1237.8,907.7H1209c-3.3,0-5.9-2.6-5.9-5.9v-41.9c0-3.3,2.6-5.9,5.9-5.9h28.9c3.3,0,5.9,2.6,5.9,5.9
								v41.9C1243.7,905.1,1241.1,907.7,1237.8,907.7z"/>
							
								<rect x="1217.8" y="898.5" transform="matrix(-1 -1.224647e-16 1.224647e-16 -1 2453.3262 1813.4821)" class="st11" width="17.8" height="16.6"/>
							<path class="st14" d="M1223.4,854L1223.4,854c11.2,0,20.3,9.1,20.3,20.3v13c0,6.7-3.3,12.7-8.3,16.4c-4.1,3-9.9,2-13-2.1
								l-7.5-10.2l-7.3-30.1C1211.4,856.9,1217.1,854,1223.4,854z"/>
							<path class="st14" d="M1205.3,864.9c3.4-6.5,10.2-10.9,18-10.9l0,0c11.2,0,20.3,9.1,20.3,20.3v10.1c0,0-25.5,0-30.7,0
								C1207.8,884.4,1203.9,867.8,1205.3,864.9z"/>
							<path class="st14" d="M1229.6,854.2c6.2-5.1,21.2,0.7,23.6,7c-2,0.3-4.1,0.2-6.1,0c4.4,1.1,6.8,7.4,3.1,12.4
								c-1-2.2-3.1-5-5.1-5.7c2.8,2.6,4.1,8.5,1.2,12.4c-1.9-2-2.7-3.5-3.7-6c0.5,2.3,0.5,5.1-1.7,6.5
								C1236.6,872.2,1230.2,861.1,1229.6,854.2z"/>
							<path class="st14" d="M1230.3,858.5c0.4-13.3-19.6-14.6-34.9-3.9c4-1.1,9.8-2.5,12.1-2.2c-6.5,1.1-11.5,4.5-14.2,9.5
								c1.8,1,5,1.1,8,0c-3.1,1.1-5.3,4.2-6.1,7.3c5.4,0.7,8.2-1.4,9.9-3.8c-1.8,2.1-4.1,6.1-4.6,10.7c3.6-4.1,11.9-6.8,16.8-7.3
								c-3.2,1.2-7.5,3.3-9.8,6.1c7.7,0.8,15.3-0.1,19.7-5c0.9,2.1,3.2,5.2,5.3,6.1C1235.2,872.4,1237.4,862.6,1230.3,858.5z"/>
							<path class="st11" d="M1213,883.4v6.1c0,0.9,0.7,1.7,1.7,1.7s1.7-0.7,1.7-1.7v-6.1c0-0.9-0.7-1.7-1.7-1.7
								S1213,882.5,1213,883.4z"/>
						</g>
					</g>
				</g>
				<g>
					<g>
						<path class="st12" d="M515.1,929.7c-0.1-6.3-5.5-11.3-11.8-10.8c-6.3,0.5-11,6.1-10.2,12.4l10.6,84.3h13L515.1,929.7z"/>
						<path class="st11" d="M503.7,1015.6l0.4,2.9c0.4,3.4,3.4,5.8,6.8,5.6c3.4-0.2,6-3.1,5.9-6.5l0-2H503.7z"/>
						<path class="st12" d="M502,848.6l-7.5,0.5c-6.3,0.5-10.9,6.1-10.1,12.3l8.8,70.4c0.7,5.8,5.9,10,11.7,9.6l0,0
							c5.8-0.4,10.3-5.3,10.2-11.2l-1.3-71C513.7,853.1,508.3,848.2,502,848.6z"/>
						<path class="st12" d="M461.8,870.2h48.5c1.9,0,3.4-1.5,3.4-3.4v-20.1h-55.4v20.1C458.4,868.7,459.9,870.2,461.8,870.2z"/>
						<path class="st12" d="M476.9,848.4h-7.5c-6.3,0-12.2,5.3-12.9,11.6l-8.3,70.9c-0.7,5.8,3.4,10.4,9.2,10.4l0,0
							c5.8,0,11.4-4.6,12.7-10.4l15.9-70.9C487.3,853.7,483.2,848.4,476.9,848.4z"/>
						<path class="st11" d="M438,1016.5l-0.2,1.5c-0.4,3.4,1.9,6,5.3,6l0,0c3.4,0,6.6-2.6,7.4-6l0.3-1.5H438z"/>
						<path class="st12" d="M470.2,930.3c1.4-6.3-2.7-11.6-9-11.6h0c-6.3,0-12.3,5.3-13,11.6l-10.1,86.2h12.9L470.2,930.3z"/>
						<g>
							<path class="st11" d="M506.4,791.4l17.3-0.3l1.5,26c0.3,4.5-2.7,8.3-6.8,8.5c-4.1,0.3-7.7-3.1-8.3-7.6L506.4,791.4z"/>
							<path class="st1" d="M521.7,755.7c-0.4-6.3-5.4-11.2-11-10.9c-5.7,0.4-9.7,5.9-8.9,12.1l4.8,35.4l17.2-0.3L521.7,755.7z"/>
						</g>
						<g>
							<path class="st11" d="M524.5,825.3l53-40.9c2-1.6,2.5-4.5,1-6.6l0,0c-1.5-2.1-4.4-2.7-6.5-1.3l-56.3,36.2
								c-3.7,2.4-4.6,7.3-2.1,10.9l0,0C516,827.3,521,828,524.5,825.3z"/>
							<path class="st11" d="M582.4,788.1l7.6-4.2c1-0.5,1.7-1.4,2-2.5l1.8-6.4c0.9-3-1.8-5.9-4.9-5.2l-12.5,3
								c-5.3,1.3-8,7.3-5.3,12.1l0,0C573.3,788.9,578.4,790.3,582.4,788.1z"/>
						</g>
						<path class="st21" d="M518.4,754c0.3-5.4-4.4-12.1-10.7-14c-18.3-5.3-37.6-5.3-55.4,0c-6.1,1.9-10.1,8.6-9.2,14
							c4.8,29.8,10,61.4,15.2,94.5c18.5,0,37,0,55.5,0C515.4,815.5,516.9,783.8,518.4,754z"/>
						<path class="st0" d="M443.1,754c2.2,13.9,5.7,36.7,8.8,57.2c3.5,23.3,0.2,54.4,0.2,54.4h24.3l7-53.2l-19.8-74.9
							c-3.9,0.6-7.7,1.5-11.4,2.6C446.2,741.8,442.2,748.5,443.1,754z M506.2,739.6l-10.3,72.3l6.1,53.7h11.9
							c1.6-43.8,3.1-81.7,4.6-111.5c0.3-5.4-4.4-12.1-10.7-14C507.2,739.8,506.7,739.7,506.2,739.6z"/>
						<path class="st1" d="M515.4,864.9h129.8c2.9,0,5.2-2.3,5.2-5.2V729.9c0-2.9-2.3-5.2-5.2-5.2H515.4c-2.9,0-5.2,2.3-5.2,5.2
							v129.8C510.2,862.6,512.6,864.9,515.4,864.9z"/>
						<path class="st2" d="M567.5,829.6c0.5-5.5,0.4-11.3-0.5-17.5c-2.1-1.9-4-4.3-5.8-7c-2.4-3.7-7.5-18.6-7.5-27.1
							c0-4.3,0.8-8.4,2.2-12.2c-3.1-2.1-5.3-5.4-6-9.7c14.6,3.9,10.4-13.4,32.7-13.4c7.6,0,15.9,3.5,20.8,9.5
							c1.2,1.4,2.3,5.1,1.5,6.8c-0.2,1-0.8,1.9-1.9,3.5c2.3,4.5,3.7,9.8,3.7,15.4c0,8.5-5.1,23.5-7.5,27.2c-1.7,2.7-3.6,5-5.7,7
							c-0.9,6.2-1,12-0.5,17.5c3.4,0.9,11,2.1,17.5,3.3c-6.9,8.6-18,14.1-30.5,14.1c-12.4,0-23.5-5.5-30.4-14
							C556.5,831.6,564.1,830.5,567.5,829.6z"/>
						<path class="st11" d="M496.6,737.4c-9.9-1.7-19.9-1.9-29.7-0.6l21.8,27.3C488.6,764.2,497.6,737.6,496.6,737.4z"/>
						<g>
							<path class="st11" d="M436.8,787.2l16.9,3.6l-4.4,25.7c-0.8,4.4-4.5,7.4-8.5,6.8s-6.9-4.7-6.4-9.2L436.8,787.2z"/>
							<path class="st21" d="M459.6,755.8c1.1-6.2-2.7-12.1-8.3-13.1c-5.6-0.9-10.8,3.6-11.3,9.8l-3.3,35.5l16.8,3.6L459.6,755.8z"
								/>
						</g>
						<path class="st12" d="M437.6,1017.9h13.2c1.4,0,2.7-1.1,2.9-2.5l0.7-3.9c0.2-1.4-0.7-2.5-2.1-2.5h-13.2
							c-1.4,0-2.7,1.1-2.9,2.5l-0.7,3.9C435.3,1016.8,436.2,1017.9,437.6,1017.9z"/>
						<path class="st12" d="M502.2,1018.4l16.7-1.2c0.4,0,0.7-0.4,0.7-0.8l-0.5-7.4c0-0.4-0.4-0.7-0.8-0.7l-16.7,1.2
							c-0.4,0-0.7,0.4-0.7,0.8l0.5,7.4C501.5,1018.2,501.8,1018.5,502.2,1018.4z"/>
						<g>
							<polygon class="st11" points="476.3,738.6 487.1,738.6 487.1,724.8 473.9,723 							"/>
							<path class="st0" d="M494.9,688.9c0.6,2,0,22.2,0,22.2h4.2c2.3-8,3.6-20.6,1.7-30.2L494.9,688.9z"/>
							<path class="st11" d="M499.6,692.4c0-7.4-5.2-11.8-16.1-11.8c-11,0-16.1,4.4-16.1,11.8c0,5.8-1.2,16.7-0.8,22.5
								c0.4,6.5,2.5,10.6,7.3,14.7c3,2.6,6.5,3.7,9.6,3.8c3.2-0.1,6.6-1.2,9.6-3.8c4.8-4.1,6.9-8.2,7.3-14.7
								C500.7,709,499.6,698.2,499.6,692.4z"/>
							<path class="st0" d="M470.7,717.7l16.8-3.1l12.6,3.1c-0.8,4.9-3,8.4-7,11.8c-3,2.6-6.5,3.7-9.6,3.8c-3.2-0.1-6.6-1.2-9.6-3.8
								c-4.8-4.1-6.9-8.2-7.3-14.7c-0.1-1.1-0.1-2.4-0.1-3.8h4.2V717.7z"/>
							<path class="st0" d="M475.8,671.9h16.2c5.1,0,13.9-0.6,13.9,5.3c0,5.1-4.7,11.4-15.2,11.4c-11.7,0-18.9-3.3-20,0.2
								c-0.6,2,0,22.2,0,22.2h-4.2c-2.3-8-3.6-20.6-1.7-30.2C465.7,675.6,470.4,671.9,475.8,671.9z"/>
							<path class="st1" d="M481.4,718.5c0,6.8,10.6,6.8,10.6,0C488.4,719.2,484.9,719.2,481.4,718.5z"/>
							<path class="st11" d="M461.7,709.2c0.8,3.3,2.7,6,4.3,6c1.6,0,2.2-2.7,1.4-6c-0.8-3.3-2.7-6-4.3-6
								C461.5,703.2,460.9,705.9,461.7,709.2z"/>
							<path class="st15" d="M481.1,701.9h-5.9c-0.5,0-0.9-0.4-0.9-0.9c0-0.5,0.4-0.9,0.9-0.9h5.9c0.5,0,0.9,0.4,0.9,0.9
								C482,701.5,481.6,701.9,481.1,701.9z"/>
							<path class="st15" d="M497.7,701.9h-5.9c-0.5,0-0.9-0.4-0.9-0.9c0-0.5,0.4-0.9,0.9-0.9h5.9c0.5,0,0.9,0.4,0.9,0.9
								C498.6,701.5,498.2,701.9,497.7,701.9z"/>
							<ellipse class="st15" cx="478.5" cy="706.1" rx="1.5" ry="2.9"/>
							<ellipse class="st15" cx="494.4" cy="706.1" rx="1.5" ry="2.9"/>
							<path class="st16" d="M487.8,704.6l0.2,8.8l-3.1-0.3c-2.1,0-2.1,3,0,3l5.6-0.6l-0.3-1.1L487.8,704.6z"/>
							<path class="st0" d="M500.1,667.5L500.1,667.5c1.2,2.1-0.1,4.7-2.5,5c-8,0.9-22.6,2.5-22.8,2.5c-0.2,0,14.8-6.3,21.1-8.9
								C497.4,665.4,499.2,666,500.1,667.5z"/>
						</g>
						<g>
							<path class="st11" d="M441.6,824.2l66,11.7c2.5,0.4,5-1.2,5.5-3.7l0,0c0.6-2.5-1-5-3.4-5.7L445,809.2
								c-4.2-1.1-8.5,1.5-9.5,5.7l0,0C434.5,819.2,437.3,823.4,441.6,824.2z"/>
							<path class="st11" d="M508.2,842l8.3,2.8c1,0.4,2.2,0.3,3.2-0.2l6-2.9c2.8-1.4,3.1-5.3,0.5-7.1l-10.6-7.2
								c-4.5-3.1-10.8-1-12.5,4.2l0,0C501.5,835.8,503.8,840.5,508.2,842z"/>
						</g>
						<path class="st0" d="M518,1026.1c1.1,1.4,2.2,2.8,3.1,3.2c5.2,2.5,12.4,2.5,13.3,6.7l0.6,2.9h-30.7l0.6-10.4L518,1026.1z"/>
						<path class="st11" d="M505.1,1021.8c0-4.3,8.3-4.1,9.9,0c0,0,1.3,2.2,2.9,4.3c-5.7,6.3-10.1,7.1-13.1,2.4L505.1,1021.8z"/>
						<path class="st0" d="M449.2,1027.2c1.1,0,1.4,0.8,1.8,1.8c3.4,1.8,6.2,4,5.7,7.1l-0.6,2.9h-21.1l2.4-11.8H449.2z"/>
						<path class="st11" d="M438.3,1022.3c0.9-4.8,8.9-6.2,9.9,0l2,5.4c-10.6-2-12.6,9.1-13,0L438.3,1022.3z"/>
						<polygon class="st21" points="456.5,1036.6 456.1,1038.9 434.9,1038.9 435.4,1036.6 						"/>
						<polygon class="st21" points="534.5,1036.6 535,1038.9 504.3,1038.9 504.4,1036.6 						"/>
					</g>
					<path class="st21" d="M708.4,1041.3c0-1.3-1.1-2.4-2.4-2.4H602.9c-1.3,0-2.4,1.1-2.4,2.4c0,0,0,0.1,0,0.1c0,0,0,0.1,0,0.1
						v431.9c0,1.3,1.1,2.4,2.4,2.4s2.4-1.1,2.4-2.4v-100.3h98.3v100.3c0,1.3,1.1,2.4,2.4,2.4c1.3,0,2.4-1.1,2.4-2.4v-431.9
						c0,0,0-0.1,0-0.1C708.3,1041.4,708.4,1041.4,708.4,1041.3z M605.3,1319.7v-39.2h98.3v39.2H605.3z M605.3,1275.7v-44h98.3v44
						H605.3z M605.3,1227v-39.2h98.3v39.2H605.3z M605.3,1183v-44h98.3v44H605.3z M605.3,1134.2V1095h98.3v39.2H605.3z
						 M605.3,1090.2v-46.5h98.3v46.5H605.3z M605.3,1324.5h98.3v44h-98.3V1324.5z"/>
				</g>
				<g>
					<path class="st11" d="M1375.6,1291.8c-0.1,7.1-0.1,14.3-0.1,21.4l0.1,21.4c0,7.1,0.1,14.2,0.2,21.4l0.1,10.7l0.1,5.3
						c0,1.8,0,3.6,0.2,5.3l1.8,21.3c0.6,7.1,1.2,14.2,1.8,21.3l1.9,21.3c0.7,7.1,1.3,14.2,2.1,21.3l7.7-0.2
						c0.4-7.1,0.8-14.2,1.1-21.2l1-21.2c0.3-7.1,0.6-14.1,0.9-21.2l0.8-21.2c0-1.8,0.2-3.5,0.4-5.3l0.5-5.3l1.1-10.6
						c0.7-7,1.5-14.1,2.1-21.1l2-21.1c0.6-7,1.3-14.1,1.8-21.1L1375.6,1291.8z"/>
					<path class="st11" d="M1400.5,1293.6c0.5,6.8,1.2,13.6,1.8,20.4l1.9,20.4c0.6,6.8,1.4,13.6,2,20.4l2.1,20.4l0.1,0.8l4.1,21.6
						c1.4,7.2,2.7,14.4,4.2,21.6l4.3,21.5c1.5,7.2,2.9,14.4,4.4,21.5l7.6-1c-0.3-7.3-0.8-14.6-1.2-21.9l-1.3-21.9
						c-0.4-7.3-1-14.6-1.4-21.9l-1.5-21.9l0.1,0.8l0.2-20.5c0.1-6.8,0.2-13.6,0.2-20.5l0.1-20.5c0-6.8,0-13.6-0.1-20.4
						L1400.5,1293.6z"/>
					<path class="st2" d="M1398.7,1356.6l0.1-1.3c0.2-2.1,0.4-4.1,0.6-6.2c0.5-4.5,0.9-9.1,1.4-13.7l2-21.1c0.2-2.5,0.4-5,0.7-7.4
						c0.4-4.5,0.8-9.1,1.2-13.7l0.1-1.5l-30.6-1.4l0,1.5c-0.1,4.6-0.1,9.4-0.1,13.9c0,2.5,0,5,0,7.5l0.1,21.4
						c0,4.6,0.1,9.3,0.1,13.8c0,2.2,0.1,4.5,0.1,6.7l0,1.4H1398.7z"/>
					<path class="st2" d="M1429.3,1356.6l0-2.9c0-2.2,0.1-4.5,0.1-6.7c0.1-4.5,0.1-9.2,0.1-13.8l0.1-20.4c0-2.4,0-4.7,0-7.1
						c0-4.4,0-8.9-0.1-13.4l0-1.5l-30.6,1.4l0.1,1.5c0.4,4.5,0.8,9,1.1,13.3c0.2,2.3,0.4,4.7,0.6,7l1.9,20.4
						c0.4,4.6,0.9,9.2,1.4,13.7c0.2,2.2,0.5,4.5,0.7,6.7l0.2,1.8H1429.3z"/>
					<path class="st2" d="M1421.8,1306.8h-39.3c-4.3,0-7.7-3.6-7.7-8.1l0-7.6c0-3.7,3-6.8,6.7-6.8h41.3c3.7,0,6.7,3,6.7,6.7l0,7.7
						C1429.5,1303.2,1426.1,1306.8,1421.8,1306.8z"/>
					<g>
						<path class="st11" d="M1382.7,1183.9l-60.1-26.5l0.2,13.4l55.5-30.4c1.9-1.1,2.6-3.5,1.6-5.4c-1-1.8-3.2-2.5-5-1.8l-58.5,24.2
							c-3.7,1.5-5.4,5.7-3.9,9.4c0.7,1.8,2.1,3.1,3.7,3.8l0.4,0.2l60.1,26.5c3.7,1.6,8.1,0,9.7-3.8
							C1388.1,1189.9,1386.4,1185.5,1382.7,1183.9z"/>
						<path class="st12" d="M1375.4,1200c4.8,1.9,10.4-0.1,12.9-4.8c2.7-5,0.8-11.3-4.3-14c-8.3-4.4-18-7.2-18-7.2l-2.7,21.2
							L1375.4,1200z"/>
						<path class="st11" d="M1382.3,1144.4l7.8-3.6c1-0.5,1.7-1.3,2.1-2.3l2.2-6.1c1.1-2.9-1.4-5.9-4.5-5.4l-12.4,2.1
							c-5.3,0.9-8.3,6.6-6,11.5l0,0C1373.3,1144.6,1378.2,1146.3,1382.3,1144.4z"/>
					</g>
					<path class="st12" d="M1374.6,1278.8l-2.9-90.4c0-6.4,5.2-11.6,11.6-11.6h46.5c6.4,0,11.6,5.2,11.6,11.6l-11.8,89.7l2.2,15.9
						h-58.6L1374.6,1278.8z"/>
					<path class="st16" d="M1415.8,1176.8c0,6-4.9,10.9-10.9,10.9c-6,0-10.9-4.9-10.9-10.9H1415.8z"/>
					<polygon class="st16" points="1414,1176.8 1400.1,1176.8 1400.4,1163.3 1413.1,1161.6 					"/>
					<path class="st22" d="M1392.5,1128c-0.6,2,0,21.8,0,21.8h-4.2c-2.3-7.9-6.2-21.9-3-27.8c2.5-4.6,12.3-5.2,12.3-5.2L1392.5,1128
						z"/>
					<path class="st11" d="M1387.8,1131.4c0-7.3,5.1-11.6,15.9-11.6c10.8,0,15.9,4.3,15.9,11.6c0,5.7,1.2,16.4,0.8,22.1
						c-0.4,6.4-2.5,10.5-7.2,14.5c-3,2.5-6.3,3.7-9.5,3.7c-3.1-0.1-6.5-1.2-9.5-3.7c-4.7-4-6.8-8.1-7.2-14.5
						C1386.7,1147.8,1387.8,1137.2,1387.8,1131.4z"/>
					<path class="st22" d="M1416.2,1149.8l-3.2,5.7l-13-1.2l-12.8,1.6l0.7,8c0.4,4.9,4.5,8.6,9.4,8.6h7.2c6.5,0,12.3-4,14.5-10
						c1.3-3.6,1.8-7.8,1.2-12.7H1416.2z"/>
					<path class="st22" d="M1416.2,1127.9C1416.2,1128,1416.2,1128,1416.2,1127.9c0.6,2.1,0.1,21.9,0.1,21.9h4.2
						c1.9-6.7,3.1-16.4,2.3-25L1416.2,1127.9z"/>
					<path class="st22" d="M1385.3,1120.1c0.7-5.1,5.9-11.7,22.6-11.7c16.6,0,18.6,15,28.3,16.4c-11.4,7.8-38.4,6.4-47.9,3.7
						l-3.8-3.7C1384.4,1123.2,1385.1,1121.6,1385.3,1120.1z"/>
					<path class="st1" d="M1405.7,1157.1c0,6.7-10.4,6.7-10.4,0C1398.8,1157.8,1402.3,1157.8,1405.7,1157.1z"/>
					<path class="st16" d="M1425.1,1148c-0.8,3.3-2.7,5.9-4.3,5.9c-1.6,0-2.2-2.6-1.4-5.9c0.8-3.3,2.7-5.9,4.3-5.9
						S1425.9,1144.7,1425.1,1148z"/>
					<ellipse class="st15" cx="1408.5" cy="1144.9" rx="1.5" ry="2.8"/>
					<ellipse class="st15" cx="1393" cy="1144.9" rx="1.5" ry="2.8"/>
					<path class="st16" d="M1399.4,1143.5l-2.4,9.7c-0.1,0.5,0.2,1,0.7,1.1c0,0,0.1,0,0.1,0l0.2,0l4.2,0.4c0.8,0.1,1.5-0.5,1.6-1.3
						c0.1-0.8-0.5-1.5-1.3-1.6c-0.1,0-0.2,0-0.3,0l-4.2,0.4l1,1.2L1399.4,1143.5z"/>
					<g>
						<path class="st11" d="M1427.4,1189.4c0.4,5.6,0.9,11.2,1.5,16.8c0.6,5.6,1.1,11.2,1.8,16.8c0.6,5.6,1.3,11.2,2,16.8l2.2,16.7
							l0-1.2l-0.2,15.3c0,5.1-0.1,10.2,0,15.3c0,5.1,0.1,10.2,0.2,15.3c0.1,5.1,0.2,10.2,0.5,15.4c0.1,2.2,2,3.9,4.2,3.8
							c1.9-0.1,3.5-1.6,3.7-3.4c0.8-5.1,1.4-10.2,2-15.2c0.6-5.1,1.2-10.2,1.7-15.3c0.5-5.1,1-10.2,1.5-15.3l1.3-15.3
							c0-0.3,0-0.5,0-0.8l0-0.4l-1.5-16.8c-0.6-5.6-1.1-11.2-1.7-16.8c-0.6-5.6-1.3-11.2-1.9-16.8c-0.7-5.6-1.4-11.2-2.3-16.7
							c-0.6-4-4.4-6.8-8.4-6.2C1429.8,1182.2,1427.2,1185.6,1427.4,1189.4z"/>
						<path class="st12" d="M1445,1187.3c-0.9-5.1-5.6-8.8-10.8-8.4c-5.7,0.4-10,5.3-9.7,11c0.6,9.4,1.6,18.8,2.8,28.1l22.3-9.4
							L1445,1187.3z"/>
						<path class="st11" d="M1448.9,1320.7l-0.4,8.6c0,1.1-0.5,2.1-1.3,2.8l-4.8,4.4c-2.3,2.1-6,1-6.7-2.1l-2.9-12.3
							c-1.2-5.3,2.9-10.2,8.3-10l0,0C1445.6,1312.4,1449.1,1316.2,1448.9,1320.7z"/>
					</g>
					<polygon class="st23" points="1373.4,1356.6 1399.3,1356.6 1400.7,1343.9 1373.4,1343.9 					"/>
					<polygon class="st23" points="1404.3,1356.6 1430.1,1356.6 1430.9,1343.9 1402.9,1343.9 					"/>
					<g>
						<path class="st12" d="M1376.9,1465.3c1.2-0.6,2.5-2.8,3.3-4.7h12.4l0.8,14.2h-30.2l-0.2-2.9
							C1362.7,1466.4,1371.7,1467.7,1376.9,1465.3z"/>
						<polygon class="st24" points="1385.2,1471.1 1393.1,1471.1 1393.4,1474.8 1363.2,1474.8 1363.1,1473.3 1379.3,1473.3 						
							"/>
						<path class="st1" d="M1378,1464.2h1.6c0.9,0,2-0.7,2.5-1.5l2.5-4.1c0.5-0.9,0.2-1.5-0.6-1.5h-1.6c-0.9,0-2,0.7-2.5,1.5
							l-2.5,4.1C1376.9,1463.5,1377.2,1464.2,1378,1464.2z"/>
					</g>
					<g>
						<path class="st12" d="M1421.3,1465c0.9-0.6,1.6-2.7,2-4.4h11.3l1.5,14.2h-20.8l-0.3-2.9
							C1414.6,1468,1417.6,1467.5,1421.3,1465z"/>
						<polygon class="st24" points="1430.4,1471.1 1435.9,1471.1 1436.1,1474.8 1415.3,1474.8 1415.1,1473.3 1426.3,1473.3 						
							"/>
						<path class="st1" d="M1423,1464.2h2.9c0.9,0,1.7-0.7,1.9-1.5l0.9-4.1c0.2-0.9-0.4-1.5-1.2-1.5h-2.9c-0.9,0-1.7,0.7-1.9,1.5
							l-0.9,4.1C1421.6,1463.5,1422.2,1464.2,1423,1464.2z"/>
					</g>
					<path class="st15" d="M1404.3,1141.5c0.4,0.3,1,0.3,1.4,0c1.8-1.2,4.2-1.2,6,0c0.5,0.3,1.1,0.4,1.4,0c0.4-0.3,0.2-1.1-0.4-1.5
						c-2.4-1.6-5.6-1.6-8,0C1404.1,1140.4,1403.9,1141.2,1404.3,1141.5z M1387.9,1141.5c0.4,0.3,1,0.3,1.4,0c1.8-1.2,4.2-1.2,6,0
						c0.5,0.3,1.1,0.4,1.4,0c0.4-0.3,0.2-1.1-0.4-1.5c-2.4-1.6-5.6-1.6-8,0C1387.7,1140.4,1387.6,1141.2,1387.9,1141.5z"/>
				</g>
			</g>
		</g>
	</g>
</g>
<g>
	<g>
		<g>
			<g>
				
					<rect x="619.7" y="243.6" transform="matrix(0.8429 -0.5381 0.5381 0.8429 -53.1056 381.5901)" class="st25" width="14.4" height="76.3"/>
				<linearGradient id="SVGID_1_" gradientUnits="userSpaceOnUse" x1="551.711" y1="185.1199" x2="626.4436" y2="259.8525">
					<stop  offset="0" style="stop-color:#8DD6FF"/>
					<stop  offset="1" style="stop-color:#336DD6"/>
				</linearGradient>
				<circle class="st26" cx="589.1" cy="222.5" r="52.8"/>
				
					<ellipse transform="matrix(0.8429 -0.5381 0.5381 0.8429 -27.1669 351.9283)" class="st27" cx="589.1" cy="222.5" rx="35.2" ry="35.2"/>
			</g>
			<path class="st28" d="M684.1,367.8c-0.1,0.1-0.2,0.1-0.2,0.2c-5.4,4.3-13.5,3-17.2-2.8l-46.5-72.3c-1.6-2.6-0.9-5.9,1.6-7.6
				l10.4-6.6c2.6-1.6,5.9-0.9,7.6,1.6l46.9,71.9C690,357.2,688.9,364,684.1,367.8z"/>
		</g>
		<polygon class="st29" points="830,75.9 808.9,65 808.9,28.7 785.3,74.1 806.3,85 806.3,121.3 		"/>
		<g>
			<path class="st28" d="M756.2,61c-2.1-9.3-9.6-16.6-19.1-18.3l0-3.4c5.7-1.9,9.9-7.3,9.9-13.6c0-7.9-6.4-14.3-14.3-14.2
				s-14.4,6.5-14.4,14.4c0,6.3,4.1,11.6,9.8,13.5l0,3.4c-9.5,1.8-17.1,9.1-19.3,18.5c-0.6,2.8,1.4,5.4,4.3,5.4l38.8-0.2
				C754.7,66.4,756.8,63.7,756.2,61z"/>
			<path class="st25" d="M986.4,61c-2.1-9.3-9.6-16.6-19.1-18.3l0-3.4c5.7-1.9,9.9-7.3,9.9-13.6c0-7.9-6.4-14.3-14.3-14.2
				c-7.9,0-14.4,6.5-14.4,14.4c0,6.3,4.1,11.6,9.8,13.5l0,3.4c-9.5,1.8-17.1,9.1-19.3,18.5c-0.6,2.8,1.4,5.4,4.3,5.4l38.8-0.2
				C984.9,66.4,987,63.7,986.4,61z"/>
			<path class="st25" d="M692.6,61c-2.1-9.3-9.6-16.6-19.1-18.3l0-3.4c5.7-1.9,9.9-7.3,9.9-13.6c0-7.9-6.4-14.3-14.3-14.2
				c-7.9,0-14.4,6.5-14.4,14.4c0,6.3,4.1,11.6,9.8,13.5l0,3.4c-9.5,1.8-17.1,9.1-19.3,18.5c-0.6,2.8,1.4,5.4,4.3,5.4l38.8-0.2
				C691.1,66.4,693.2,63.7,692.6,61z"/>
			<path class="st28" d="M916.9,61c-2.1-9.3-9.6-16.6-19.1-18.3l0-3.4c5.7-1.9,9.9-7.3,9.9-13.6c0-7.9-6.4-14.3-14.3-14.2
				S879,17.9,879,25.8c0,6.3,4.1,11.6,9.8,13.5l0,3.4c-9.5,1.8-17.1,9.1-19.3,18.5c-0.6,2.8,1.4,5.4,4.3,5.4l38.8-0.2
				C915.5,66.4,917.5,63.7,916.9,61z"/>
		</g>
		<g>
			<path class="st30" d="M742.7,91h-20.5c-7.5,0-13.6,6.1-13.6,13.6v24h47.7v-24C756.3,97.1,750.2,91,742.7,91z"/>
			<linearGradient id="SVGID_2_" gradientUnits="userSpaceOnUse" x1="708.6306" y1="205.0405" x2="811.2657" y2="205.0405">
				<stop  offset="0" style="stop-color:#FF467B"/>
				<stop  offset="1" style="stop-color:#DF2362"/>
			</linearGradient>
			<path class="st31" d="M756.3,177.4v-48.7h-47.7v48.7c0,56.9,45.9,103.3,102.6,104.1v-47.7C780.8,233,756.3,208,756.3,177.4z"/>
			<path class="st30" d="M903.5,91h-20.5c-7.5,0-13.6,6.1-13.6,13.6v24H917v-24C917,97.1,911,91,903.5,91z"/>
			<path class="st28" d="M869.4,128.6v48.7c0,31.2-25.4,56.5-56.5,56.5c-0.5,0-1-0.1-1.6-0.1v47.7c0.5,0,1,0.1,1.6,0.1
				c57.5,0,104.2-46.7,104.2-104.2v-48.7H869.4z"/>
		</g>
		<g>
			<g>
				<linearGradient id="SVGID_3_" gradientUnits="userSpaceOnUse" x1="915.2697" y1="230.6268" x2="1098.9421" y2="230.6268">
					<stop  offset="0" style="stop-color:#DBDBEC"/>
					<stop  offset="0.9994" style="stop-color:#EEEEF6"/>
				</linearGradient>
				<path class="st32" d="M1096.2,189.9c0,0-61.3,103.5-83.9,140.9c-4.6,7.6-14.3,10.1-22.1,5.8l-65-38.8
					c-9.6-5.6-12.9-18.2-7.2-27.8l80.4-137.3c5.6-9.7,18.2-13,27.8-7.3l62.6,36.7C1098.6,167.7,1101.8,180.2,1096.2,189.9z"/>
				<linearGradient id="SVGID_4_" gradientUnits="userSpaceOnUse" x1="971.9728" y1="183.274" x2="1036.3599" y2="276.8789">
					<stop  offset="0" style="stop-color:#333F96"/>
					<stop  offset="1" style="stop-color:#000C74"/>
				</linearGradient>
				<path class="st33" d="M1075.8,180.8l-59.4-34.8c-4.9-2.9-11.3-1.2-14.2,3.7l-70.2,119.9c-2.9,4.9-1.2,11.3,3.7,14.2l59.4,34.8
					c4.9,2.9,11.3,1.2,14.2-3.7l60.8-103.7l9.5-16.1C1082.4,190.1,1080.7,183.7,1075.8,180.8z"/>
				<path class="st34" d="M1061.5,164.4l-23.9-14c-1.4-0.8-1.9-2.6-1.1-4c0.8-1.4,2.6-1.9,4-1.1l23.9,14c1.4,0.8,1.9,2.6,1.1,4
					C1064.7,164.7,1062.9,165.2,1061.5,164.4z"/>
			</g>
			<g>
				
					<linearGradient id="SVGID_5_" gradientUnits="userSpaceOnUse" x1="739.6623" y1="701.948" x2="785.6702" y2="701.948" gradientTransform="matrix(0.5738 0.819 -0.819 0.5738 1178.7089 -828.7163)">
					<stop  offset="0" style="stop-color:#DBDBEC"/>
					<stop  offset="0.9994" style="stop-color:#EEEEF6"/>
				</linearGradient>
				<path class="st35" d="M1039.1,177.8l23.9,13.8c3.8,2.2,5.1,7,2.9,10.8l-6.1,10.6c-2.2,3.8-7,5.1-10.8,2.9l-14.5-8.4l-9.9,6.1
					l0.4-11.6c-3.7-2.2-4.9-7-2.8-10.7l6.1-10.6C1030.5,176.9,1035.3,175.6,1039.1,177.8z"/>
				
					<ellipse transform="matrix(0.819 -0.5738 0.5738 0.819 77.3126 627.4326)" class="st34" cx="1033.1" cy="191.2" rx="3.6" ry="3.6"/>
				
					<ellipse transform="matrix(0.819 -0.5738 0.5738 0.819 75.7471 634.7906)" class="st34" cx="1044" cy="197.3" rx="3.6" ry="3.6"/>
				
					<ellipse transform="matrix(0.819 -0.5738 0.5738 0.819 74.1818 642.1489)" class="st34" cx="1054.9" cy="203.5" rx="3.6" ry="3.6"/>
			</g>
			<g>
				
					<linearGradient id="SVGID_6_" gradientUnits="userSpaceOnUse" x1="1799.6887" y1="265.2531" x2="1845.6952" y2="265.2531" gradientTransform="matrix(-0.9962 -8.750000e-02 -8.750000e-02 0.9962 2829.3098 124.3266)">
					<stop  offset="0" style="stop-color:#DBDBEC"/>
					<stop  offset="0.9994" style="stop-color:#EEEEF6"/>
				</linearGradient>
				<path class="st36" d="M1009.6,220.7l-23.9-13.8c-3.8-2.2-8.6-0.9-10.8,2.9l-6.1,10.6c-2.2,3.8-0.9,8.6,2.9,10.8l14.6,8.4
					l-0.4,11.6l9.9-6.2c3.7,2.1,8.5,0.8,10.7-3l6.1-10.6C1014.7,227.7,1013.3,222.9,1009.6,220.7z"/>
				
					<ellipse transform="matrix(8.743322e-02 -0.9962 0.9962 8.743322e-02 681.8328 1209.3563)" class="st34" cx="1001" cy="232.5" rx="3.6" ry="3.6"/>
				
					<ellipse transform="matrix(8.747660e-02 -0.9962 0.9962 8.747660e-02 678.2759 1192.8215)" class="st34" cx="990.2" cy="226.2" rx="3.6" ry="3.6"/>
				
					<ellipse transform="matrix(8.743322e-02 -0.9962 0.9962 8.743322e-02 674.8032 1176.314)" class="st34" cx="979.4" cy="219.8" rx="3.6" ry="3.6"/>
			</g>
		</g>
		<g>
			
				<linearGradient id="SVGID_7_" gradientUnits="userSpaceOnUse" x1="897.8052" y1="153.0696" x2="973.6792" y2="153.0696" gradientTransform="matrix(0.9889 -0.1489 0.1489 0.9889 -240.9286 240.768)">
				<stop  offset="0" style="stop-color:#DBDBEC"/>
				<stop  offset="0.9994" style="stop-color:#EEEEF6"/>
			</linearGradient>
			<path class="st37" d="M674.7,240.9l38-25.1c6-4,14.1-2.3,18.1,3.7l11.1,16.8c4,6,2.3,14.1-3.7,18.1l-23.1,15.3l1.8,19.1
				l-16.9-9.1c-6,3.8-13.9,2.1-17.8-3.8L671,259C667.1,253,668.7,244.9,674.7,240.9z"/>
			
				<ellipse transform="matrix(0.9889 -0.1489 0.1489 0.9889 -30.9509 105.6135)" class="st34" cx="690" cy="259.6" rx="5.9" ry="5.9"/>
			
				<ellipse transform="matrix(0.9889 -0.1489 0.1489 0.9889 -29.0434 108.0319)" class="st34" cx="707.1" cy="248" rx="5.9" ry="5.9"/>
			
				<ellipse transform="matrix(0.9889 -0.1489 0.1489 0.9889 -27.1353 110.4474)" class="st34" cx="724.2" cy="236.5" rx="5.9" ry="5.9"/>
		</g>
	</g>
	<g>
		<g>
			<g>
				<g>
					<rect x="777.3" y="929.9" class="st38" width="74.7" height="3.6"/>
					<rect x="786" y="949.8" class="st38" width="74.7" height="5.2"/>
					<polygon class="st38" points="860.7,980.3 786,980.3 786,973 860.7,972.5 					"/>
					<rect x="777.3" y="994.5" class="st38" width="74.7" height="5.8"/>
					<rect x="777.3" y="908.4" class="st38" width="74.7" height="3.6"/>
					<g>
						<rect x="777.3" y="890.4" class="st39" width="21.3" height="17.9"/>
						<rect x="832" y="890.4" class="st40" width="28.7" height="17.9"/>
						<rect x="798.6" y="890.4" class="st41" width="33.5" height="17.9"/>
					</g>
					<g>
						<rect x="768.6" y="912" class="st39" width="21.3" height="17.9"/>
						<rect x="823.3" y="912" class="st40" width="28.7" height="17.9"/>
						<rect x="789.8" y="912" class="st41" width="33.5" height="17.9"/>
					</g>
					<g>
						<rect x="777.3" y="933.5" class="st39" width="21.3" height="17.9"/>
						<rect x="832" y="933.5" class="st40" width="28.7" height="17.9"/>
						<rect x="798.6" y="933.5" class="st41" width="33.5" height="17.9"/>
					</g>
				</g>
				<g>
					<g>
						<rect x="786" y="955" class="st39" width="21.3" height="17.9"/>
						<rect x="840.8" y="955" class="st40" width="28.7" height="17.9"/>
						<rect x="807.3" y="955" class="st41" width="33.5" height="17.9"/>
					</g>
					<g>
						<rect x="777.3" y="976.6" class="st39" width="21.3" height="17.9"/>
						<rect x="832" y="976.6" class="st40" width="28.7" height="17.9"/>
						<rect x="798.6" y="976.6" class="st41" width="33.5" height="17.9"/>
					</g>
					<g>
						<rect x="768.6" y="998.1" class="st39" width="21.3" height="17.9"/>
						<rect x="823.3" y="998.1" class="st40" width="28.7" height="17.9"/>
						<rect x="789.8" y="998.1" class="st41" width="33.5" height="17.9"/>
					</g>
				</g>
			</g>
			<g>
				
					<rect x="772.3" y="792" transform="matrix(0.7071 -0.7071 0.7071 0.7071 -337.083 788.2445)" class="st39" width="21.3" height="17.9"/>
				
					<rect x="809.9" y="750.7" transform="matrix(0.7071 -0.7071 0.7071 0.7071 -295.7491 805.366)" class="st40" width="28.7" height="17.9"/>
				
					<rect x="785.6" y="772.7" transform="matrix(0.7071 -0.7071 0.7071 0.7071 -317.734 796.2735)" class="st41" width="33.5" height="17.9"/>
			</g>
			<g>
				
					<rect x="804.7" y="817.3" transform="matrix(0.4913 -0.871 0.871 0.4913 -307.1859 1129.833)" class="st39" width="17.9" height="21.3"/>
				
					<rect x="855.6" y="842.3" transform="matrix(0.4914 -0.871 0.871 0.4914 -306.3088 1188.7719)" class="st40" width="17.9" height="28.7"/>
				
					<rect x="828.6" y="824.6" transform="matrix(0.4914 -0.871 0.871 0.4914 -306.7783 1157.412)" class="st41" width="17.9" height="33.5"/>
			</g>
		</g>
		<g>
			<g>
				<polygon class="st38" points="723.2,980.3 648.6,976.6 648.6,972.5 723.2,972.5 				"/>
				<polygon class="st38" points="723.3,1000.3 655.6,998.1 655.6,993.2 723.3,994.5 				"/>
			</g>
			<g>
				<g>
					<rect x="639.8" y="955" class="st39" width="21.3" height="17.9"/>
					<rect x="694.5" y="955" class="st40" width="28.7" height="17.9"/>
					<rect x="661" y="955" class="st41" width="33.5" height="17.9"/>
				</g>
				<g>
					<rect x="648.6" y="976.6" class="st39" width="21.3" height="17.9"/>
					<rect x="703.3" y="976.6" class="st40" width="28.7" height="17.9"/>
					<rect x="669.9" y="976.6" class="st41" width="33.5" height="17.9"/>
				</g>
				<g>
					<rect x="655.6" y="998.1" class="st39" width="21.3" height="17.9"/>
					<rect x="710.4" y="998.1" class="st40" width="28.7" height="17.9"/>
					<rect x="676.9" y="998.1" class="st41" width="33.5" height="17.9"/>
				</g>
			</g>
		</g>
		<g>
			<g>
				<rect x="912.9" y="949.8" class="st38" width="71" height="5.2"/>
				
					<rect x="912.9" y="972.5" transform="matrix(-1 -1.224647e-16 1.224647e-16 -1 1896.8665 1952.8458)" class="st38" width="71" height="7.8"/>
				<rect x="909.2" y="994.5" class="st38" width="74.7" height="5.8"/>
				<g>
					<rect x="962.7" y="933.5" class="st39" width="21.3" height="17.9"/>
					<rect x="900.5" y="933.5" class="st40" width="28.7" height="17.9"/>
					<rect x="929.2" y="933.5" class="st41" width="33.5" height="17.9"/>
				</g>
			</g>
			<g>
				<g>
					<rect x="975.1" y="955" class="st39" width="21.3" height="17.9"/>
					<rect x="912.9" y="955" class="st40" width="28.7" height="17.9"/>
					<rect x="941.6" y="955" class="st41" width="33.5" height="17.9"/>
				</g>
				<g>
					<rect x="962.7" y="976.6" class="st39" width="21.3" height="17.9"/>
					<rect x="900.5" y="976.6" class="st40" width="28.7" height="17.9"/>
					<rect x="929.2" y="976.6" class="st41" width="33.5" height="17.9"/>
				</g>
				<g>
					<rect x="971.4" y="998.1" class="st39" width="21.3" height="17.9"/>
					<rect x="909.2" y="998.1" class="st40" width="28.7" height="17.9"/>
					<rect x="937.9" y="998.1" class="st41" width="33.5" height="17.9"/>
				</g>
			</g>
		</g>
	</g>
	<g>
		<g>
			<linearGradient id="SVGID_8_" gradientUnits="userSpaceOnUse" x1="567.6385" y1="524.3" x2="1068.5427" y2="524.3">
				<stop  offset="0" style="stop-color:#8DD6FF"/>
				<stop  offset="2.079487e-03" style="stop-color:#8DD6FF"/>
				<stop  offset="0.2073" style="stop-color:#6DB0F0"/>
				<stop  offset="0.4121" style="stop-color:#5393E5"/>
				<stop  offset="0.6139" style="stop-color:#417EDD"/>
				<stop  offset="0.8116" style="stop-color:#3771D8"/>
				<stop  offset="1" style="stop-color:#336DD6"/>
			</linearGradient>
			<polygon class="st42" points="1068.5,336.7 864.6,711.9 771.6,711.9 567.6,336.7 			"/>
			<path class="st43" d="M1061.1,355.5H571.3c-15,0-27.1-12.1-27.1-27.1c0-15,12.1-27.1,27.1-27.1h489.8c15,0,27.1,12.1,27.1,27.1
				C1088.2,343.3,1076.1,355.5,1061.1,355.5z"/>
			<g>
				<rect x="771.6" y="711.9" class="st44" width="93" height="47.6"/>
				<path class="st43" d="M871.1,749.1H765.6c-4,0-7.3,3.3-7.3,7.3v6.1c0,4,3.3,7.3,7.3,7.3h105.5c4,0,7.3-3.3,7.3-7.3v-6.1
					C878.4,752.4,875.1,749.1,871.1,749.1z"/>
			</g>
			<g>
				<polygon class="st45" points="794.3,711.9 806.6,711.9 708.7,387.6 648.9,387.6 				"/>
				<polygon class="st44" points="1060,355.5 695.7,355.5 708.7,387.6 1040.4,387.6 				"/>
				<polygon class="st44" points="576.7,355.5 595.5,387.6 654.4,387.6 640.5,355.5 				"/>
				<polygon class="st46" points="635.1,355.5 648.9,387.6 708.7,387.6 699.3,355.5 				"/>
			</g>
		</g>
		<path class="st47" d="M630.8,330.1h-57.4c-4.9,0-8.9-4-8.9-8.9s4-8.9,8.9-8.9h57.4c4.9,0,8.9,4,8.9,8.9S635.7,330.1,630.8,330.1z"
			/>
		<path class="st47" d="M759.2,330.1h-95c-4.9,0-8.9-4-8.9-8.9s4-8.9,8.9-8.9h95c4.9,0,8.9,4,8.9,8.9S764.2,330.1,759.2,330.1z"/>
		<rect x="794.3" y="711.9" class="st48" width="12.3" height="37.3"/>
	</g>
</g>
<ellipse class="st49" cx="236.3" cy="1571.2" rx="148.9" ry="11"/>
<g>
	<circle class="st1" cx="237.4" cy="1353.7" r="216.7"/>
	<path class="st49" d="M237.4,1574.5c-59,0-114.4-23-156.1-64.6c-41.7-41.7-64.6-97.1-64.6-156.1s23-114.4,64.6-156.1
		c41.7-41.7,97.1-64.6,156.1-64.6s114.4,23,156.1,64.6c41.7,41.7,64.6,97.1,64.6,156.1s-23,114.4-64.6,156.1
		C351.8,1551.5,296.3,1574.5,237.4,1574.5z M237.4,1141c-117.3,0-212.7,95.4-212.7,212.7c0,117.3,95.4,212.7,212.7,212.7
		c117.3,0,212.7-95.4,212.7-212.7C450.1,1236.4,354.7,1141,237.4,1141z"/>
</g>
<path class="st50" d="M248.8,1425.3c-18.2,17.9-41.7,26.3-67.2,26.3c-65.6,0-93.4-45.2-93.7-91.2c-0.3-46.2,29.8-93.2,93.7-93.2
	c24,0,46.7,9.1,64.9,27l-22.2,21.5c-11.6-11.4-27.3-16.7-42.7-16.7c-42.7,0-61.1,31.8-60.8,61.4c0.3,29.3,17.2,59.8,60.8,59.8
	c15.4,0,32.8-6.3,44.4-17.9L248.8,1425.3z"/>
<path class="st50" d="M259.7,1447.5V1271h127v32.1h-93.7v48.2h88.6v30.8h-88.6v65.4H259.7z"/>
</svg>
