<?xml version="1.0" encoding="utf-8"?>
<!-- Generator: Adobe Illustrator 21.1.0, SVG Export Plug-In . SVG Version: 6.00 Build 0)  -->
<svg version="1.1" id="Layer_1" xmlns="http://www.w3.org/2000/svg" xmlns:xlink="http://www.w3.org/1999/xlink" x="0px" y="0px"
	 viewBox="0 0 49.3 47.3" style="enable-background:new 0 0 49.3 47.3;" xml:space="preserve">
<style type="text/css">
	.st0{opacity:0.24;}
	.st1{fill:#FFFFFF;}
	.st2{fill:#41566B;}
	.st3{fill:#29ACE2;}
</style>
<ellipse class="st0" cx="24.2" cy="43.9" rx="22.5" ry="0.9"/>
<g>
	<path class="st1" d="M41.5,43.9H7.9c-2.2,0-3.9-1.8-3.9-3.9V6.6c0-2.2,1.8-3.9,3.9-3.9h33.6c2.2,0,3.9,1.8,3.9,3.9v33.3
		C45.4,42.1,43.7,43.9,41.5,43.9z"/>
	<path class="st2" d="M42.4,2.2H6.6c-2,0-3.7,1.6-3.7,3.7v34.6c0,2,1.6,3.7,3.7,3.7h35.9c2,0,3.7-1.6,3.7-3.7V5.9
		C46.1,3.8,44.5,2.2,42.4,2.2z M40.2,6.2c0.9,0,1.6,0.7,1.6,1.6s-0.7,1.6-1.6,1.6c-0.9,0-1.6-0.7-1.6-1.6C38.5,7,39.3,6.2,40.2,6.2z
		 M35.4,6.2C36.3,6.2,37,7,37,7.9s-0.7,1.6-1.6,1.6c-0.9,0-1.6-0.7-1.6-1.6C33.8,7,34.5,6.2,35.4,6.2z M30.6,6.2
		c0.9,0,1.6,0.7,1.6,1.6s-0.7,1.6-1.6,1.6S29,8.8,29,7.9C29,7,29.7,6.2,30.6,6.2z M44.3,40.4c0,1-0.9,1.9-1.9,1.9H6.6
		c-1,0-1.9-0.9-1.9-1.9V13.3h39.7V40.4z"/>
	<g>
		<path class="st3" d="M23.1,37c-0.1,0.1-0.2,0.1-0.4,0.2c-0.3,0.1-0.7,0.2-1.4,0.3c-0.7,0.1-1.5,0.2-2.3,0.2c-1,0-1.9-0.1-2.8-0.4
			c-0.9-0.3-1.7-0.7-2.4-1.4c-0.7-0.6-1.2-1.5-1.7-2.5c-0.4-1-0.6-2.3-0.6-3.8v-3.2c0-1.5,0.2-2.8,0.6-3.8c0.4-1,1-1.9,1.7-2.5
			c0.7-0.6,1.5-1.1,2.4-1.3c0.9-0.3,1.8-0.4,2.8-0.4c0.9,0,1.7,0.1,2.3,0.2c0.7,0.1,1.1,0.2,1.4,0.3c0.2,0.1,0.3,0.1,0.4,0.2
			c0.1,0.1,0.1,0.2,0.1,0.4v2.5c0,0.3-0.2,0.5-0.5,0.5h-0.1c-0.5,0-1.1-0.1-1.7-0.1c-0.6-0.1-1.3-0.1-2-0.1c-0.4,0-0.8,0.1-1.2,0.2
			c-0.4,0.1-0.7,0.4-1,0.7c-0.3,0.3-0.5,0.8-0.7,1.3c-0.2,0.5-0.2,1.2-0.2,2.1v3.2c0,0.8,0.1,1.5,0.2,2.1c0.2,0.5,0.4,1,0.7,1.3
			c0.3,0.3,0.6,0.6,1,0.7c0.4,0.1,0.8,0.2,1.2,0.2c0.7,0,1.4,0,2-0.1c0.6-0.1,1.2-0.1,1.7-0.1h0.1c0.3,0,0.5,0.2,0.5,0.5v2.4
			C23.2,36.8,23.2,36.9,23.1,37z"/>
		<path class="st3" d="M37.4,22c-0.1,0.1-0.2,0.2-0.4,0.2h-5.1c-0.6,0-1,0.1-1.2,0.4c-0.2,0.2-0.4,0.7-0.4,1.4v2.3h6.5
			c0.1,0,0.3,0.1,0.4,0.2c0.1,0.1,0.2,0.2,0.2,0.4V29c0,0.1-0.1,0.3-0.2,0.4c-0.1,0.1-0.2,0.2-0.4,0.2h-6.5v7.4
			c0,0.1-0.1,0.3-0.2,0.4c-0.1,0.1-0.2,0.2-0.4,0.2h-3.3c-0.1,0-0.3-0.1-0.4-0.2c-0.1-0.1-0.2-0.2-0.2-0.4V23.8
			c0-1.1,0.2-2.1,0.5-2.8c0.3-0.7,0.8-1.3,1.4-1.6c0.6-0.4,1.2-0.6,2-0.8c0.8-0.1,1.5-0.2,2.3-0.2c0.7,0,1.3,0,1.8,0
			c0.5,0,1,0.1,1.4,0.1c0.4,0,0.7,0.1,1,0.1c0.3,0,0.5,0.1,0.7,0.1c0.3,0.1,0.5,0.2,0.5,0.5v2.3C37.5,21.7,37.5,21.9,37.4,22z"/>
	</g>
</g>
</svg>
